<?xml version="1.0" encoding="utf-8"?>
<!-- Generator: Adobe Illustrator 21.0.0, SVG Export Plug-In . SVG Version: 6.00 Build 0)  -->
<svg version="1.1" id="Слой_1" xmlns="http://www.w3.org/2000/svg" xmlns:xlink="http://www.w3.org/1999/xlink" x="0px" y="0px"
	 viewBox="0 0 792 167.9" style="enable-background:new 0 0 792 167.9;" xml:space="preserve">
<style type="text/css">
	.st0{fill:#5B7CB7;}
	.st1{fill:#CA5456;}
	.st2{fill:url(#SVGID_1_);}
	.st3{fill:#D16F6B;}
</style>
<g>
	<g>
		<g>
			<g>
				<path class="st0" d="M230.7,78.8h-8.6V37.4h-14.8v-7.6h38.3v7.6h-14.8V78.8z"/>
				<path class="st0" d="M293.6,72.5c-4.7,4.8-10.7,7.2-18,7.2c-7.3,0-13.3-2.4-18-7.2c-4.7-4.8-7-10.8-7-18.2s2.3-13.4,7-18.2
					c4.7-4.8,10.7-7.2,18-7.2c7.3,0,13.3,2.4,18,7.2c4.7,4.8,7,10.8,7,18.2S298.3,67.8,293.6,72.5z M275.6,72.1
					c4.8,0,8.8-1.7,11.7-5c3-3.4,4.5-7.6,4.5-12.7c0-5.1-1.5-9.4-4.5-12.7c-3-3.3-6.9-5-11.7-5c-4.9,0-8.8,1.7-11.8,5
					c-3,3.3-4.4,7.6-4.4,12.7s1.5,9.4,4.4,12.7C266.8,70.4,270.7,72.1,275.6,72.1z"/>
				<path class="st0" d="M317.6,78.8H309v-49h21.5c4.9,0,8.8,1.5,11.7,4.4c2.9,2.9,4.3,6.6,4.3,10.9c0,4.3-1.4,7.9-4.3,10.9
					c-2.9,3-6.8,4.4-11.7,4.4h-12.9V78.8z M329.3,53c2.4,0,4.5-0.7,6-2.1c1.6-1.4,2.3-3.3,2.3-5.7c0-2.3-0.8-4.2-2.3-5.7
					c-1.6-1.4-3.6-2.1-6-2.1h-11.7V53H329.3z"/>
				<path class="st1" d="M389.2,79.7c-8.4,0-15.1-2.6-19.9-7.8l4.8-6.6c4.2,4.5,9.4,6.8,15.5,6.8c3.3,0,5.7-0.7,7.4-2
					c1.6-1.3,2.5-2.9,2.5-4.7c0-1.9-1-3.3-2.9-4.4c-2-1.1-4.3-2-7.1-2.6c-2.8-0.6-5.6-1.4-8.4-2.3c-2.8-0.9-5.2-2.4-7.2-4.5
					c-2-2.1-2.9-4.8-2.9-8.1c0-4.1,1.7-7.5,5-10.2c3.3-2.7,7.6-4.1,12.9-4.1c7.5,0,13.7,2.3,18.4,6.8l-4.9,6.4
					c-3.7-3.7-8.4-5.6-14.2-5.6c-2.5,0-4.6,0.6-6.1,1.7c-1.5,1.1-2.2,2.6-2.2,4.4c0,1.2,0.5,2.3,1.6,3.1c1.1,0.8,2.4,1.5,4.1,2
					c1.7,0.5,3.5,1,5.5,1.5c2,0.5,4.1,1.1,6.1,1.8c2,0.7,3.9,1.6,5.5,2.6c1.7,1,3,2.4,4.1,4.3c1.1,1.8,1.6,4,1.6,6.5
					c0,4.4-1.6,8-4.8,10.9C400.2,78.3,395.5,79.7,389.2,79.7z"/>
				<path class="st1" d="M436.4,78.8h-8.6V37.4h-14.8v-7.6h38.3v7.6h-14.8V78.8z"/>
				<path class="st1" d="M496.3,78.8h-9.9l-10.9-18.3H467v18.3h-8.6v-49H480c4.8,0,8.7,1.4,11.6,4.3c2.9,2.8,4.4,6.5,4.4,11.1
					c0,4.1-1.1,7.4-3.4,9.9c-2.3,2.5-5,4-8.2,4.5L496.3,78.8z M478.8,53c2.4,0,4.5-0.7,6-2.1c1.6-1.4,2.3-3.3,2.3-5.7
					c0-2.3-0.8-4.2-2.3-5.7c-1.6-1.4-3.6-2.1-6-2.1H467V53H478.8z"/>
				<path class="st1" d="M548.6,78.8h-9.8l-3.6-9.4h-22.5l-3.6,9.4h-9.8l19.2-49h10.7L548.6,78.8z M532.8,61.9L524,38.5l-8.8,23.3
					H532.8z"/>
				<path class="st1" d="M574.2,78.8h-8.6V37.4h-14.8v-7.6h38.3v7.6h-14.8V78.8z"/>
				<path class="st1" d="M629.9,78.8h-33.6v-49h33.6v7.6h-25v12.7h24.4v7.6h-24.4v13.6h25V78.8z"/>
				<path class="st1" d="M662.2,79.8c-7.2,0-13.3-2.3-18.3-7c-4.9-4.7-7.4-10.8-7.4-18.4c0-7.5,2.5-13.6,7.4-18.3
					c4.9-4.7,11-7,18.3-7c8.4,0,15,3.4,19.8,10.2l-7,4c-1.4-1.9-3.2-3.5-5.4-4.7c-2.2-1.2-4.7-1.8-7.3-1.8c-4.8,0-8.9,1.7-12.1,5
					c-3.2,3.3-4.8,7.6-4.8,12.7s1.6,9.4,4.8,12.7c3.2,3.4,7.2,5,12.1,5c2.3,0,4.5-0.4,6.6-1.3c2.1-0.9,3.8-1.9,5-3.1v-7.6h-14.6
					v-7.6h23.2v18.4C677.1,76.8,670.3,79.8,662.2,79.8z"/>
				<path class="st1" d="M713.8,78.8h-8.6V58.5l-19-28.6h9.8l13.5,21l13.4-21h9.8l-18.9,28.6V78.8z"/>
				<path class="st0" d="M233.9,138.9c-7.2,0-13.3-2.3-18.3-7c-4.9-4.7-7.4-10.8-7.4-18.4c0-7.5,2.5-13.6,7.4-18.3
					c4.9-4.7,11-7,18.3-7c8.4,0,15,3.4,19.8,10.2l-7,4c-1.4-1.9-3.2-3.5-5.4-4.7c-2.2-1.2-4.7-1.8-7.3-1.8c-4.8,0-8.9,1.7-12.1,5
					c-3.2,3.3-4.8,7.6-4.8,12.7s1.6,9.4,4.8,12.7c3.2,3.4,7.2,5,12.1,5c2.3,0,4.5-0.4,6.6-1.3c2.1-0.9,3.8-1.9,5-3.1v-7.6h-14.6
					v-7.6h23.2V130C248.8,135.9,242.1,138.9,233.9,138.9z"/>
				<path class="st0" d="M301,137.9h-9.9l-10.9-18.3h-8.5v18.3h-8.6v-49h21.5c4.8,0,8.7,1.4,11.6,4.3c2.9,2.8,4.4,6.5,4.4,11.1
					c0,4.1-1.1,7.4-3.4,9.9c-2.3,2.5-5,4-8.2,4.5L301,137.9z M283.4,112.1c2.4,0,4.5-0.7,6-2.1c1.6-1.4,2.3-3.3,2.3-5.7
					c0-2.3-0.8-4.2-2.3-5.7c-1.6-1.4-3.6-2.1-6-2.1h-11.7v15.6H283.4z"/>
				<path class="st0" d="M350,131.6c-4.7,4.8-10.7,7.2-18,7.2c-7.3,0-13.3-2.4-18-7.2c-4.7-4.8-7-10.8-7-18.2c0-7.3,2.3-13.4,7-18.2
					c4.7-4.8,10.7-7.2,18-7.2c7.3,0,13.3,2.4,18,7.2c4.7,4.8,7,10.8,7,18.2C357.1,120.8,354.7,126.9,350,131.6z M332,131.2
					c4.8,0,8.8-1.7,11.7-5c3-3.4,4.5-7.6,4.5-12.7c0-5.1-1.5-9.4-4.5-12.7c-3-3.3-6.9-5-11.7-5c-4.9,0-8.8,1.7-11.8,5
					c-3,3.3-4.4,7.6-4.4,12.7s1.5,9.4,4.4,12.7C323.2,129.5,327.1,131.2,332,131.2z"/>
				<path class="st0" d="M386.6,138.8c-7,0-12.2-1.8-15.8-5.4c-3.6-3.6-5.4-8.5-5.4-14.8V88.9h8.7v29.4c0,4,1.1,7.1,3.3,9.4
					c2.2,2.3,5.3,3.5,9.3,3.5c4,0,7.1-1.1,9.3-3.5c2.2-2.3,3.2-5.4,3.2-9.4V88.9h8.7v29.6c0,6.3-1.8,11.2-5.4,14.8
					C398.7,137,393.5,138.8,386.6,138.8z"/>
				<path class="st0" d="M426.7,137.9h-8.6v-49h21.5c4.9,0,8.8,1.5,11.7,4.4c2.9,2.9,4.3,6.6,4.3,10.9c0,4.3-1.4,7.9-4.3,10.9
					c-2.9,3-6.8,4.4-11.7,4.4h-12.9V137.9z M438.5,112.1c2.4,0,4.5-0.7,6-2.1c1.6-1.4,2.3-3.3,2.3-5.7c0-2.3-0.8-4.2-2.3-5.7
					c-1.6-1.4-3.6-2.1-6-2.1h-11.7v15.6H438.5z"/>
			</g>
		</g>
	</g>
	<g>
		<polygon class="st0" points="186.9,136.6 145.1,136.6 102.5,65.2 142.4,65.2 		"/>
		<polygon class="st0" points="142.4,65.3 98.4,136.6 59.2,136.6 102.9,65.1 		"/>
		
			<linearGradient id="SVGID_1_" gradientUnits="userSpaceOnUse" x1="1984.5739" y1="82.0006" x2="1973.0515" y2="96.493" gradientTransform="matrix(-1 0 0 1 2115.3333 0)">
			<stop  offset="0" style="stop-color:#2B5698;stop-opacity:0.58"/>
			<stop  offset="1" style="stop-color:#5374B1;stop-opacity:0"/>
		</linearGradient>
		<polygon class="st2" points="142.2,65.3 152.5,81.7 130.7,113 122.2,98.5 		"/>
		<polygon class="st3" points="104,62.9 123.1,31.1 142.3,62.9 		"/>
	</g>
</g>
</svg>
