<?xml version="1.0" standalone="no"?>
<!DOCTYPE svg PUBLIC "-//W3C//DTD SVG 20010904//EN"
 "http://www.w3.org/TR/2001/REC-SVG-20010904/DTD/svg10.dtd">
<svg version="1.0" xmlns="http://www.w3.org/2000/svg"
 width="826.000000pt" height="198.000000pt" viewBox="0 0 826.000000 198.000000"
 preserveAspectRatio="xMidYMid meet">

<g transform="translate(0.000000,198.000000) scale(0.100000,-0.100000)"
fill="#000000" stroke="none">
<path d="M2659 1660 c-6 -5 -19 -6 -28 -3 -11 4 -9 0 4 -10 14 -11 17 -19 9
-27 -12 -12 -44 -4 -44 11 0 6 9 5 20 -1 11 -6 20 -7 20 -2 0 16 -41 21 -64 9
-38 -21 -69 -47 -57 -47 7 0 9 -4 6 -10 -4 -6 1 -7 12 -4 15 5 15 4 3 -5 -12
-8 -12 -13 -2 -23 9 -9 12 -9 12 0 0 7 5 12 10 12 6 0 5 -8 -2 -20 l-13 -21
-17 21 c-9 11 -19 26 -21 33 -6 17 -36 -22 -37 -48 0 -15 -2 -17 -9 -6 -12 18
-34 -49 -25 -74 6 -14 4 -16 -6 -10 -10 6 -12 4 -7 -9 4 -10 7 -23 7 -29 0 -7
7 -4 14 5 7 10 12 38 11 64 -1 33 1 41 8 29 5 -10 7 -42 5 -71 -5 -60 -2 -66
12 -29 6 15 15 23 23 19 11 -4 14 5 14 38 0 24 -3 34 -5 23 l-5 -20 -9 20 c-7
16 -7 15 -3 -7 3 -15 1 -30 -5 -33 -6 -3 -10 5 -10 19 0 13 -3 32 -7 42 -4 11
-3 15 4 11 7 -5 9 0 6 12 -3 10 1 22 8 26 7 5 10 4 6 -3 -9 -13 2 -42 15 -42
6 0 4 7 -3 17 -12 14 -12 16 1 11 8 -2 17 -15 21 -29 4 -13 7 -19 8 -13 2 16
64 94 76 94 5 0 3 -5 -5 -11 -12 -9 -11 -9 5 -3 35 13 127 16 165 5 48 -14 95
-62 116 -118 15 -38 16 -55 7 -111 -6 -37 -13 -76 -16 -87 -3 -11 -6 -24 -6
-28 -1 -5 -6 -5 -12 -1 -8 4 -8 0 0 -15 16 -29 7 -40 -31 -36 -17 3 -36 1 -42
-4 -36 -28 -159 -16 -208 20 -25 17 -40 14 -21 -5 13 -13 11 -36 -3 -36 -8 0
-11 6 -8 15 4 8 3 15 0 15 -4 0 -11 -10 -16 -22 l-9 -23 0 22 c-1 26 -19 39
-33 25 -13 -13 14 -42 66 -71 30 -17 37 -19 33 -7 -5 13 -3 14 13 4 10 -7 16
-17 12 -23 -3 -5 1 -4 10 3 12 10 17 10 20 1 5 -16 123 -18 139 -2 6 6 19 9
28 6 11 -4 10 -1 -4 11 -14 12 -16 19 -7 22 17 8 15 27 -3 20 -8 -3 -15 -1
-15 4 0 14 18 21 25 10 4 -7 12 -7 25 0 13 7 21 7 25 0 12 -19 24 0 20 31 -3
18 -2 29 2 26 3 -4 7 -20 9 -37 3 -28 -4 -36 -30 -31 -5 1 -6 -5 -3 -13 4 -10
-1 -13 -19 -11 -13 1 -26 -1 -29 -5 -2 -4 8 -6 23 -6 31 2 72 26 72 42 0 7 7
14 15 18 23 8 56 69 49 90 -4 12 -2 16 5 12 14 -9 21 26 18 100 -1 42 -5 61
-14 61 -8 0 -15 -10 -18 -21 -2 -12 -6 -30 -8 -41 -3 -13 -5 -10 -6 10 -2 43
-18 64 -19 25 -1 -45 -12 -51 -12 -7 0 20 5 48 12 62 9 21 9 31 -1 47 -9 15
-10 23 -1 32 8 8 10 6 5 -9 -6 -17 -5 -18 5 -5 10 13 11 12 6 -3 -3 -10 -2
-16 4 -12 5 3 7 -1 4 -9 -3 -8 4 -24 16 -36 l22 -22 -7 24 c-4 12 -10 25 -14
28 -3 3 -7 12 -9 20 -6 25 -24 41 -40 35 -9 -3 -12 0 -9 9 7 18 -33 55 -52 48
-8 -3 -11 0 -7 6 9 15 -28 34 -50 25 -12 -4 -15 -3 -10 5 4 7 1 12 -8 12 -9 0
-16 -5 -16 -10 0 -6 -10 -4 -22 4 -25 15 -68 18 -89 6z m31 -20 c0 -11 -4 -20
-10 -20 -5 0 -10 9 -10 20 0 11 5 20 10 20 6 0 10 -9 10 -20z m146 -12 c4 -7
3 -8 -4 -4 -7 4 -18 4 -24 0 -8 -5 7 -13 37 -20 28 -6 41 -12 30 -13 -12 0
-26 -6 -33 -13 -8 -8 -12 -9 -12 -1 0 6 3 13 8 16 4 2 1 2 -6 0 -8 -1 -23 3
-34 11 -19 14 -19 14 -1 25 23 14 30 13 39 -1z m-226 -23 c17 -9 30 -18 30
-21 0 -2 -9 0 -21 6 -17 9 -23 8 -34 -7 -7 -10 -17 -14 -22 -10 -4 5 1 16 12
24 16 13 16 14 3 9 -52 -18 -54 -18 -34 -2 24 20 30 20 66 1z m140 -5 c0 -5
-7 -10 -16 -10 -8 0 -12 5 -9 10 3 6 10 10 16 10 5 0 9 -4 9 -10z m-67 -7 c-7
-2 -19 -2 -25 0 -7 3 -2 5 12 5 14 0 19 -2 13 -5z m114 -9 c-3 -3 -12 -4 -19
-1 -8 3 -5 6 6 6 11 1 17 -2 13 -5z m83 -14 c0 -5 -7 -10 -15 -10 -8 0 -15 -5
-15 -12 0 -6 -3 -8 -7 -4 -5 4 1 14 11 22 23 17 26 17 26 4z m14 -16 c-13 -19
-14 -28 -5 -37 10 -9 11 -8 6 4 -4 10 -2 20 4 24 7 3 11 -2 11 -14 0 -11 4
-22 9 -25 4 -3 6 -17 4 -31 -7 -33 -21 -23 -17 12 2 16 1 22 -2 15 -4 -9 -12
-5 -25 12 -19 24 -19 26 -2 45 26 28 36 25 17 -5z m83 -191 c-3 -10 -5 -4 -5
12 0 17 2 24 5 18 2 -7 2 -21 0 -30z m-38 -50 c2 42 16 32 16 -12 0 -22 -3
-35 -7 -28 -4 6 -10 8 -14 4 -4 -4 -3 -12 4 -19 8 -8 7 -14 -3 -25 -8 -7 -12
-20 -9 -27 3 -8 -1 -17 -8 -22 -7 -4 -10 -3 -5 1 4 5 -1 17 -10 27 -12 13 -14
21 -6 29 6 6 9 19 6 28 -4 14 -3 14 6 1 6 -8 8 -24 5 -35 -4 -17 -3 -17 5 -4
6 9 7 28 3 45 -5 16 -6 38 -3 49 4 17 6 15 12 -10 l7 -30 1 28z m51 3 c0 -7
-6 -13 -14 -13 -8 0 -11 8 -8 19 5 19 22 15 22 -6z m-37 -101 c-3 -9 -8 -14
-10 -11 -3 3 -2 9 2 15 9 16 15 13 8 -4z m-323 -75 c-12 -7 -7 -11 18 -16 17
-4 32 -11 32 -16 0 -11 -37 -1 -63 17 -18 13 -18 13 0 23 22 13 34 5 13 -8z
m135 -13 c18 -2 10 -4 -20 -4 -27 0 -59 4 -70 9 -15 6 -12 7 13 4 21 -4 32 -1
32 7 0 9 2 9 8 0 4 -6 21 -13 37 -16z m8 16 c-7 -2 -19 -2 -25 0 -7 3 -2 5 12
5 14 0 19 -2 13 -5z m-198 -21 c-3 -3 -11 0 -18 7 -9 10 -8 11 6 5 10 -3 15
-9 12 -12z m145 -16 c0 -2 -7 -7 -16 -10 -8 -3 -12 -2 -9 4 6 10 25 14 25 6z
m40 -11 c-33 -19 -50 -18 -26 0 11 8 27 15 35 15 10 -1 7 -6 -9 -15z"/>
<path d="M7300 1666 c-3 -2 -22 -7 -43 -10 -78 -12 -175 -80 -197 -138 -7 -18
-19 -48 -27 -66 -14 -31 -15 -145 -2 -136 4 2 7 -6 7 -19 0 -33 8 -62 27 -91
20 -30 30 -32 44 -9 5 10 13 14 17 10 5 -5 2 -12 -5 -16 -8 -5 -11 -17 -6 -30
3 -12 11 -19 16 -16 5 4 17 1 26 -5 17 -11 17 -11 -1 -6 -16 5 -17 4 -7 -8 7
-8 20 -12 28 -9 12 5 14 3 8 -7 -6 -9 -4 -11 5 -5 7 5 26 9 41 10 21 2 25 0
16 -10 -6 -6 -21 -10 -32 -7 -11 3 -17 2 -13 -2 7 -8 77 -19 118 -19 63 1 110
12 138 31 16 12 33 18 37 14 5 -4 5 -2 2 4 -4 7 2 14 14 17 15 4 20 11 15 23
-4 11 -2 15 8 11 12 -5 15 11 18 86 2 51 2 98 0 105 -3 9 -38 12 -128 12 -68
0 -124 -3 -125 -7 0 -5 -3 -20 -5 -35 -5 -30 12 -39 19 -10 4 15 5 15 6 0 2
-24 81 -36 93 -14 5 9 16 16 25 16 13 0 13 -3 3 -15 -11 -13 -10 -14 3 -10 12
5 16 -4 19 -42 4 -50 -8 -87 -29 -89 -35 -3 -38 -4 -23 -14 11 -7 6 -8 -17 -4
-32 6 -47 -9 -20 -19 6 -3 -6 -3 -28 0 -22 3 -48 10 -57 14 -10 6 -19 5 -23
-1 -3 -5 -1 -10 6 -10 7 0 10 -2 7 -5 -11 -11 -37 7 -31 21 4 12 0 14 -21 8
-19 -4 -26 -3 -24 6 2 7 -3 15 -11 18 -8 2 -11 0 -7 -6 6 -10 -23 -26 -32 -17
-3 3 -1 5 5 5 6 0 13 7 17 15 7 18 -33 67 -47 58 -6 -3 -7 -1 -3 6 6 10 3 34
-20 151 -4 20 -2 22 6 10 9 -12 11 -8 7 17 -2 18 -1 31 1 28 2 -2 14 15 26 38
29 57 88 86 176 86 97 1 101 0 96 -8 -3 -5 6 -13 19 -19 14 -7 25 -16 25 -22
0 -5 5 -10 11 -10 5 0 8 4 5 8 -2 4 4 19 15 32 14 19 19 21 19 8 0 -9 -6 -18
-12 -21 -7 -2 -10 -7 -6 -11 3 -4 16 -2 28 4 18 10 20 14 9 21 -8 5 -10 9 -6
9 17 0 -52 50 -95 69 -46 19 -120 35 -128 27z m43 -23 c-13 -2 -33 -2 -45 0
-13 2 -3 4 22 4 25 0 35 -2 23 -4z m-123 -29 c0 -2 -7 -4 -15 -4 -8 0 -15 4
-15 10 0 5 7 7 15 4 8 -4 15 -8 15 -10z m118 9 c-10 -2 -28 -2 -40 0 -13 2 -5
4 17 4 22 1 32 -1 23 -4z m123 -16 c24 -20 25 -24 11 -37 -14 -13 -15 -12 -9
2 4 12 -3 24 -20 38 -14 11 -22 20 -17 20 5 0 21 -10 35 -23z m-286 -25 c-8
-8 -25 10 -19 20 4 6 9 5 15 -3 4 -7 6 -15 4 -17z m98 11 c-7 -2 -19 -2 -25 0
-7 3 -2 5 12 5 14 0 19 -2 13 -5z m-117 -26 c4 -3 15 -2 25 3 12 7 20 6 25 -2
4 -7 4 -10 -1 -6 -4 4 -22 -4 -40 -18 -19 -14 -36 -21 -39 -15 -4 5 -2 13 4
16 8 5 8 11 0 20 -8 10 -7 13 4 11 9 -1 18 -5 22 -9z m-46 -22 c-7 -8 -17 -15
-22 -15 -11 0 14 29 26 30 5 0 3 -7 -4 -15z m-47 -130 c-3 -9 -8 -14 -10 -11
-3 3 -2 9 2 15 9 16 15 13 8 -4z m-14 -50 l0 -20 -9 20 c-5 11 -9 29 -9 40 l0
20 9 -20 c5 -11 9 -29 9 -40z m469 -2 c-16 -2 -40 -2 -55 0 -16 2 -3 4 27 4
30 0 43 -2 28 -4z m-21 -89 c-3 -3 -12 -4 -19 -1 -8 3 -5 6 6 6 11 1 17 -2 13
-5z m-412 -34 c-4 -6 -1 -17 5 -25 8 -10 9 -15 2 -15 -6 0 -14 5 -17 10 -7 12
0 40 10 40 4 0 3 -5 0 -10z m392 -64 c-3 -7 0 -19 6 -25 6 -6 9 -11 7 -12 -3
0 -18 -2 -35 -4 -28 -4 -28 -3 -9 8 12 7 20 20 19 30 -2 9 1 17 7 17 6 0 8 -6
5 -14z m30 -18 c-3 -8 -6 -5 -6 6 -1 11 2 17 5 13 3 -3 4 -12 1 -19z m-164
-45 c-7 -2 -21 -2 -30 0 -10 3 -4 5 12 5 17 0 24 -2 18 -5z m64 -19 c-3 -3
-12 -4 -19 -1 -8 3 -5 6 6 6 11 1 17 -2 13 -5z"/>
<path d="M7143 1563 c4 -3 1 -13 -6 -22 -11 -14 -10 -14 5 -2 16 12 16 31 1
31 -4 0 -3 -3 0 -7z"/>
<path d="M1905 1643 c16 -39 18 -56 7 -49 -7 4 -12 1 -12 -6 0 -10 22 -13 95
-13 l95 1 -2 -241 -2 -240 -6 210 -6 210 1 -215 0 -215 45 0 45 0 1 245 1 245
84 0 84 0 3 43 3 42 -221 0 c-208 0 -222 -1 -215 -17z m222 -360 c-3 -113 -1
-183 5 -183 6 0 7 17 3 40 -4 26 -3 40 4 40 6 0 12 44 14 118 2 64 3 48 2 -36
-3 -149 -11 -190 -34 -166 -6 5 -10 104 -11 224 -1 260 0 282 12 205 5 -33 7
-142 5 -242z m23 257 c0 -22 -3 -40 -7 -40 -5 0 -8 18 -8 40 0 22 3 40 8 40 4
0 7 -18 7 -40z"/>
<path d="M3115 1638 c-3 -13 -4 -142 -3 -288 l3 -265 45 0 45 0 2 105 c2 58 3
109 3 114 0 4 6 6 14 3 9 -4 17 1 19 11 4 16 5 15 6 0 1 -11 9 -18 22 -18 14
0 19 5 16 14 -4 9 2 17 14 21 10 4 17 11 14 16 -4 5 0 9 7 9 9 0 9 3 -2 10 -8
5 -38 10 -67 10 -43 0 -51 -3 -47 -15 5 -11 2 -13 -10 -9 -9 3 -13 11 -9 18 4
6 7 20 5 31 l-2 20 10 -20 c6 -14 9 9 7 75 l-2 94 90 -2 c96 -2 135 -9 135
-24 0 -5 5 -6 12 -2 8 5 9 2 5 -9 -3 -9 -2 -19 2 -21 8 -5 6 -29 -5 -84 -3
-14 -17 -29 -37 -37 l-32 -13 27 -7 c28 -7 70 -45 50 -45 -7 0 -12 5 -12 11 0
6 -12 1 -27 -11 -19 -15 -35 -19 -57 -15 -24 4 -27 3 -11 -4 29 -14 62 -13 77
2 7 8 18 12 23 10 6 -2 19 3 30 11 16 12 17 16 6 30 -19 22 -28 11 -10 -11 13
-16 12 -17 -3 -5 -17 14 -17 78 1 110 9 16 10 16 16 0 4 -10 5 -25 1 -33 -6
-16 9 -21 19 -6 7 12 -24 91 -36 91 -5 0 -9 4 -9 10 0 5 6 7 14 4 11 -4 17 5
22 32 6 31 8 35 14 19 4 -11 4 -28 -1 -37 -5 -9 -8 -29 -8 -45 1 -17 3 -21 6
-10 5 20 29 23 36 5 3 -8 6 -6 6 5 1 25 -26 88 -47 107 -32 30 -71 52 -81 46
-5 -4 -12 -2 -15 3 -3 5 -69 10 -146 10 -137 2 -140 1 -145 -21z m282 -4 c-3
-3 -12 -4 -19 -1 -8 3 -5 6 6 6 11 1 17 -2 13 -5z m-266 -135 c-1 -68 -4 -125
-6 -128 -3 -2 -5 56 -5 129 0 73 3 131 6 127 3 -3 5 -61 5 -128z m334 117 c19
-13 28 -66 12 -66 -5 0 -7 11 -5 25 5 22 3 24 -21 18 -35 -8 -39 -13 -10 -13
19 0 21 -2 9 -10 -11 -7 -19 -5 -31 9 -9 11 -27 21 -40 24 -23 4 -22 4 4 6 15
0 27 6 27 11 0 14 33 12 55 -4z m-132 -13 c-7 -2 -19 -2 -25 0 -7 3 -2 5 12 5
14 0 19 -2 13 -5z m-157 -221 c-3 -2 -7 18 -11 45 -3 26 -11 65 -17 85 -6 20
-7 45 -3 55 6 12 12 -15 21 -81 8 -55 12 -102 10 -104z m13 156 c-1 -42 -1
-42 -10 -13 -5 17 -7 36 -4 43 9 24 15 11 14 -30z m-42 -155 c-3 -10 -5 -4 -5
12 0 17 2 24 5 18 2 -7 2 -21 0 -30z m298 8 c-3 -6 -14 -10 -23 -10 -15 1 -15
2 1 6 9 2 17 9 17 15 0 6 3 9 6 5 3 -3 3 -10 -1 -16z m-198 -43 c-3 -8 -6 -5
-6 6 -1 11 2 17 5 13 3 -3 4 -12 1 -19z m35 -7 c-21 -21 -26 -19 -17 8 3 12
12 18 20 15 11 -5 10 -9 -3 -23z m-110 -13 c-2 -11 3 -18 12 -18 10 0 13 6 10
15 -4 8 -1 15 5 15 12 0 14 -11 5 -34 -3 -9 -14 -16 -24 -16 -16 0 -18 -6 -13
-55 4 -41 3 -55 -7 -55 -9 0 -11 11 -7 40 3 23 1 40 -5 42 -7 3 -7 11 1 25 13
26 14 53 2 53 -5 0 -14 -17 -19 -37 l-10 -38 1 43 c1 40 3 43 26 40 18 -2 25
-8 23 -20z m55 0 c-3 -8 -6 -5 -6 6 -1 11 2 17 5 13 3 -3 4 -12 1 -19z m-27
-105 c0 -26 -2 -44 -4 -42 -8 9 -13 98 -5 93 5 -3 9 -26 9 -51z m-73 -25 c-2
-13 -4 -5 -4 17 -1 22 1 32 4 23 2 -10 2 -28 0 -40z"/>
<path d="M3420 1610 c0 -5 9 -10 21 -10 11 0 17 5 14 10 -3 6 -13 10 -21 10
-8 0 -14 -4 -14 -10z"/>
<path d="M3962 1644 c-28 -10 -42 -21 -38 -29 2 -7 -5 -21 -16 -32 -12 -10
-18 -12 -14 -5 4 7 2 12 -5 12 -8 0 -10 -15 -7 -47 5 -47 5 -47 -8 -18 -7 17
-13 25 -14 18 0 -6 -3 -19 -7 -29 -4 -12 -3 -15 5 -10 8 5 10 -2 6 -22 -6 -30
18 -82 38 -82 5 0 6 5 3 10 -3 6 -1 10 5 10 7 0 9 -8 5 -20 -5 -14 -2 -20 9
-20 9 0 16 -5 16 -11 0 -6 7 -9 15 -5 8 3 15 1 15 -4 0 -5 7 -6 17 -3 12 5 14
3 8 -7 -6 -10 -4 -12 8 -7 9 3 41 -3 72 -14 31 -11 66 -17 78 -14 17 5 19 4 7
-4 -8 -6 -10 -11 -4 -11 7 0 19 -12 29 -26 15 -24 15 -28 -3 -65 -14 -27 -16
-39 -7 -35 7 2 23 -7 36 -22 13 -15 20 -24 15 -19 -5 4 -21 -3 -35 -15 -14
-13 -20 -16 -13 -7 6 9 8 20 4 24 -4 5 -2 5 5 1 17 -10 25 10 9 23 -10 8 -16
9 -21 1 -3 -6 -10 -8 -16 -5 -13 9 -80 -6 -74 -15 3 -5 0 -12 -6 -16 -7 -4 -9
-3 -5 4 6 10 -50 32 -84 32 -9 0 -25 7 -37 15 -12 8 -30 12 -40 9 -13 -4 -14
-3 -5 3 10 8 10 13 -4 24 -14 11 -18 11 -30 -6 -7 -11 -18 -26 -25 -33 -30
-35 120 -95 231 -92 54 1 120 17 120 29 0 5 9 11 21 14 16 4 19 11 15 29 -3
13 -3 17 0 11 17 -38 45 30 40 98 -4 54 -11 69 -34 69 -13 0 -14 2 -4 9 11 6
10 10 -5 16 -10 5 -27 7 -38 6 -16 -2 -17 0 -5 8 17 12 24 8 -90 44 -71 23
-106 25 -95 6 3 -4 -3 -13 -14 -18 -30 -16 -40 -12 -11 4 15 9 19 14 10 15
-13 0 -13 1 0 10 13 9 13 11 0 19 -8 5 -18 7 -22 4 -12 -7 -58 25 -58 40 0 9
2 9 9 -1 6 -11 10 -11 19 0 5 7 10 16 10 21 0 4 3 20 7 35 6 31 14 33 118 33
47 0 65 3 61 11 -4 7 -3 8 5 4 6 -4 9 -12 5 -17 -3 -5 8 -14 25 -20 17 -6 31
-15 31 -20 0 -5 5 -9 11 -9 8 0 7 6 -2 17 -12 15 -12 16 7 11 14 -4 25 1 33
14 13 20 5 31 -40 58 -48 28 -186 36 -247 14z m3 -24 c-3 -5 -11 -10 -16 -10
-6 0 -7 5 -4 10 3 6 11 10 16 10 6 0 7 -4 4 -10z m240 -8 c-3 -3 -11 0 -18 7
-9 10 -8 11 6 5 10 -3 15 -9 12 -12z m-5 -42 c0 -5 -4 -10 -10 -10 -5 0 -10 5
-10 10 0 6 5 10 10 10 6 0 10 -4 10 -10z m-319 -107 c-12 -20 -14 -14 -5 12 4
9 9 14 11 11 3 -2 0 -13 -6 -23z m264 -123 c-3 -5 -12 -7 -20 -3 -21 7 -19 13
6 13 11 0 18 -4 14 -10z m118 -70 c-3 -12 -8 -19 -11 -16 -5 6 5 36 12 36 2 0
2 -9 -1 -20z m-43 -40 c0 -5 -4 -10 -10 -10 -5 0 -10 5 -10 10 0 6 5 10 10 10
6 0 10 -4 10 -10z m47 -22 c-3 -7 -5 -2 -5 12 0 14 2 19 5 13 2 -7 2 -19 0
-25z m-377 -42 c0 -3 -4 -8 -10 -11 -5 -3 -10 -1 -10 4 0 6 5 11 10 11 6 0 10
-2 10 -4z m101 -24 c-7 -2 -18 1 -23 6 -8 8 -4 9 13 5 13 -4 18 -8 10 -11z
m156 2 c-3 -3 -12 -4 -19 -1 -8 3 -5 6 6 6 11 1 17 -2 13 -5z m-127 -18 c0 -3
-4 -8 -10 -11 -5 -3 -10 -1 -10 4 0 6 5 11 10 11 6 0 10 -2 10 -4z m115 -10
c12 -12 12 -15 -1 -20 -24 -9 -31 -7 -14 4 10 6 11 10 3 10 -7 0 -13 5 -13 10
0 14 9 12 25 -4z"/>
<path d="M4351 1623 c-1 -46 17 -68 26 -32 6 20 7 21 13 5 5 -14 19 -19 70
-21 36 -1 67 -3 70 -4 3 0 5 -76 4 -169 0 -206 6 -322 18 -322 5 0 7 4 4 8 -3
5 8 6 25 4 29 -4 29 -4 31 44 0 27 0 135 -2 240 -2 155 0 192 11 196 8 3 46 4
85 4 54 -1 70 2 67 11 -3 7 -1 13 5 13 6 0 13 -6 15 -12 10 -25 7 10 -3 36 -6
17 -14 24 -25 20 -8 -3 -15 -2 -15 3 0 9 -126 9 -165 0 -11 -2 -26 0 -33 6 -7
5 -32 7 -60 3 -65 -9 -65 -9 -84 -1 -14 6 -18 2 -19 -16 l-1 -24 -8 25 c-7 21
-8 22 -10 5 l-1 -20 -9 20 c-7 16 -9 11 -9 -22z m212 -68 c-3 -9 -8 -14 -10
-11 -3 3 -2 9 2 15 9 16 15 13 8 -4z"/>
<path d="M4935 1652 c-26 -4 -50 -39 -37 -55 5 -7 6 -21 3 -31 -4 -11 -6 -114
-4 -230 2 -116 3 -219 3 -229 0 -10 5 -15 10 -12 6 3 10 0 10 -7 0 -9 3 -9 10
2 7 11 10 12 10 2 0 -21 30 13 30 35 0 15 2 16 10 3 7 -11 10 -6 9 20 0 29 -2
31 -9 15 -8 -18 -9 -17 -9 8 -1 16 3 26 9 22 6 -4 10 11 10 39 0 34 -4 46 -17
49 -17 4 -17 5 0 6 12 1 16 8 14 24 -2 12 -2 16 0 9 3 -7 9 -10 14 -7 5 4 9 3
9 -2 0 -4 14 -8 30 -8 17 0 30 5 30 12 0 6 14 -2 31 -18 17 -16 28 -33 24 -39
-4 -6 -1 -9 7 -8 7 2 13 -6 13 -17 0 -12 7 -20 16 -19 11 1 14 -5 12 -20 -7
-32 49 -103 81 -103 14 0 23 3 20 8 -3 5 2 9 11 9 9 0 14 -4 11 -9 -3 -5 1
-11 9 -15 20 -7 19 -4 -15 54 -16 28 -30 55 -30 60 0 5 -8 7 -18 5 -13 -2 -18
3 -18 18 1 12 -4 21 -11 20 -6 -1 -14 4 -17 12 -3 10 0 12 12 8 14 -5 15 -3 5
8 -7 7 -13 21 -13 30 0 10 -6 20 -12 23 -7 3 -3 3 9 1 26 -7 90 35 109 69 20
39 27 86 14 86 -8 0 -11 10 -7 28 5 27 -14 79 -29 75 -5 -1 -11 -10 -15 -20
-7 -16 -8 -16 -8 -1 -1 9 7 22 17 27 14 9 14 10 1 11 -8 0 -25 -9 -37 -20 -12
-12 -23 -16 -27 -10 -3 6 -1 10 6 10 8 0 8 4 -1 15 -7 8 -9 15 -5 15 4 0 1 7
-6 17 -13 15 -12 15 8 2 14 -8 18 -16 12 -20 -8 -4 -8 -9 0 -14 7 -4 19 -1 27
6 13 10 12 14 -5 26 -29 20 -101 28 -101 11 -1 -9 -5 -8 -14 5 -15 20 -114 24
-148 6 -11 -6 -23 -7 -27 -2 -3 4 -15 7 -26 5z m252 -28 c-3 -3 -12 -4 -19 -1
-8 3 -5 6 6 6 11 1 17 -2 13 -5z m-32 -44 c-3 -5 0 -7 9 -4 21 8 64 -34 71
-70 4 -17 9 -39 12 -50 3 -10 1 -16 -4 -13 -6 4 -15 -5 -21 -18 -6 -13 -23
-27 -38 -31 -16 -4 -22 -9 -14 -14 8 -5 5 -9 -9 -13 -12 -3 -19 -1 -16 3 8 12
-97 0 -113 -13 -10 -8 -12 -7 -10 3 2 8 -3 15 -9 16 -7 1 -18 2 -23 3 -6 1 -8
23 -4 59 4 42 3 53 -5 42 -14 -19 -14 0 -1 34 6 16 6 27 0 31 -6 4 -10 1 -10
-6 0 -7 -3 -9 -6 -6 -4 4 -2 13 5 21 9 11 9 15 -1 19 -7 2 26 4 75 3 48 0 87
2 87 7 0 4 7 7 16 7 8 0 12 -4 9 -10z m92 -62 c-3 -8 -6 -5 -6 6 -1 11 2 17 5
13 3 -3 4 -12 1 -19z m23 -72 c0 -26 -6 -18 -14 19 -5 22 -4 26 4 15 5 -8 10
-24 10 -34z m-12 -39 c15 4 15 3 2 -7 -11 -9 -12 -13 -2 -17 6 -2 12 -9 12
-15 0 -7 -5 -7 -13 1 -14 11 -27 5 -27 -11 0 -5 5 -6 12 -2 7 5 8 3 3 -6 -6
-10 -11 -9 -22 5 -7 11 -13 24 -13 29 0 6 4 5 9 -3 10 -15 23 0 18 21 -2 7 -2
10 0 6 2 -4 12 -4 21 -1z m-145 -54 c-13 -2 -33 -2 -45 0 -13 2 -3 4 22 4 25
0 35 -2 23 -4z m34 -49 c-3 -3 -12 -4 -19 -1 -8 3 -5 6 6 6 11 1 17 -2 13 -5z
m34 -51 c8 -9 9 -14 2 -10 -6 4 -13 4 -16 0 -2 -5 -2 -3 -1 4 2 6 -2 14 -9 17
-8 3 -8 5 -1 5 6 1 18 -7 25 -16z m-204 -35 c-3 -7 -5 -2 -5 12 0 14 2 19 5
13 2 -7 2 -19 0 -25z m288 -78 c7 -24 6 -24 -7 -5 -8 11 -18 29 -22 40 -6 18
-5 18 7 5 8 -8 18 -26 22 -40z m-55 9 c15 -28 5 -23 -15 7 -9 15 -12 23 -6 20
6 -4 16 -16 21 -27z"/>
<path d="M5647 1643 c-12 -12 -17 -14 -17 -4 0 11 -3 11 -14 1 -8 -6 -12 -19
-9 -27 4 -11 2 -14 -5 -9 -8 4 -12 0 -12 -11 0 -11 -12 -43 -26 -71 -14 -29
-23 -59 -20 -68 3 -8 2 -12 -4 -9 -10 6 -14 -6 -10 -39 1 -10 -3 -15 -8 -12
-6 3 -13 -1 -16 -10 -8 -21 -8 -26 3 -20 5 3 11 -1 14 -9 4 -9 1 -12 -8 -9
-14 6 -55 -49 -55 -71 1 -5 10 7 21 28 11 20 22 37 24 37 3 0 -5 -19 -17 -42
-12 -24 -21 -52 -20 -63 2 -15 1 -17 -6 -6 -12 18 -24 -1 -15 -25 4 -11 2 -15
-4 -11 -11 7 -58 -102 -48 -111 3 -3 5 1 5 8 0 11 3 11 12 2 17 -17 28 -15 28
6 0 9 5 24 10 32 7 11 8 5 3 -19 -4 -25 -3 -32 6 -27 6 4 8 13 4 19 -5 8 -2 8
9 0 18 -15 29 -7 21 15 -5 11 -3 13 6 7 10 -6 11 -2 6 15 -4 14 -3 20 3 16 5
-3 13 1 16 10 5 13 1 15 -21 10 -22 -5 -24 -4 -11 4 19 11 60 18 138 21 l55 2
-45 7 -45 7 40 1 c22 1 51 -5 65 -13 31 -18 90 -20 90 -2 1 6 9 2 19 -10 10
-12 21 -20 23 -17 3 2 3 -7 1 -21 -3 -15 -1 -25 6 -25 6 0 11 -6 11 -14 0 -25
22 -30 38 -10 14 18 14 18 9 -4 -5 -19 -2 -22 24 -20 16 1 29 4 29 5 0 2 -16
44 -35 93 -19 49 -35 92 -35 95 0 3 -7 22 -17 43 -18 41 -20 47 -22 63 -1 8
-6 8 -16 -1 -12 -10 -15 -10 -15 1 -1 8 -7 3 -14 -10 l-13 -24 -12 33 c-6 18
-9 36 -6 38 3 3 5 -1 5 -9 0 -12 2 -11 10 1 8 11 9 7 5 -15 -6 -29 -6 -29 7
-8 14 23 15 54 5 83 -3 8 -15 44 -27 80 -13 36 -29 70 -36 76 -8 6 -14 16 -14
23 0 6 -4 11 -9 11 -4 0 -7 -12 -5 -27 4 -27 3 -27 -4 -3 -10 31 -32 36 -55
13z m66 -70 c-3 -7 -6 -13 -8 -13 -2 0 -5 6 -8 13 -3 8 1 14 8 14 7 0 11 -6 8
-14z m37 13 c0 -3 -4 -8 -10 -11 -5 -3 -10 -1 -10 4 0 6 5 11 10 11 6 0 10 -2
10 -4z m-110 -31 c7 -9 8 -15 2 -15 -5 0 -12 7 -16 15 -3 8 -4 15 -2 15 2 0 9
-7 16 -15z m62 -29 c6 4 8 -1 3 -16 -6 -19 -4 -22 9 -17 13 5 14 3 4 -13 -10
-15 -10 -22 0 -32 11 -11 12 -10 7 3 -4 10 -2 20 4 23 6 4 8 -7 6 -29 -2 -19
1 -32 6 -29 5 3 6 -2 3 -10 -4 -9 -1 -16 6 -16 7 0 10 -7 6 -16 -4 -10 -2 -13
6 -8 7 5 9 -1 4 -20 -4 -15 -2 -26 4 -26 5 0 11 -8 11 -17 1 -17 2 -17 6 0 2
9 8 17 13 17 12 0 -1 -40 -14 -41 -6 -1 -22 -2 -36 -3 -14 0 -28 -5 -32 -11
-5 -6 -12 -4 -18 5 -5 8 -10 11 -10 5 0 -5 -20 -10 -45 -10 -25 0 -45 3 -45 7
0 4 -9 6 -20 5 -11 -1 -19 -6 -16 -13 2 -6 1 -16 -3 -23 -5 -7 -8 0 -9 18 0
17 4 31 9 31 5 0 9 10 9 23 0 12 7 32 15 44 8 12 16 29 18 40 1 10 6 23 10 30
4 6 4 19 0 29 -4 12 -3 15 5 10 11 -7 13 -3 16 37 1 12 4 16 36 54 14 17 15
16 18 -10 2 -16 8 -25 14 -21z m-82 -10 c0 -26 -6 -18 -14 19 -5 22 -4 26 4
15 5 -8 10 -24 10 -34z m-30 -23 c-11 -17 -11 -17 -6 0 3 10 6 24 7 30 0 9 2
9 5 0 3 -7 0 -20 -6 -30z m177 15 c-3 -8 -6 -5 -6 6 -1 11 2 17 5 13 3 -3 4
-12 1 -19z m-200 -30 c-3 -8 -6 -5 -6 6 -1 11 2 17 5 13 3 -3 4 -12 1 -19z
m222 -31 c0 -9 -2 -8 -6 1 -2 6 -10 9 -15 6 -7 -4 -8 -2 -4 5 9 13 26 5 25
-12z m-199 -8 c0 -6 -4 -7 -10 -4 -5 3 -10 11 -10 16 0 6 5 7 10 4 6 -3 10
-11 10 -16z m-29 -106 c-12 -20 -14 -14 -5 12 4 9 9 14 11 11 3 -2 0 -13 -6
-23z m289 2 c0 -12 -19 -12 -23 0 -4 9 -1 12 9 8 7 -3 14 -7 14 -8z m-310 -9
c0 -2 -7 -7 -16 -10 -8 -3 -12 -2 -9 4 6 10 25 14 25 6z m17 -22 c-3 -3 -12
-4 -19 -1 -8 3 -5 6 6 6 11 1 17 -2 13 -5z m-47 -34 c0 -5 -2 -10 -4 -10 -3 0
-8 5 -11 10 -3 6 -1 10 4 10 6 0 11 -4 11 -10z m17 -62 c-3 -7 -5 -2 -5 12 0
14 2 19 5 13 2 -7 2 -19 0 -25z m50 6 c-3 -3 -12 -4 -19 -1 -8 3 -5 6 6 6 11
1 17 -2 13 -5z m260 0 c-3 -3 -12 -4 -19 -1 -8 3 -5 6 6 6 11 1 17 -2 13 -5z
m59 -67 c-2 -7 -5 -1 -5 13 -1 21 -3 22 -12 10 -9 -12 -10 -12 -5 3 3 10 6 26
7 35 0 9 5 2 10 -16 6 -19 8 -39 5 -45z m-469 -19 c-3 -8 -6 -5 -6 6 -1 11 2
17 5 13 3 -3 4 -12 1 -19z m500 -20 c-3 -8 -6 -5 -6 6 -1 11 2 17 5 13 3 -3 4
-12 1 -19z"/>
<path d="M6005 1630 c-5 -23 -3 -35 6 -41 15 -9 21 -10 107 -12 29 0 52 -5 52
-11 0 -6 5 -4 10 4 8 13 10 12 10 -2 0 -10 -4 -18 -10 -18 -14 0 -13 -440 1
-460 9 -12 10 -12 5 4 -5 14 -3 16 6 9 24 -19 58 -22 58 -6 0 8 3 12 8 10 4
-3 6 95 5 216 -1 122 1 230 3 239 4 14 16 16 72 14 86 -3 92 0 92 40 0 30 -3
34 -34 39 -26 5 -177 3 -306 -5 -8 0 -29 2 -46 6 -30 6 -32 4 -39 -26z m245
-96 c0 -8 -4 -14 -8 -14 -4 0 -8 9 -8 19 0 11 4 17 8 15 4 -3 8 -12 8 -20z"/>
<path d="M6550 1623 c0 -21 -1 -147 -2 -280 -1 -134 1 -245 4 -249 4 -3 80 -7
170 -8 135 -1 165 1 176 14 10 13 11 13 6 -2 -3 -10 -1 -18 4 -18 13 0 19 27
14 58 -4 23 -26 30 -37 12 -3 -6 -50 -10 -106 -10 -60 0 -98 4 -94 9 3 5 -9
11 -26 13 l-32 3 -2 77 c-1 42 1 80 4 85 9 11 14 12 155 14 l126 1 0 37 0 36
-121 -3 c-169 -5 -164 -7 -163 75 1 37 2 73 3 79 1 7 50 10 146 9 l145 -2 0
46 c0 33 -3 42 -10 31 -5 -8 -10 -10 -10 -5 0 6 -67 11 -175 13 l-175 2 0 -37z
m360 -493 c0 -5 -5 -10 -11 -10 -5 0 -7 5 -4 10 3 6 8 10 11 10 2 0 4 -4 4
-10z"/>
<path d="M7637 1634 c9 -15 19 -21 21 -15 4 13 -16 41 -29 41 -5 0 -2 -12 8
-26z"/>
<path d="M7664 1623 c0 -18 4 -33 8 -33 4 0 8 5 8 12 0 6 3 8 6 5 4 -4 2 -12
-4 -20 -8 -10 -5 -20 15 -42 24 -29 24 -29 9 -3 -16 27 -12 63 5 52 5 -3 9 0
9 6 0 6 -7 13 -15 16 -8 4 -12 10 -9 15 3 5 10 6 16 3 6 -4 9 -1 6 7 -3 8 -16
14 -29 14 -22 1 -25 -4 -25 -32z"/>
<path d="M8067 1638 c4 -18 3 -20 -6 -8 -9 13 -12 12 -25 -5 -9 -11 -16 -29
-16 -39 0 -11 -3 -16 -6 -13 -4 3 -21 -13 -39 -36 -27 -34 -31 -46 -23 -66 4
-13 7 -26 4 -28 -2 -3 -7 5 -11 17 l-7 22 -12 -23 c-10 -20 -9 -26 3 -37 14
-11 14 -11 -2 -6 -9 3 -23 1 -31 -5 -12 -10 -48 37 -135 182 -12 20 -27 37
-32 37 -17 0 -9 -18 31 -66 22 -26 37 -50 34 -53 -5 -5 -18 11 -28 34 -3 6 -9
3 -16 -5 -9 -12 -10 -11 -5 6 3 12 0 26 -8 32 -16 14 -42 -1 -32 -18 6 -9 9
-9 16 1 4 8 7 -2 5 -23 -2 -28 5 -48 35 -91 22 -31 39 -61 39 -66 0 -4 7 -14
15 -21 10 -9 15 -9 15 -1 0 6 -5 11 -12 11 -6 0 -8 3 -5 6 3 4 0 16 -8 28 -8
11 -15 27 -15 36 0 8 14 -12 31 -45 21 -42 28 -69 24 -89 -3 -20 0 -33 12 -42
16 -13 16 -13 1 -8 -15 5 -17 -3 -17 -68 0 -99 3 -108 44 -108 19 0 36 4 39 8
3 5 6 64 7 132 1 88 5 128 15 137 7 8 11 21 8 31 -5 13 -4 14 4 3 8 -11 12
-10 21 7 6 11 8 29 5 39 -5 14 -4 15 4 4 8 -11 12 -9 23 10 8 13 14 29 15 34
1 20 32 83 45 90 7 5 1 -13 -13 -38 -15 -26 -23 -47 -19 -47 3 0 15 15 25 33
10 17 28 48 39 67 16 26 17 32 5 22 -14 -11 -16 -10 -11 8 3 12 11 19 19 16 7
-3 18 2 24 10 9 10 9 14 1 14 -6 0 -11 -4 -11 -8 0 -10 -36 -9 -46 1 -14 14
-22 7 -17 -15z m-65 -100 c-7 -7 -12 -8 -12 -2 0 14 12 26 19 19 2 -3 -1 -11
-7 -17z m-32 -48 c0 -5 -2 -10 -4 -10 -3 0 -8 5 -11 10 -3 6 -1 10 4 10 6 0
11 -4 11 -10z m-156 -15 c3 -8 1 -15 -4 -15 -6 0 -10 7 -10 15 0 8 2 15 4 15
2 0 6 -7 10 -15z m-34 -15 c0 -5 -4 -10 -10 -10 -5 0 -10 5 -10 10 0 6 5 10
10 10 6 0 10 -4 10 -10z m133 -197 c-7 -2 -14 -23 -15 -46 -1 -39 -2 -39 -5
-9 -5 41 2 62 19 61 10 0 10 -2 1 -6z m4 -70 c-3 -10 -5 -2 -5 17 0 19 2 27 5
18 2 -10 2 -26 0 -35z"/>
<path d="M3900 1599 c0 -5 5 -7 10 -4 6 3 10 8 10 11 0 2 -4 4 -10 4 -5 0 -10
-5 -10 -11z"/>
<path d="M3515 1470 c-3 -10 -1 -28 5 -40 8 -16 8 -20 -2 -18 -8 2 -12 -6 -10
-21 l2 -23 -19 23 c-10 13 -17 30 -14 39 4 12 3 13 -5 1 -7 -10 -7 -22 0 -37
16 -35 36 -37 52 -6 25 50 28 71 12 87 -13 13 -15 13 -21 -5z"/>
<path d="M3930 1476 c0 -2 7 -7 16 -10 8 -3 12 -2 9 4 -6 10 -25 14 -25 6z"/>
<path d="M2942 1454 c3 -17 21 -21 26 -6 1 5 -4 12 -13 16 -11 4 -15 1 -13
-10z"/>
<path d="M5813 1408 c-2 -16 1 -18 10 -9 7 7 8 14 1 21 -6 6 -10 2 -11 -12z"/>
<path d="M2490 1380 c0 -11 -4 -20 -9 -20 -4 0 -9 -31 -10 -70 -1 -41 2 -70 8
-70 6 0 8 21 5 53 -4 41 -3 48 6 34 6 -9 8 -27 5 -40 -6 -20 -5 -21 8 -4 13
16 15 16 21 2 4 -10 2 -14 -5 -9 -8 4 -9 -1 -4 -16 5 -15 4 -20 -4 -16 -6 4
-11 3 -11 -3 0 -6 10 -15 21 -22 21 -11 38 0 39 24 0 12 -18 8 -24 -5 -3 -7
-4 -4 -1 8 6 22 -17 88 -27 79 -3 -4 -4 17 -2 44 3 32 1 51 -6 51 -5 0 -10 -9
-10 -20z"/>
<path d="M2423 1334 c-1 -31 3 -47 13 -51 8 -3 14 -12 14 -20 0 -8 -5 -11 -11
-7 -7 4 -2 -11 11 -34 21 -37 40 -47 40 -21 0 6 -4 8 -9 4 -17 -10 -25 19 -23
75 2 40 -3 61 -15 77 -18 23 -18 23 -20 -23z m22 -24 c-4 -12 -9 -19 -12 -17
-3 3 -2 15 2 27 4 12 9 19 12 17 3 -3 2 -15 -2 -27z"/>
<path d="M3351 1370 c-8 -4 -10 -13 -7 -19 4 -6 1 -11 -6 -12 -7 0 -3 -4 10
-9 13 -6 31 -6 45 0 21 8 20 9 -8 10 -20 0 -26 3 -17 9 7 4 25 6 40 5 l27 -4
-27 9 c-14 5 -30 11 -35 14 -5 3 -15 2 -22 -3z"/>
<path d="M646 1232 c-13 -12 117 -31 219 -31 73 -1 96 -4 88 -12 -14 -14 -266
-2 -257 12 3 5 -7 9 -21 9 -15 0 -24 -4 -20 -10 3 -5 1 -10 -5 -10 -6 0 -8 -5
-4 -12 6 -9 3 -9 -9 0 -14 12 -19 10 -36 -18 -19 -32 -19 -60 2 -60 6 0 8 3 4
6 -3 4 0 13 8 20 8 8 12 22 8 32 -4 12 0 10 11 -5 9 -12 13 -29 10 -38 -5 -13
-8 -14 -15 -3 -6 9 -9 7 -9 -9 0 -12 5 -25 11 -29 8 -4 8 -9 1 -13 -8 -5 -8
-27 0 -73 7 -37 9 -71 5 -74 -4 -4 -17 3 -29 16 -17 18 -19 26 -10 41 16 25
15 56 0 62 -10 3 -10 8 1 21 12 14 12 18 -5 31 -10 8 -22 15 -25 15 -9 0 -33
-53 -30 -69 1 -7 -2 -10 -8 -7 -12 8 -30 -24 -23 -43 3 -8 0 -11 -7 -7 -7 5
-9 1 -4 -10 4 -11 2 -15 -4 -11 -14 9 -46 -40 -37 -55 4 -7 3 -8 -4 -4 -18 11
-36 -33 -24 -58 6 -11 13 -40 15 -64 5 -37 3 -41 -7 -26 -8 10 -20 15 -30 11
-19 -8 -20 2 -2 26 11 14 15 15 19 5 3 -7 6 -4 6 7 0 11 -3 26 -8 34 -7 11
-13 7 -26 -15 -10 -16 -26 -41 -36 -56 -16 -22 -16 -29 -6 -40 8 -7 12 -19 9
-26 -2 -8 6 -16 18 -19 16 -4 18 -8 8 -14 -11 -7 -10 -11 2 -19 13 -9 13 -10
0 -10 -8 0 -20 10 -25 23 -14 31 -50 34 -66 5 -7 -13 -37 -60 -66 -106 -30
-46 -53 -86 -50 -88 3 -3 -6 -16 -19 -29 -13 -13 -24 -29 -24 -35 0 -17 25 -6
32 15 6 19 6 18 7 -2 1 -13 5 -23 10 -23 5 0 8 12 5 28 -4 26 -4 26 12 7 16
-19 16 -19 9 5 -4 14 -12 28 -18 31 -6 4 -3 16 8 30 10 13 15 17 12 7 -3 -9
-1 -33 6 -53 9 -30 8 -38 -4 -46 -9 -5 59 -9 178 -9 l193 0 16 26 c13 19 14
28 5 37 -10 9 -11 8 -6 -4 3 -9 -1 -21 -9 -28 -12 -10 -15 -9 -20 6 -5 16 -17
18 -133 13 l-128 -4 85 -6 c80 -6 77 -6 -40 -7 -80 0 -110 2 -85 7 38 7 24 14
-21 11 -19 -2 -22 4 -26 41 -5 48 5 70 30 61 15 -6 15 -5 3 10 -9 12 -10 17
-2 17 6 0 14 -7 17 -15 9 -24 36 3 29 29 -3 12 -2 15 1 9 3 -7 21 -13 40 -13
27 0 34 -4 34 -20 0 -15 -7 -20 -27 -22 -16 -1 6 -4 47 -8 l75 -6 -67 -2 c-77
-2 -99 -9 -92 -27 3 -7 0 -16 -7 -21 -8 -5 -10 -3 -4 5 4 8 -1 21 -14 32 -12
11 -21 17 -21 13 0 -3 -6 -1 -13 5 -8 6 -17 8 -20 5 -7 -8 3 -67 14 -74 4 -3
57 -3 118 0 61 3 111 2 111 -3 0 -4 9 -2 20 5 11 7 18 19 15 25 -2 7 1 13 7
13 7 0 7 4 -1 14 -9 10 -8 16 4 26 9 7 18 10 22 6 3 -3 0 -6 -8 -6 -11 0 -11
-2 1 -10 8 -5 10 -10 4 -10 -6 0 -11 -7 -11 -15 0 -8 4 -15 9 -15 4 0 7 -3 7
-7 -3 -20 2 -26 11 -13 8 13 10 12 10 -4 0 -14 3 -16 14 -7 7 6 21 9 30 5 20
-8 21 5 0 34 -13 19 -13 22 0 22 8 0 18 -10 22 -22 6 -19 10 -15 40 32 19 30
34 62 34 72 0 10 5 17 10 16 16 -4 81 110 69 118 -6 3 -13 -3 -16 -15 -3 -12
-10 -21 -15 -21 -6 0 -7 -7 -4 -16 4 -10 2 -13 -6 -8 -8 5 -9 2 -5 -10 4 -9 3
-15 -2 -11 -5 3 -12 -1 -15 -7 -3 -7 -3 -3 0 9 4 18 1 21 -18 16 -20 -4 -21
-3 -8 9 9 7 14 21 12 32 -3 13 0 16 8 11 10 -6 11 -1 6 18 -3 15 -1 29 6 33 7
4 8 3 4 -4 -4 -7 -3 -19 2 -28 8 -15 10 -15 16 1 3 9 3 22 -1 27 -3 7 -1 8 6
4 7 -4 9 -17 6 -29 -5 -19 -5 -20 5 -5 8 13 8 24 -2 40 -7 13 -12 26 -13 30 0
3 -3 10 -7 14 -15 14 -8 44 10 43 10 0 12 -3 5 -6 -17 -6 -16 -30 0 -40 16
-10 32 -44 36 -75 1 -10 3 -10 10 1 10 16 2 53 -10 45 -5 -3 -6 3 -2 12 6 16
8 15 16 -4 6 -12 14 -22 20 -22 5 0 4 7 -3 15 -6 8 -9 19 -5 25 12 19 -6 32
-20 13 -13 -17 -15 -17 -32 0 -17 16 -10 23 20 18 4 0 7 4 7 11 0 9 3 9 11 1
6 -6 17 -9 24 -7 7 3 15 -2 19 -11 3 -9 2 -14 -3 -11 -5 3 -11 -1 -15 -9 -3
-8 0 -17 6 -21 6 -4 8 -3 5 3 -4 6 0 14 9 17 10 4 14 12 10 22 -5 13 -4 14 7
6 8 -7 17 -9 21 -5 4 4 5 1 2 -7 -7 -18 31 -83 43 -75 5 3 13 0 17 -6 4 -8 3
-9 -4 -5 -7 4 -12 4 -12 -1 0 -9 39 -75 49 -83 3 -3 14 -21 24 -40 10 -19 27
-46 38 -60 l20 -25 -7 29 c-5 22 -4 27 6 21 7 -4 10 -20 7 -39 -5 -33 8 -70
22 -61 5 3 12 -7 15 -20 4 -14 11 -23 17 -19 6 3 9 0 8 -7 -2 -8 1 -24 5 -36
7 -23 8 -23 237 -23 126 0 229 2 229 3 0 2 -8 13 -17 25 -10 11 -26 30 -35 41
-10 12 -13 23 -8 26 6 4 10 1 10 -5 0 -6 5 -8 10 -5 6 4 9 3 8 -2 -1 -4 10
-26 25 -48 15 -22 27 -34 27 -27 0 14 -34 69 -93 150 -21 29 -36 56 -33 61 8
12 -19 33 -29 23 -5 -4 -5 1 -2 10 8 22 -9 34 -17 12 -3 -8 0 -22 7 -29 26
-30 35 -42 46 -66 11 -23 11 -23 -3 -5 -9 11 -19 16 -23 12 -4 -4 0 -12 10
-17 9 -6 17 -18 17 -27 0 -10 5 -23 12 -30 8 -8 8 -15 0 -25 -7 -8 -9 -17 -5
-20 3 -4 -52 -8 -123 -9 l-129 -2 130 -6 130 -6 -150 -2 c-144 -2 -151 -1
-152 18 -1 16 5 20 30 21 72 1 173 -2 190 -7 12 -4 17 0 17 15 0 11 5 23 10
26 6 3 10 -3 10 -14 0 -12 5 -21 10 -21 13 0 12 7 -3 52 -13 36 -28 39 -40 8
-3 -10 -6 -6 -7 10 -1 14 -3 40 -5 58 -2 17 1 32 6 32 5 0 9 -7 9 -15 0 -8 5
-15 12 -15 9 0 9 -3 0 -12 -14 -14 -16 -28 -3 -28 20 0 20 33 1 61 -17 22 -19
33 -10 48 8 16 4 29 -18 67 -24 41 -44 59 -41 37 1 -5 5 -7 9 -6 4 1 11 -10
15 -25 4 -15 11 -30 17 -33 5 -4 8 -15 6 -25 -4 -14 -9 -8 -23 24 -13 33 -20
40 -27 30 -8 -10 -9 -9 -4 4 3 10 0 20 -5 24 -7 4 -8 -9 -4 -39 4 -27 3 -47
-4 -51 -13 -8 -12 124 1 141 5 7 5 14 -2 18 -5 3 -10 1 -10 -5 0 -6 -5 -8 -10
-5 -6 4 -8 15 -5 26 5 14 -3 31 -24 55 -17 19 -31 42 -31 50 0 8 -5 12 -10 9
-8 -5 -7 -11 1 -21 9 -11 9 -18 -1 -29 -15 -19 -24 -12 -25 18 0 12 -5 21 -11
20 -7 -1 -10 6 -7 17 3 11 9 17 14 14 5 -3 6 -11 2 -17 -4 -7 1 -6 10 2 16 13
16 16 2 35 -8 12 -23 36 -32 54 -9 17 -20 32 -25 32 -4 0 -8 5 -8 11 0 6 -18
41 -41 79 l-40 68 -233 1 c-129 0 -237 -3 -240 -7z m427 -13 c-30 -11 -29 -17
3 -13 l26 2 -23 -24 c-13 -14 -25 -20 -27 -14 -3 8 -8 8 -18 -1 -11 -9 -15 -8
-20 5 -3 9 -13 16 -21 16 -8 0 -12 4 -9 9 4 5 17 8 31 6 14 -1 25 2 25 6 0 5
-71 10 -157 12 l-158 3 185 1 c111 0 176 -3 163 -8z m-83 -49 c0 -5 -4 -10
-10 -10 -5 0 -10 -10 -10 -22 0 -12 -3 -19 -6 -15 -9 9 5 57 16 57 6 0 10 -4
10 -10z m-290 -49 c0 -10 -30 -24 -38 -16 -3 3 0 5 6 5 7 0 12 7 12 15 0 8 -4
15 -10 15 -5 0 -10 8 -10 17 0 14 3 14 20 -5 11 -12 20 -25 20 -31z m-99 6
c-10 -9 -11 -8 -5 6 3 10 9 15 12 12 3 -3 0 -11 -7 -18z m413 7 c11 -27 7 -37
-9 -24 -16 14 -20 40 -6 40 5 0 12 -7 15 -16z m-36 -49 c-6 -14 -13 -23 -16
-21 -7 7 9 46 18 46 5 0 4 -11 -2 -25z m-408 -35 c-13 -8 -12 -11 4 -23 13
-10 15 -16 8 -21 -7 -4 -12 -2 -12 5 0 7 -7 4 -15 -7 -17 -23 -19 -12 -4 40 8
29 13 36 22 27 9 -9 8 -14 -3 -21z m440 26 c0 -3 -4 -8 -10 -11 -5 -3 -10 -1
-10 4 0 6 5 11 10 11 6 0 10 -2 10 -4z m251 -91 c9 -18 9 -19 -4 -3 -13 16
-15 16 -28 -9 -8 -14 -13 -34 -11 -44 2 -9 -2 -20 -8 -24 -22 -14 -1 79 23 96
4 3 1 12 -8 19 -14 12 -16 12 -14 -1 4 -21 -11 -59 -23 -59 -7 0 -6 5 2 15 14
16 21 65 11 80 -3 6 6 -3 22 -20 15 -16 32 -39 38 -50z m-297 20 c-4 -8 -10
-12 -15 -9 -5 3 -9 -4 -9 -16 0 -22 -50 -104 -58 -96 -3 3 2 16 10 28 13 20
13 25 2 36 -8 7 -13 27 -12 45 l1 32 4 -32 c5 -40 30 -63 39 -38 4 10 2 26 -4
36 -17 26 -15 31 8 24 12 -4 20 -2 20 5 0 6 4 9 10 5 5 -3 7 -12 4 -20z m-401
-48 c4 3 7 1 7 -5 0 -16 -20 -26 -20 -10 0 7 -5 5 -11 -6 -9 -14 -8 -20 2 -27
7 -4 10 -11 6 -16 -5 -4 -12 -1 -17 7 -5 8 -11 12 -13 10 -2 -3 -11 -16 -20
-29 -14 -21 -17 -22 -23 -8 -3 10 -3 29 0 43 6 21 10 23 21 14 11 -9 14 -8 14
7 0 10 3 33 7 52 l7 34 16 -37 c10 -20 20 -33 24 -29z m29 -89 c-5 -5 -17 -8
-26 -6 -15 3 -15 5 1 25 15 19 19 20 26 6 6 -9 5 -19 -1 -25z m28 21 c0 -6 -4
-7 -10 -4 -5 3 -10 11 -10 16 0 6 5 7 10 4 6 -3 10 -11 10 -16z m568 9 c7 -7
12 -20 12 -31 0 -15 6 -18 33 -15 28 3 32 0 35 -24 2 -16 8 -28 13 -28 5 0 9
-7 9 -15 0 -9 6 -12 15 -9 10 4 15 20 15 48 0 30 -3 37 -10 26 -9 -14 -12 -12
-9 6 0 4 -4 10 -10 13 -6 4 -6 12 -2 20 7 11 11 9 20 -8 7 -12 15 -20 19 -17
4 2 7 -20 7 -48 0 -40 -4 -53 -14 -52 -9 1 -15 -10 -16 -27 -2 -26 -25 -64
-25 -41 0 7 -29 10 -75 9 l-75 -1 -1 40 c0 23 -4 50 -9 61 -8 19 -9 19 -9 -2
-1 -16 -7 -23 -21 -23 -17 0 -20 7 -20 40 0 33 3 40 20 40 11 0 20 -5 20 -10
0 -7 6 -7 20 0 11 6 20 17 20 25 0 8 5 15 11 15 5 0 7 5 4 10 -9 14 8 13 23
-2z m-719 -56 c-2 -24 -2 -24 -6 -4 -2 12 -9 20 -14 17 -5 -3 -6 1 -3 9 9 24
24 9 23 -22z m61 28 c0 -5 -2 -10 -4 -10 -3 0 -8 5 -11 10 -3 6 -1 10 4 10 6
0 11 -4 11 -10z m720 0 c0 -5 -4 -10 -10 -10 -5 0 -10 5 -10 10 0 6 5 10 10
10 6 0 10 -4 10 -10z m-572 -18 c2 -7 -3 -12 -12 -12 -9 0 -16 7 -16 16 0 17
22 14 28 -4z m632 -45 c0 -16 -3 -17 -15 -7 -8 7 -15 16 -15 20 0 3 7 7 15 7
8 0 15 -9 15 -20z m-839 -27 c5 0 9 -5 9 -11 0 -8 -5 -8 -15 1 -8 7 -14 20
-14 29 1 13 2 13 6 -1 2 -10 9 -18 14 -18z m-80 -3 c-10 -9 -11 -8 -5 6 3 10
9 15 12 12 3 -3 0 -11 -7 -18z m681 -61 c6 4 8 3 5 -3 -8 -13 20 -26 35 -17 6
4 3 -7 -8 -25 -10 -17 -21 -31 -25 -31 -4 0 -21 13 -38 29 -36 34 -42 18 -7
-20 16 -18 21 -30 15 -40 -7 -11 -9 -11 -9 3 0 9 -6 21 -13 25 -7 4 -18 20
-24 36 -7 15 -17 27 -23 27 -5 0 -10 7 -10 15 0 9 10 15 26 15 16 0 23 4 18
11 -4 8 0 9 15 4 17 -5 21 -2 23 17 1 13 3 6 5 -15 3 -24 8 -35 15 -31z m-680
2 c-17 -17 -46 8 -29 27 10 11 14 11 27 -1 11 -10 11 -17 2 -26z m88 -9 c0 -5
-4 -9 -10 -9 -5 0 -10 7 -10 16 0 8 5 12 10 9 6 -3 10 -10 10 -16z m-50 3 c0
-10 -37 -32 -43 -25 -8 7 15 32 31 33 6 0 12 -3 12 -8z m255 -16 c-15 -23 -15
-25 5 -39 18 -13 20 -19 10 -36 -6 -12 -8 -27 -4 -34 5 -7 1 -7 -10 2 -13 11
-14 16 -4 22 11 7 11 9 0 9 -7 0 -10 5 -7 10 3 6 -1 13 -10 16 -25 10 -31 -4
-9 -22 10 -8 13 -12 5 -8 -16 8 -9 -8 18 -40 12 -14 12 -17 2 -11 -11 6 -13 4
-8 -8 3 -10 3 -17 -2 -17 -4 0 -13 -10 -20 -22 l-11 -23 6 24 c3 13 2 21 -3
18 -5 -3 -15 -1 -23 5 -13 8 -12 9 2 5 29 -10 40 16 23 56 -19 45 -19 42 7 67
15 14 17 20 7 20 -10 0 18 22 39 29 1 1 -5 -10 -13 -23z m-331 -53 c8 -21 -23
-48 -37 -34 -14 14 -35 -10 -29 -33 3 -13 1 -17 -6 -12 -17 11 -15 31 8 57 17
21 21 22 30 9 5 -8 10 -10 10 -4 0 5 -5 15 -12 22 -9 9 -7 12 9 12 11 0 24 -8
27 -17z m758 -11 c-7 -2 -12 -20 -13 -40 l-1 -37 -9 34 c-8 27 -7 37 8 53 12
14 19 16 22 7 2 -7 -1 -15 -7 -17z m298 -2 c0 -5 -4 -10 -10 -10 -5 0 -10 5
-10 10 0 6 5 10 10 10 6 0 10 -4 10 -10z m85 -10 c3 -5 1 -10 -4 -10 -6 0 -11
5 -11 10 0 6 2 10 4 10 3 0 8 -4 11 -10z m-1095 -10 c0 -5 -4 -10 -10 -10 -5
0 -10 5 -10 10 0 6 5 10 10 10 6 0 10 -4 10 -10z m717 -27 c-3 -10 -5 -4 -5
12 0 17 2 24 5 18 2 -7 2 -21 0 -30z m-467 -14 c0 -6 -4 -7 -10 -4 -5 3 -10
11 -10 16 0 6 5 7 10 4 6 -3 10 -11 10 -16z m494 -68 c39 -25 53 -27 36 -6 -7
8 -9 15 -4 15 5 0 0 8 -11 16 -19 14 -17 15 25 10 25 -3 46 -5 48 -5 2 -1 0
-7 -3 -13 -4 -7 1 -4 9 6 9 11 16 15 16 9 0 -19 -30 -43 -45 -37 -15 6 -20 -6
-15 -36 1 -8 -1 -12 -5 -8 -4 4 -16 -3 -26 -15 -17 -21 -22 -6 -6 19 8 14 -1
24 -23 24 -9 0 -22 12 -28 26 -7 14 -17 22 -22 19 -6 -4 -7 1 -3 11 5 14 7 14
15 1 4 -9 23 -25 42 -36z m216 40 l-75 -5 75 -6 75 -6 -82 -2 c-46 -1 -83 2
-83 7 0 15 22 19 95 18 l70 -1 -75 -5z m177 -23 c2 -18 0 -20 -7 -8 -12 18
-13 30 -2 30 4 0 9 -10 9 -22z m-947 -19 c0 -5 -4 -9 -10 -9 -5 0 -10 7 -10
16 0 8 5 12 10 9 6 -3 10 -10 10 -16z m957 -55 c-9 -9 -28 6 -21 18 4 6 10 6
17 -1 6 -6 8 -13 4 -17z m-347 -14 c0 -5 -4 -10 -10 -10 -5 0 -10 5 -10 10 0
6 5 10 10 10 6 0 10 -4 10 -10z m-635 -15 c0 -6 -55 -10 -145 -11 l-145 0 145
5 c92 4 130 8 105 12 l-40 6 40 -1 c22 0 40 -5 40 -11z m985 6 c0 -5 8 -12 18
-14 11 -3 8 -5 -9 -6 -17 -1 -26 4 -26 14 0 8 4 15 9 15 4 0 8 -4 8 -9z
m-1283 -17 c-3 -3 -12 -4 -19 -1 -8 3 -5 6 6 6 11 1 17 -2 13 -5z m930 0 c-3
-3 -12 -4 -19 -1 -8 3 -5 6 6 6 11 1 17 -2 13 -5z m251 -1 c-43 -2 -113 -2
-155 0 -43 1 -8 3 77 3 85 0 120 -2 78 -3z"/>
<path d="M522 960 c-8 -13 -8 -20 -2 -20 6 0 13 7 17 15 9 24 -1 27 -15 5z"/>
<path d="M480 900 c0 -5 5 -10 10 -10 6 0 10 5 10 10 0 6 -4 10 -10 10 -5 0
-10 -4 -10 -10z"/>
<path d="M1047 679 c18 -18 25 -21 35 -11 15 15 11 19 -27 27 l-30 7 22 -23z"/>
<path d="M2837 1203 c-12 -12 -7 -22 8 -17 8 4 15 10 15 15 0 11 -14 12 -23 2z"/>
<path d="M2843 1153 c-15 -5 -17 -23 -4 -23 5 0 11 7 15 15 3 8 4 15 3 14 -1
0 -8 -3 -14 -6z"/>
<path d="M6758 1153 c23 -2 61 -2 85 0 23 2 4 4 -43 4 -47 0 -66 -2 -42 -4z"/>
<path d="M610 960 c0 -11 5 -20 10 -20 6 0 10 9 10 20 0 11 -4 20 -10 20 -5 0
-10 -9 -10 -20z"/>
<path d="M2190 949 c11 -7 4 -8 -25 -3 -40 6 -40 6 -17 -11 20 -14 28 -15 52
-5 31 13 65 7 56 -9 -3 -5 -16 -7 -29 -5 -20 4 -19 3 3 -7 22 -10 42 -13 98
-18 7 -1 10 -5 7 -11 -10 -17 7 -11 20 7 9 13 14 13 20 3 5 -8 4 -11 -2 -7 -6
4 -13 0 -17 -8 -3 -8 0 -15 6 -15 6 0 4 -8 -5 -18 -31 -34 9 -44 49 -13 15 11
20 22 14 26 -12 8 -32 -3 -25 -15 3 -4 -5 -10 -16 -13 -19 -5 -19 -4 -6 11 9
9 16 21 15 25 0 5 4 12 8 15 4 4 4 1 -1 -7 -6 -10 -4 -12 5 -6 10 6 6 15 -18
35 -32 26 -107 57 -96 39 3 -5 0 -9 -6 -9 -6 0 -13 7 -16 15 -4 10 -20 15 -48
15 -31 0 -37 -3 -26 -11z m125 -29 c4 -6 -6 -10 -22 -9 -25 0 -26 1 -8 9 11 5
21 9 22 9 1 1 5 -3 8 -9z"/>
<path d="M3310 950 c-19 -5 -36 -13 -38 -20 -2 -6 -22 -22 -44 -37 -31 -19
-38 -27 -27 -34 21 -13 32 -11 26 5 -4 10 -1 13 9 9 7 -3 14 -12 14 -20 0 -8
-4 -11 -10 -8 -5 3 -10 1 -10 -5 0 -6 -5 -8 -12 -4 -8 5 -9 2 -5 -10 4 -11 3
-15 -4 -11 -6 4 -8 13 -5 20 5 14 -18 28 -28 18 -11 -11 -6 -24 6 -17 7 5 8 3
3 -6 -5 -8 -2 -18 9 -26 11 -8 13 -14 7 -19 -6 -3 -14 2 -18 11 -6 16 -7 16
-14 -2 -4 -10 -8 -34 -8 -53 -1 -25 -5 -32 -16 -27 -8 3 -15 1 -15 -4 0 -6 9
-10 21 -10 11 0 18 -4 14 -10 -3 -5 -12 -7 -20 -4 -10 4 -12 0 -8 -15 7 -26
-3 -27 -16 -3 -13 25 4 97 29 125 23 24 25 37 8 37 -7 1 12 24 42 52 30 28 45
45 33 39 -59 -30 -125 -117 -115 -153 4 -15 2 -19 -7 -14 -9 6 -10 0 -6 -21 4
-18 3 -23 -3 -15 -5 8 -8 -12 -8 -57 1 -68 10 -96 24 -75 4 6 18 15 32 19 22
7 23 6 11 -9 -8 -9 -11 -20 -7 -23 4 -4 11 -1 15 6 5 8 11 9 15 3 3 -6 0 -12
-6 -15 -9 -3 -4 -11 12 -25 14 -12 20 -21 13 -22 -6 0 -15 5 -19 12 -5 8 -11
6 -20 -6 -11 -16 -13 -16 -19 3 -3 12 -4 25 0 30 3 5 1 12 -5 16 -5 3 -10 -2
-10 -12 0 -15 -2 -16 -10 -3 -8 13 -10 12 -10 -2 0 -10 5 -18 11 -18 5 0 7 -5
3 -12 -5 -7 -3 -8 6 -3 9 6 12 4 8 -6 -3 -8 -1 -25 6 -36 14 -28 91 -83 113
-83 11 1 3 9 -19 21 -21 11 -38 22 -38 24 0 3 18 -4 41 -16 23 -11 38 -15 33
-8 -5 9 -2 10 12 5 25 -10 122 -36 134 -36 6 0 10 5 10 10 0 6 -14 10 -31 10
-16 0 -28 4 -24 9 3 6 17 6 34 1 21 -6 35 -4 48 6 16 12 15 13 -17 9 -33 -5
-33 -4 -7 4 16 6 36 7 44 4 14 -5 13 -8 -3 -20 -17 -13 -17 -14 11 -8 20 4 26
3 17 -3 -11 -7 -10 -10 3 -16 11 -4 28 5 51 28 19 19 34 32 34 29 0 -2 12 10
26 27 15 17 27 42 27 55 0 14 3 22 8 19 16 -10 30 95 21 156 l-7 45 -14 -35
c-7 -19 -17 -44 -22 -55 -8 -17 -9 -17 -5 5 3 14 0 32 -5 40 -9 13 -10 12 -5
-2 3 -12 1 -15 -9 -12 -11 4 -11 12 -2 37 l11 32 11 -28 11 -28 12 38 c9 32 9
35 -2 21 -12 -16 -14 -16 -25 9 -8 18 -9 29 -1 37 7 7 10 3 10 -13 0 -12 4
-20 10 -16 6 3 5 15 -2 31 l-12 25 -17 -23 c-13 -16 -15 -26 -7 -36 11 -13 4
-27 -14 -27 -6 0 -13 -6 -16 -14 -3 -8 -1 -11 4 -8 5 3 9 -30 9 -74 1 -55 -3
-80 -12 -83 -7 -3 -13 -12 -13 -19 0 -8 -7 -20 -15 -27 -12 -10 -13 -15 -3
-21 9 -6 8 -13 -7 -30 -18 -20 -18 -22 -3 -16 14 5 17 2 15 -13 -5 -31 -14
-34 -41 -13 l-25 20 24 11 c14 7 25 16 25 21 0 5 -21 -2 -47 -17 -56 -31 -146
-35 -187 -9 -14 10 -33 14 -42 10 -11 -4 -15 -2 -11 4 4 6 0 16 -8 23 -8 7
-15 18 -15 24 0 7 -5 17 -12 24 -6 6 -13 23 -14 38 -5 47 -12 58 -29 44 -10
-9 -15 -9 -15 -1 0 6 5 11 11 11 6 0 9 7 6 15 -4 8 -2 17 4 21 6 3 8 12 5 20
-3 8 -1 14 4 14 6 0 10 8 10 18 0 17 32 75 54 97 18 19 73 45 92 45 10 0 26 7
36 17 10 9 18 11 18 6 0 -18 42 -22 74 -8 l31 14 -40 -4 c-38 -5 -38 -4 -10 5
32 11 79 5 70 -9 -2 -5 2 -12 11 -15 24 -9 28 -7 14 9 -7 8 -8 15 -2 15 5 0
15 -7 22 -15 10 -12 10 -15 0 -15 -7 0 -10 -7 -6 -15 3 -8 1 -15 -3 -15 -5 0
-7 -10 -5 -22 l5 -23 -12 23 c-7 12 -16 22 -21 22 -5 0 -6 5 -3 10 4 6 11 8
16 5 5 -4 9 -4 9 -1 0 13 -42 26 -66 20 l-27 -7 29 -15 c16 -8 39 -27 52 -41
19 -22 24 -24 32 -11 5 8 8 21 5 28 -2 6 0 12 5 12 13 0 13 -12 0 -46 -6 -15
-8 -29 -6 -32 6 -6 37 69 34 83 -1 6 -8 9 -15 7 -7 -2 -13 2 -13 8 0 5 5 10
12 10 21 0 -68 59 -112 75 -46 16 -104 18 -160 5z m35 -16 c-9 -9 -19 -13 -23
-10 -3 4 0 11 8 16 24 15 33 11 15 -6z m95 6 c0 -5 12 -11 28 -11 24 -2 24 -2
4 -6 -13 -3 -29 0 -36 6 -8 6 -20 9 -29 5 -8 -3 -18 -1 -22 5 -4 7 5 11 24 11
17 0 31 -4 31 -10z m-145 -20 c-16 -7 -14 -9 15 -9 19 0 52 3 73 8 20 5 39 5
42 1 4 -6 -92 -23 -144 -25 -8 0 -16 -6 -17 -13 -1 -7 0 -8 2 -3 3 6 12 7 20
4 12 -4 12 -7 -3 -18 -14 -11 -19 -10 -29 3 -9 12 -7 20 9 39 11 12 28 23 36
22 12 0 10 -3 -4 -9z m230 -10 c3 -6 -1 -7 -9 -4 -18 7 -21 14 -7 14 6 0 13
-4 16 -10z m-172 -27 c-7 -2 -19 -2 -25 0 -7 3 -2 5 12 5 14 0 19 -2 13 -5z
m147 -23 c0 -5 -2 -10 -4 -10 -3 0 -8 5 -11 10 -3 6 -1 10 4 10 6 0 11 -4 11
-10z m-364 -68 c-18 -16 -18 -16 -6 6 6 13 14 21 18 18 3 -4 -2 -14 -12 -24z
m53 -19 c0 -5 -4 -17 -9 -28 -8 -18 -9 -17 -9 8 -1 15 4 27 9 27 6 0 10 -3 9
-7z m481 -116 c0 -10 -4 -15 -10 -12 -5 3 -10 -3 -10 -14 0 -16 -6 -20 -24
-19 -16 2 -22 7 -18 17 3 9 1 12 -6 7 -8 -5 -12 3 -12 24 0 38 15 32 23 -10 7
-34 27 -41 27 -10 0 11 5 20 11 20 6 0 8 9 4 23 -5 17 -4 19 4 7 6 -8 11 -23
11 -33z m-536 -33 c3 -8 2 -13 -3 -9 -5 3 -11 -1 -14 -7 -2 -7 -7 -10 -11 -7
-8 8 3 39 14 39 4 0 11 -7 14 -16z m470 -68 c-3 -14 -9 -24 -13 -21 -4 2 -8
-1 -9 -8 0 -7 -4 -23 -7 -37 l-7 -25 18 25 c10 14 18 29 16 33 -1 5 3 7 10 5
6 -2 14 -10 16 -18 3 -7 0 -10 -5 -7 -5 3 -17 -5 -27 -19 -11 -13 -23 -24 -28
-24 -14 0 1 81 18 98 8 7 14 18 14 24 0 6 2 9 5 6 4 -3 3 -17 -1 -32z m33 5
c-1 -16 -7 -27 -13 -24 -12 5 -6 53 7 53 4 0 7 -13 6 -29z m-406 -96 c4 0 11
-3 15 -7 4 -5 19 -8 33 -9 l26 0 -23 -10 c-18 -7 -30 -4 -52 11 -15 11 -30 16
-34 13 -4 -4 -4 1 0 11 5 13 4 17 -3 13 -6 -4 -14 -1 -17 5 -4 7 -4 3 -2 -9 6
-31 -8 -29 -22 3 -7 14 -8 23 -3 19 5 -3 13 -1 16 5 4 7 17 0 33 -17 14 -15
29 -28 33 -28z m-3 20 c-3 -3 -9 2 -12 12 -6 14 -5 15 5 6 7 -7 10 -15 7 -18z
m122 -55 c12 -8 11 -10 -7 -10 -12 0 -25 5 -28 10 -8 13 15 13 35 0z"/>
<path d="M2603 942 l-43 -3 0 -285 0 -285 48 3 47 3 3 94 c3 88 -6 126 -25
107 -4 -4 -7 -47 -6 -96 1 -79 -1 -89 -18 -93 -10 -3 -21 -2 -22 1 -2 4 -3 54
-1 112 2 58 3 165 3 238 0 123 2 133 18 130 15 -3 19 -17 23 -83 3 -44 2 -93
-1 -110 -3 -16 -3 -41 1 -55 5 -21 11 -24 53 -25 26 0 47 3 47 8 0 4 -7 7 -15
7 -8 0 -15 4 -15 8 0 4 24 9 54 10 40 2 55 -2 60 -13 3 -8 1 -15 -3 -15 -5 0
-11 5 -13 11 -2 7 -4 -5 -4 -26 0 -21 2 -33 4 -26 2 6 8 9 13 6 5 -4 6 0 3 8
-6 16 5 26 37 32 17 3 19 2 9 -10 -14 -16 -4 -39 12 -29 7 4 8 2 4 -4 -4 -7
-2 -12 4 -12 7 0 9 -9 5 -22 -4 -16 -3 -19 3 -10 7 11 10 10 16 -3 3 -9 -1
-23 -9 -31 -16 -16 -15 -17 -20 36 -2 31 -15 42 -33 28 -12 -10 -14 -10 -8 0
10 16 -9 16 -22 -1 -8 -9 -6 -21 8 -42 20 -30 20 -30 20 -6 0 18 3 22 11 14 8
-8 8 -17 0 -30 -10 -20 2 -43 23 -43 6 0 5 5 -2 12 -7 7 -12 19 -11 27 0 10 4
7 10 -7 5 -13 13 -20 19 -17 5 3 10 1 10 -6 0 -8 5 -7 17 2 15 12 16 12 10 -4
-4 -10 -7 -21 -7 -24 0 -3 -7 0 -15 7 -26 21 -42 -3 -23 -32 12 -18 26 -24 52
-25 38 -1 46 12 24 36 -11 12 -10 13 6 7 20 -7 20 -7 0 16 -10 13 -23 26 -27
29 -5 3 -8 9 -7 13 4 14 -52 106 -61 101 -5 -4 -9 -2 -9 3 0 12 35 43 42 37 2
-3 22 10 42 28 30 25 38 40 41 72 1 22 6 54 9 70 4 21 1 37 -9 50 -15 19 -16
18 -12 -20 2 -22 2 -32 0 -22 -5 20 -8 20 -32 8 -10 -6 -24 -28 -31 -51 -15
-44 -42 -70 -75 -71 -17 0 -18 -1 -3 -7 9 -4 -30 -7 -87 -8 -58 0 -99 3 -93 8
10 6 9 8 -2 8 -12 0 -13 2 -1 9 10 7 12 27 6 95 l-6 86 84 0 c47 0 99 3 116 6
33 7 43 24 14 25 -16 0 -15 1 2 8 16 6 14 9 -15 15 -19 4 -30 10 -24 12 17 7
66 -15 59 -26 -3 -6 1 -7 9 -4 11 4 16 0 16 -12 0 -15 2 -16 9 -5 13 20 2 41
-16 34 -11 -4 -14 -2 -9 5 4 7 0 12 -11 13 -48 3 -243 4 -280 1z m117 -22 c0
-5 -7 -10 -16 -10 -8 0 -12 5 -9 10 3 6 10 10 16 10 5 0 9 -4 9 -10z m-44 -9
c5 -6 36 -12 69 -14 l60 -3 -67 -2 c-40 -1 -68 2 -68 8 0 6 -7 10 -15 10 -16
0 -21 -15 -7 -23 4 -2 1 -2 -6 0 -8 1 -22 3 -33 3 -10 0 -19 7 -19 15 0 17 69
22 86 6z m147 2 c-7 -2 -19 -2 -25 0 -7 3 -2 5 12 5 14 0 19 -2 13 -5z m123
-168 c-11 -19 -23 -32 -27 -29 -8 5 5 34 26 60 19 23 19 3 1 -31z m24 -42 c0
-20 -3 -24 -9 -14 -5 8 -11 9 -15 3 -3 -6 -2 -14 4 -17 16 -10 -8 -35 -32 -35
-10 0 -17 -3 -15 -7 3 -5 -5 -8 -16 -8 -12 -1 -33 -5 -46 -9 -15 -5 -21 -5
-17 2 3 5 22 13 41 16 20 4 33 11 30 17 -4 6 -13 5 -25 -1 -10 -5 -58 -9 -107
-8 l-88 2 97 5 c53 3 100 9 104 14 4 4 1 7 -7 7 -8 0 -4 6 9 16 13 9 31 13 43
9 15 -5 22 -2 26 14 8 30 23 26 23 -6z m-310 -88 c0 -8 -4 -15 -10 -15 -5 0
-10 7 -10 15 0 8 5 15 10 15 6 0 10 -7 10 -15z m168 -100 c-3 -3 -9 2 -12 12
-6 14 -5 15 5 6 7 -7 10 -15 7 -18z m97 -35 c3 -5 1 -10 -4 -10 -6 0 -11 5
-11 10 0 6 2 10 4 10 3 0 8 -4 11 -10z m25 -50 c0 -5 -5 -10 -12 -10 -6 0 -3
-9 7 -20 10 -11 13 -20 8 -20 -17 0 -34 26 -27 44 7 18 24 22 24 6z m-43 -30
c11 -16 10 -18 -1 -14 -15 6 -30 34 -18 34 4 0 13 -9 19 -20z"/>
<path d="M2886 681 c-3 -5 0 -13 7 -19 14 -12 40 -11 45 1 5 16 1 17 -17 7
-14 -7 -22 -7 -27 2 -4 6 -3 8 4 4 6 -3 13 -2 17 4 3 5 -1 10 -9 10 -8 0 -17
-4 -20 -9z"/>
<path d="M3785 941 c-7 -7 -5 -326 2 -380 7 -51 23 -44 17 7 l-4 37 10 -33 c7
-22 7 -38 0 -52 -13 -24 -2 -49 35 -78 13 -11 21 -22 17 -26 -3 -4 1 -4 11 0
17 6 17 7 0 20 -15 11 -15 15 -4 23 8 5 9 11 3 15 -6 3 -14 1 -17 -4 -5 -8
-13 -6 -25 5 -15 13 -17 22 -10 41 5 13 7 39 3 56 -7 40 4 33 16 -10 6 -19 5
-34 -1 -40 -5 -5 -7 -20 -3 -32 5 -15 10 -19 15 -11 5 9 15 7 39 -7 30 -18 31
-21 14 -31 -20 -12 -20 -12 25 -16 31 -3 44 9 20 18 -7 2 -6 3 2 2 8 -2 23 -6
33 -10 10 -4 17 -3 17 4 0 6 -6 11 -13 11 -18 0 -82 36 -82 46 -1 5 -7 19 -14
32 -9 17 -12 76 -11 217 1 205 -12 264 -26 117 -7 -76 -9 -82 -15 -47 l-6 40
-2 -35 c-1 -27 -4 -31 -11 -20 -7 10 -9 -14 -8 -75 l2 -90 6 75 c6 72 6 72 8
20 2 -40 5 -51 12 -40 7 10 10 -5 9 -50 0 -42 -3 -58 -8 -45 -5 11 -14 20 -22
20 -11 0 -14 27 -16 140 -1 84 2 130 7 115 6 -20 8 -15 9 26 1 39 -3 51 -14
51 -8 0 -17 -3 -20 -6z m84 -246 c-2 -153 -1 -166 17 -180 10 -8 15 -15 10
-15 -5 0 -2 -7 5 -17 13 -15 12 -15 -8 -5 -12 7 -25 17 -28 22 -4 6 -11 8 -16
5 -11 -7 -12 8 -2 19 9 9 9 10 11 189 1 81 5 147 8 147 3 0 4 -74 3 -165z"/>
<path d="M3830 926 c0 -31 6 -34 13 -6 3 11 1 23 -4 26 -5 3 -9 -6 -9 -20z"/>
<path d="M4189 945 c-1 0 -2 -74 -3 -165 0 -91 2 -149 5 -130 l6 35 2 -37 c0
-20 -4 -40 -9 -43 -6 -4 -8 -15 -5 -26 8 -25 -24 -97 -47 -105 -14 -4 -16 -9
-8 -24 7 -13 6 -20 -3 -24 -6 -3 -3 -4 8 -3 11 2 19 8 18 14 -1 6 9 8 23 5 27
-5 24 -17 -4 -17 -9 0 -16 -5 -15 -12 2 -9 -4 -10 -24 -2 -14 5 -33 7 -40 5
-8 -3 -11 -1 -8 4 3 6 -2 10 -12 10 -13 0 -14 3 -6 8 8 5 -1 8 -22 8 -19 0
-37 -6 -39 -13 -3 -7 -13 -13 -23 -14 -36 -1 20 -18 67 -19 25 -1 36 -4 25 -7
-11 -2 -30 -9 -43 -16 -16 -7 -25 -8 -30 -1 -11 16 -67 41 -88 39 -34 -2 -27
-20 13 -33 56 -19 133 -27 133 -14 0 7 12 9 33 6 21 -4 28 -3 19 4 -11 7 -10
10 3 16 23 8 27 8 20 -4 -8 -13 1 -13 26 1 11 5 16 15 13 21 -4 7 -2 8 5 4 11
-7 80 59 81 77 0 15 -39 -13 -45 -33 -4 -11 -11 -18 -16 -15 -5 4 -2 13 7 22
10 11 14 25 10 42 -9 36 -13 336 -5 391 5 39 7 33 10 -40 2 -47 3 -125 2 -175
-1 -85 -1 -87 7 -30 4 33 5 107 3 165 -4 80 -3 102 6 94 13 -12 11 -277 -2
-324 -6 -20 -4 -19 7 5 9 17 16 48 17 70 l2 40 6 -45 c3 -25 6 29 6 120 l0
165 -43 0 c-23 1 -43 1 -43 0z m78 -67 c-2 -13 -4 -5 -4 17 -1 22 1 32 4 23 2
-10 2 -28 0 -40z m-75 -411 c-12 -12 -25 -15 -38 -10 -17 6 -17 8 6 13 20 5
26 13 29 40 l4 35 8 -30 c7 -23 5 -34 -9 -48z m-139 -54 c-7 -2 -21 -2 -30 0
-10 3 -4 5 12 5 17 0 24 -2 18 -5z m-110 -20 c-7 -2 -19 -2 -25 0 -7 3 -2 5
12 5 14 0 19 -2 13 -5z"/>
<path d="M4414 941 c-9 -9 -4 -560 5 -566 6 -3 12 16 14 42 l3 48 2 -47 c1
-27 6 -48 12 -48 6 0 8 105 5 283 -2 155 -2 277 1 272 6 -15 86 -6 81 9 -4 10
-113 17 -123 7z m23 -51 c-3 -39 -17 -39 -17 0 0 17 4 30 10 30 5 0 8 -13 7
-30z m0 -312 c-2 -24 -4 -5 -4 42 0 47 2 66 4 43 2 -24 2 -62 0 -85z"/>
<path d="M4551 927 c-20 -54 -19 -53 -20 -34 -1 21 -21 23 -21 2 0 -21 41 -28
116 -22 41 3 62 1 58 -5 -4 -6 2 -7 16 -3 12 4 20 3 18 -1 -6 -11 28 -45 36
-37 10 10 7 25 -3 18 -5 -3 -13 0 -17 6 -4 7 -3 9 3 6 5 -3 17 3 26 14 9 10
13 19 7 19 -5 0 -12 -5 -15 -10 -7 -12 -57 -2 -67 13 -4 7 -16 6 -36 -2 -16
-7 -45 -11 -63 -8 -31 3 -30 4 11 7 l45 3 -45 7 -45 8 45 -1 c25 0 51 2 57 6
6 4 23 0 39 -8 15 -7 32 -11 37 -8 5 3 -8 14 -29 23 -22 10 -35 19 -30 19 17
2 76 -23 76 -31 0 -4 9 -8 20 -8 15 0 19 -6 18 -24 -1 -15 -7 -22 -15 -19 -9
4 -11 0 -7 -11 3 -9 2 -22 -3 -29 -12 -17 -9 -78 5 -105 11 -19 10 -26 -5 -47
-10 -13 -22 -25 -27 -25 -5 0 -18 -8 -28 -17 -17 -15 -20 -15 -28 -3 -15 24
-11 34 7 19 13 -11 17 -11 20 -1 3 6 11 12 19 12 9 0 13 4 10 9 -3 5 -16 7
-29 4 -18 -4 -19 -3 -6 6 9 6 26 9 38 6 14 -2 19 0 15 7 -5 7 -2 8 5 3 10 -6
11 -3 1 15 -12 22 -12 22 -33 2 -12 -11 -31 -23 -43 -26 -30 -9 -213 -15 -189
-6 l20 7 -20 5 c-16 5 -17 6 -2 7 14 1 17 10 15 49 l-1 47 -6 -45 -7 -45 -4
48 c-4 33 -2 47 7 47 9 0 13 16 13 45 0 33 -4 45 -15 45 -18 0 -18 -5 -5 -30
7 -13 7 -21 0 -25 -5 -3 -10 3 -10 14 0 12 -5 21 -12 21 -8 0 -9 -31 -4 -117
4 -65 7 -129 6 -143 -3 -70 -1 -222 4 -227 3 -3 12 -3 21 0 12 5 15 25 15 107
0 88 -2 100 -17 101 -13 0 -11 3 6 10 13 5 32 7 42 4 11 -4 19 -2 19 4 0 6 -6
11 -14 11 -8 0 -17 4 -20 9 -3 4 27 9 66 10 74 2 92 -8 22 -12 -64 -3 -45 -22
21 -21 71 1 117 11 127 27 4 7 8 8 8 3 0 -17 42 28 61 66 21 42 24 52 9 43 -5
-3 -10 -1 -10 4 0 6 5 11 10 11 6 0 10 11 10 24 0 31 -20 86 -31 86 -15 0 -10
-37 6 -44 8 -3 15 -16 14 -28 l-1 -23 -6 23 c-4 13 -11 23 -17 22 -5 -1 -13
13 -16 30 -6 28 -4 34 14 31 4 -1 2 8 -5 19 -7 11 -21 20 -31 20 -10 0 -16 4
-13 9 10 15 -25 23 -117 27 -83 3 -88 3 -96 -19z m82 -4 c-13 -2 -35 -2 -50 0
-16 2 -5 4 22 4 28 0 40 -2 28 -4z m187 -145 c0 -7 -5 -20 -10 -28 -8 -11 -9
-9 -8 13 2 26 18 40 18 15z m-32 -35 c0 -26 -3 -32 -9 -22 -7 13 -2 59 6 59 2
0 3 -17 3 -37z m32 -23 c0 -5 -5 -10 -11 -10 -5 0 -7 5 -4 10 3 6 8 10 11 10
2 0 4 -4 4 -10z m-78 -32 c-7 -7 -12 -8 -12 -2 0 14 12 26 19 19 2 -3 -1 -11
-7 -17z m72 4 c6 -10 -8 -34 -20 -33 -5 1 -9 -3 -9 -8 0 -15 -13 -23 -19 -12
-3 5 5 18 19 29 17 14 21 22 13 25 -9 4 -9 6 -1 6 6 1 14 -3 17 -7z m-327 -64
c-3 -8 -6 -5 -6 6 -1 11 2 17 5 13 3 -3 4 -12 1 -19z m23 -3 c0 -17 -5 -25
-17 -24 -11 0 -13 3 -5 6 6 2 12 13 12 24 0 10 2 19 5 19 3 0 5 -11 5 -25z
m107 18 c-20 -2 -52 -2 -70 0 -17 2 0 4 38 4 39 0 53 -2 32 -4z m-117 -88 c0
-8 -2 -15 -4 -15 -2 0 -6 7 -10 15 -3 8 -1 15 4 15 6 0 10 -7 10 -15z m-3
-137 c-2 -24 -4 -7 -4 37 0 44 2 63 4 43 2 -21 2 -57 0 -80z"/>
<path d="M2065 920 c-47 -22 -90 -64 -80 -79 8 -14 26 -14 23 0 -2 6 3 14 10
16 6 3 12 0 12 -7 0 -6 -4 -9 -8 -6 -12 7 -11 -28 1 -35 5 -4 5 -9 -2 -13 -6
-4 -14 0 -17 8 -8 21 -30 20 -38 0 -4 -9 -9 -14 -13 -11 -3 4 0 13 7 22 7 9
10 18 7 22 -4 3 -15 -13 -26 -36 -18 -41 -18 -81 0 -81 5 0 9 -7 9 -16 0 -11
5 -14 16 -10 9 4 23 1 30 -5 11 -9 14 -6 14 15 0 30 34 111 50 121 6 4 7 11 4
17 -5 7 -2 9 8 5 9 -3 24 1 35 8 10 8 31 15 47 15 40 0 30 6 -22 13 -27 3 -40
2 -36 -5 4 -6 1 -9 -5 -7 -7 3 -12 8 -11 13 1 5 -4 13 -12 17 -9 6 -3 10 20
15 17 4 32 10 32 15 0 13 -10 11 -55 -11z m-15 -35 c-10 -12 -9 -15 6 -15 15
0 16 -2 5 -9 -8 -5 -10 -14 -6 -21 5 -9 4 -11 -3 -6 -7 4 -12 1 -12 -9 0 -9
-5 -13 -11 -9 -8 4 -8 9 0 17 20 20 13 40 -11 34 -22 -6 -22 -6 2 13 30 23 48
26 30 5z m-68 -136 c-2 -22 -6 -39 -7 -37 -7 7 -13 67 -7 72 13 14 17 3 14
-35z m19 4 c-8 -15 -10 -15 -11 -2 0 17 10 32 18 25 2 -3 -1 -13 -7 -23z"/>
<path d="M2105 911 l-30 -7 34 -7 c18 -4 49 -7 68 -7 18 0 49 -7 69 -15 19 -8
42 -11 51 -8 10 4 14 2 10 -4 -8 -12 12 -22 31 -16 8 3 3 12 -14 25 -21 17
-28 19 -35 7 -6 -10 -11 -11 -16 -3 -12 17 -81 34 -117 28 -25 -3 -27 -3 -11
5 23 11 5 12 -40 2z"/>
<path d="M2929 888 c-11 -20 -13 -20 -24 -5 -11 15 -13 16 -19 2 -3 -8 -16
-15 -28 -15 -17 0 -20 -2 -9 -9 8 -5 21 -7 29 -3 11 4 13 1 8 -9 -4 -8 -1 -6
7 4 11 13 17 15 22 6 8 -12 27 12 31 39 3 18 -4 15 -17 -10z"/>
<path d="M4735 890 c-3 -5 -1 -10 4 -10 6 0 11 5 11 10 0 6 -2 10 -4 10 -3 0
-8 -4 -11 -10z"/>
<path d="M3831 874 c0 -11 3 -14 6 -6 3 7 2 16 -1 19 -3 4 -6 -2 -5 -13z"/>
<path d="M2931 841 c-17 -21 -31 -45 -31 -52 1 -9 6 -7 16 6 8 11 19 19 22 18
12 -3 42 56 32 62 -4 3 -22 -12 -39 -34z"/>
<path d="M2897 836 c-4 -10 -1 -13 9 -9 7 3 14 9 14 14 0 14 -17 10 -23 -5z"/>
<path d="M1375 789 c-4 -6 -5 -12 -2 -15 2 -3 7 2 10 11 7 17 1 20 -8 4z"/>
<path d="M3137 751 c-4 -17 -3 -21 5 -13 5 5 8 16 6 23 -3 8 -7 3 -11 -10z"/>
<path d="M2991 724 c0 -11 3 -14 6 -6 3 7 2 16 -1 19 -3 4 -6 -2 -5 -13z"/>
<path d="M738 719 c-10 -5 -15 -16 -11 -25 4 -12 8 -11 20 6 18 25 14 32 -9
19z"/>
<path d="M1911 687 c-1 -32 3 -46 10 -42 6 4 8 14 5 22 -4 9 -1 23 6 31 9 11
9 13 1 9 -7 -4 -13 0 -16 10 -3 10 -5 -4 -6 -30z"/>
<path d="M326 705 c-3 -9 0 -15 9 -15 16 0 20 16 6 24 -5 3 -11 -1 -15 -9z"/>
<path d="M1930 681 c0 -5 5 -11 12 -13 8 -3 5 -12 -10 -28 -16 -17 -19 -27
-12 -41 6 -10 7 -26 4 -36 -5 -15 -4 -15 5 -3 5 8 13 11 17 7 4 -3 2 -12 -4
-20 -8 -10 -6 -20 7 -41 10 -15 21 -23 25 -18 3 5 -1 15 -9 22 -17 14 -20 40
-4 40 5 0 8 -4 4 -9 -3 -5 -1 -12 5 -16 5 -3 10 -1 10 4 0 6 5 11 11 11 8 0 9
-4 0 -13 -6 -8 -8 -16 -5 -20 3 -3 1 -13 -4 -23 -8 -14 -3 -23 19 -42 16 -13
35 -25 41 -26 7 -1 20 -6 28 -11 13 -8 13 -6 2 8 -8 9 -17 16 -20 15 -22 -2
-31 4 -25 19 5 13 2 15 -11 10 -9 -4 -15 -3 -11 2 3 5 -1 12 -7 15 -7 3 -2 3
12 0 25 -7 25 -6 7 14 -11 11 -16 26 -12 31 10 17 -4 51 -18 45 -7 -2 -24 7
-37 21 -18 19 -20 25 -8 25 9 0 19 -7 22 -16 3 -9 12 -14 20 -11 16 6 42 -45
32 -62 -4 -5 -1 -13 5 -17 7 -4 9 -3 5 4 -3 6 -2 13 3 16 5 4 3 19 -6 37 -9
17 -15 42 -15 55 0 19 -3 22 -14 13 -8 -6 -11 -15 -8 -20 3 -5 0 -9 -5 -9 -6
0 -11 7 -11 16 0 11 -6 14 -22 8 -19 -6 -19 -4 6 21 15 15 30 24 34 21 3 -4 0
-11 -8 -16 -8 -5 -11 -12 -7 -17 5 -4 12 -1 17 7 12 19 12 22 0 40 -9 13 -11
13 -21 0 -8 -11 -12 -12 -16 -2 -5 14 -23 16 -23 3z"/>
<path d="M2280 670 l-45 -6 45 -5 c36 -5 32 -6 -25 -6 -48 -1 -62 1 -45 7 l25
8 -27 1 c-26 1 -28 -2 -27 -36 0 -21 3 -32 6 -25 2 6 9 12 14 12 6 0 7 -4 4
-10 -3 -6 4 -10 17 -10 18 0 20 2 8 10 -11 7 0 10 40 12 l55 2 -65 6 c-55 6
-48 7 42 6 l108 -1 -2 -37 c-1 -20 -5 -35 -10 -32 -4 3 -5 16 -2 30 4 14 2 24
-4 24 -6 0 -13 -8 -15 -17 -4 -15 -5 -15 -6 -2 -1 13 -9 15 -38 12 -50 -5 -55
-13 -9 -13 l37 0 -5 -37 c-3 -21 -3 -30 0 -20 7 21 34 23 34 1 0 -8 -4 -12
-10 -9 -5 3 -10 -1 -10 -10 0 -9 -4 -13 -10 -10 -9 5 -15 -15 -11 -37 0 -5 -7
-8 -16 -8 -24 0 -83 -23 -83 -32 0 -4 11 -3 25 2 16 6 25 6 25 0 0 -6 7 -10
16 -10 13 0 14 3 5 14 -9 11 -6 13 16 12 24 -1 28 3 26 24 -2 23 -2 23 6 5 9
-18 10 -17 10 7 1 15 6 30 12 34 8 4 9 -1 4 -16 -5 -15 -4 -20 4 -16 17 11 13
-3 -9 -26 -11 -12 -17 -24 -14 -27 3 -3 11 2 18 12 7 9 18 17 25 17 13 0 14
12 2 26 -5 5 -12 20 -16 34 -5 19 -4 21 4 10 9 -12 11 -12 17 3 3 9 4 35 2 57
-2 22 0 40 4 40 12 0 10 -98 -2 -105 -6 -4 -6 -15 0 -31 9 -22 6 -30 -19 -53
-25 -23 -31 -25 -47 -14 -10 7 -23 13 -28 13 -6 0 -5 -4 3 -9 7 -5 9 -11 5
-13 -5 -3 -4 -3 3 -2 7 2 15 -1 18 -6 4 -6 0 -11 -7 -11 -18 -2 -21 -1 -40 6
-10 4 -18 3 -18 -3 0 -18 49 -19 77 -2 58 36 69 58 72 148 3 120 1 122 -67
120 -31 0 -77 -4 -102 -8z m140 -10 c0 -5 -8 -10 -17 -10 -15 0 -16 2 -3 10
19 12 20 12 20 0z"/>
<path d="M2745 610 c-3 -5 -1 -10 4 -10 6 0 11 5 11 10 0 6 -2 10 -4 10 -3 0
-8 -4 -11 -10z"/>
<path d="M2770 590 c0 -5 5 -10 10 -10 6 0 10 5 10 10 0 6 -4 10 -10 10 -5 0
-10 -4 -10 -10z"/>
<path d="M2833 593 c-17 -6 -17 -20 0 -26 8 -3 13 3 13 14 0 11 0 19 -1 18 0
0 -6 -3 -12 -6z"/>
<path d="M4210 584 c0 -10 5 -26 10 -34 8 -11 9 -7 4 15 -8 37 -14 45 -14 19z"/>
<path d="M4260 581 c-5 -11 -10 -27 -10 -35 0 -9 -4 -16 -10 -16 -5 0 -10 -8
-10 -17 1 -17 1 -17 14 0 11 14 15 15 20 5 3 -7 3 -2 0 11 -4 16 -3 21 5 17 7
-5 11 4 11 23 0 36 -5 39 -20 12z"/>
<path d="M314 558 c-9 -14 -2 -16 26 -8 25 6 25 6 3 12 -13 3 -26 2 -29 -4z"/>
<path d="M3150 544 c0 -8 5 -12 10 -9 6 4 8 11 5 16 -9 14 -15 11 -15 -7z"/>
<path d="M2045 510 c-12 -19 -14 -51 -3 -44 6 4 9 1 6 -7 -3 -8 6 -22 19 -32
13 -10 23 -24 23 -32 0 -16 37 -26 67 -19 14 4 23 2 23 -5 0 -6 14 -11 30 -11
20 0 30 5 30 15 0 10 9 15 28 14 24 0 25 -1 7 -10 -17 -8 -17 -9 5 -4 14 2 30
5 35 5 24 1 -23 20 -50 20 l-30 1 30 14 30 13 -32 -1 c-20 -1 -33 -7 -33 -16
0 -7 -6 -11 -15 -8 -8 4 -17 2 -20 -3 -4 -6 4 -10 16 -10 17 0 20 -3 12 -11
-15 -15 -102 39 -103 62 0 17 -48 55 -57 46 -3 -3 7 -11 21 -19 19 -10 23 -17
16 -28 -8 -13 -10 -12 -10 4 0 15 -3 16 -15 6 -13 -11 -14 -10 -10 3 4 8 1 18
-5 22 -8 5 -8 10 0 20 7 8 7 15 1 19 -5 4 -12 2 -16 -4z m105 -120 c0 -5 -5
-10 -11 -10 -5 0 -7 5 -4 10 3 6 8 10 11 10 2 0 4 -4 4 -10z"/>
<path d="M3512 446 c7 -8 15 -12 17 -11 5 6 -10 25 -20 25 -5 0 -4 -6 3 -14z"/>
<path d="M3875 450 c-3 -5 -2 -10 4 -10 5 0 13 5 16 10 3 6 2 10 -4 10 -5 0
-13 -4 -16 -10z"/>
<path d="M4095 450 c-8 -13 -1 -24 14 -19 6 3 7 10 2 18 -6 10 -10 10 -16 1z"/>
<path d="M580 439 c0 -5 5 -7 10 -4 6 3 10 8 10 11 0 2 -4 4 -10 4 -5 0 -10
-5 -10 -11z"/>
<path d="M2132 438 c3 -7 16 -17 30 -22 20 -7 32 -5 53 12 l28 22 -44 -1 c-34
0 -39 -2 -24 -9 16 -7 17 -9 3 -9 -9 -1 -20 4 -23 9 -9 14 -27 12 -23 -2z"/>
<path d="M3271 396 c-9 -11 -6 -15 16 -19 15 -3 35 -1 44 3 9 5 27 6 40 3 l24
-7 -25 -8 c-17 -5 -12 -6 15 -2 37 5 69 9 103 13 7 0 10 6 6 12 -3 6 -15 9
-25 6 -11 -3 -17 -1 -13 4 9 16 -8 10 -21 -7 -11 -15 -17 -15 -76 0 -79 19
-74 19 -88 2z"/>
<path d="M2980 386 c0 -9 5 -16 10 -16 6 0 10 4 10 9 0 6 -4 13 -10 16 -5 3
-10 -1 -10 -9z"/>
</g>
</svg>
