<?xml version="1.0" standalone="no"?>
<!DOCTYPE svg PUBLIC "-//W3C//DTD SVG 20010904//EN"
 "http://www.w3.org/TR/2001/REC-SVG-20010904/DTD/svg10.dtd">
<svg version="1.0" xmlns="http://www.w3.org/2000/svg"
 width="1000.000000pt" height="1000.000000pt" viewBox="0 0 1000.000000 1000.000000"
 preserveAspectRatio="xMidYMid meet">

<g transform="translate(0.000000,1000.000000) scale(0.100000,-0.100000)"
fill="#000000" stroke="none">
<path d="M3545 5679 c1 -11 6 -24 13 -28 15 -9 2 -27 -23 -34 -14 -3 -10 -5
11 -6 31 -1 51 20 38 40 -3 5 5 9 18 9 18 0 20 -2 8 -10 -10 -6 -11 -10 -2
-10 18 0 15 -18 -5 -24 -10 -3 0 -3 22 0 25 3 35 1 27 -4 -11 -7 -10 -10 3
-15 10 -5 14 -3 9 4 -4 7 -1 10 7 7 8 -3 13 -11 12 -17 -4 -15 12 -14 26 2 9
11 3 16 -29 26 -21 6 -42 16 -45 21 -9 15 12 12 45 -5 16 -8 35 -13 42 -10 9
4 13 -6 14 -35 1 -22 -2 -37 -8 -34 -5 3 -6 15 -3 27 6 21 6 22 -9 3 -9 -11
-12 -22 -7 -25 14 -9 51 -84 51 -103 0 -10 9 -22 20 -28 25 -14 26 -46 1 -59
-10 -6 -21 -25 -25 -43 -3 -18 -8 -40 -10 -48 -3 -8 -5 -19 -5 -24 -1 -5 -4
-7 -7 -3 -3 3 -16 -6 -28 -20 -12 -14 -44 -31 -71 -39 l-50 -14 45 6 c25 3 53
5 63 5 11 0 17 5 14 12 -6 17 20 40 29 26 3 -6 1 -15 -7 -20 -11 -6 -9 -12 6
-29 l19 -21 38 42 c21 23 38 45 38 50 0 5 0 11 0 14 0 3 7 19 15 35 17 32 17
80 0 93 -7 5 -7 10 0 15 6 4 11 21 13 37 2 23 0 26 -8 15 -7 -11 -10 -5 -10
26 0 45 -20 64 -40 38 -12 -13 -4 -19 21 -16 4 1 2 -10 -5 -23 l-11 -25 -15
34 c-8 18 -21 31 -27 29 -15 -5 -18 23 -4 32 6 3 14 -2 19 -12 8 -14 13 -15
24 -5 8 6 18 8 23 4 4 -4 3 2 -3 13 -19 38 -86 90 -114 90 -15 -1 -24 3 -21 8
3 4 11 6 19 3 22 -8 17 2 -7 15 -13 7 -19 7 -15 1 11 -19 -9 -21 -50 -7 -21 8
-32 15 -24 15 21 2 -19 18 -46 19 -15 1 -20 -5 -19 -20z m238 -100 c4 -15 2
-18 -7 -10 -7 6 -16 8 -19 4 -4 -3 -7 6 -7 22 0 22 3 25 14 16 8 -6 16 -21 19
-32z m37 -154 c0 -5 4 -4 9 4 6 10 9 3 8 -22 0 -20 -5 -33 -11 -30 -5 4 -7 -1
-3 -11 5 -12 3 -16 -5 -14 -8 3 -12 19 -10 41 3 27 -1 39 -12 43 -9 3 -16 10
-16 15 0 5 9 4 20 -3 11 -7 20 -17 20 -23z m27 -87 c-3 -8 -6 -5 -6 6 -1 11 2
17 5 13 3 -3 4 -12 1 -19z m-26 -72 c7 4 7 -1 0 -15 -13 -24 -26 -29 -18 -6 4
8 2 17 -2 20 -13 7 -21 -19 -11 -35 12 -19 3 -30 -17 -23 -10 4 -14 2 -9 -5 9
-15 -7 -23 -24 -12 -12 7 -12 10 3 16 13 5 15 10 7 20 -8 9 -8 19 -1 32 6 11
7 23 3 27 -4 5 -2 5 4 2 7 -4 15 1 19 11 6 15 9 13 21 -11 8 -15 20 -25 25
-21z"/>
<path d="M3775 5269 c-4 -6 -5 -12 -2 -15 2 -3 7 2 10 11 7 17 1 20 -8 4z"/>
<path d="M3756 5235 c3 -7 12 -16 19 -19 9 -3 12 0 9 9 -3 7 -12 16 -19 19 -9
3 -12 0 -9 -9z"/>
<path d="M4877 5692 c-17 -2 -25 -8 -21 -14 5 -8 1 -9 -11 -4 -11 4 -30 -2
-51 -16 -31 -21 -50 -49 -21 -32 8 5 8 2 -2 -9 -15 -18 -26 -23 -16 -7 3 6 2
10 -3 10 -15 0 -40 -64 -32 -85 4 -11 4 -22 0 -25 -3 -3 -3 -16 1 -30 6 -23 7
-23 8 -3 1 12 5 24 9 27 4 2 6 -10 4 -27 -3 -27 3 -37 34 -61 21 -16 34 -24
29 -16 -5 8 -3 11 6 8 8 -3 13 -11 11 -18 -2 -8 5 -9 19 -5 16 5 19 4 14 -6
-6 -9 -3 -11 10 -6 9 4 24 2 31 -4 8 -6 14 -8 14 -4 0 4 7 2 15 -5 9 -7 18
-10 21 -7 4 3 23 -2 44 -13 21 -11 41 -16 45 -12 5 4 5 2 2 -5 -4 -6 -2 -17 5
-25 21 -23 20 -39 -7 -74 -19 -25 -34 -34 -56 -34 -16 0 -29 -4 -29 -8 0 -4
17 -7 38 -6 l37 3 -35 -8 c-23 -4 -57 -1 -97 10 -35 9 -63 14 -63 11 0 -2 -15
7 -34 21 -26 20 -36 23 -46 14 -10 -10 -12 -8 -7 6 9 25 1 21 -23 -13 -18 -25
-19 -34 -10 -45 7 -8 16 -13 20 -10 4 3 10 -2 14 -10 3 -8 15 -15 27 -15 21 0
21 0 -2 21 l-24 20 27 -16 c15 -9 25 -22 22 -29 -9 -24 107 -39 190 -25 53 9
66 14 51 20 -19 7 -19 8 3 8 13 1 20 5 17 11 -4 6 -11 7 -17 4 -7 -5 -8 -2 -4
5 6 9 12 9 25 -3 16 -15 20 -13 49 27 26 37 31 52 30 96 -1 43 -6 56 -26 72
-14 11 -19 19 -11 19 8 0 4 7 -9 16 -12 8 -27 12 -32 9 -6 -4 -9 -1 -8 5 4 15
-84 50 -132 53 -21 1 -36 4 -34 6 7 8 -57 31 -67 25 -5 -3 -8 0 -7 8 2 7 -2
12 -8 11 -14 -3 -2 60 15 81 6 7 8 16 4 20 -4 4 0 4 10 0 10 -3 17 -1 17 5 0
6 -5 11 -12 11 -6 0 -9 2 -6 5 3 3 18 1 33 -5 23 -9 26 -8 17 3 -9 11 -6 13
18 9 17 -2 30 -8 30 -13 0 -5 8 -9 18 -9 14 0 15 2 2 10 -8 5 -10 10 -4 10 5
0 16 -6 22 -12 10 -10 15 -10 23 2 9 13 10 12 5 -2 -4 -13 2 -20 19 -24 13 -3
29 -12 36 -20 15 -18 36 -18 36 1 0 11 -4 12 -13 4 -8 -6 -14 -6 -18 0 -4 5
-2 12 4 16 5 3 10 3 10 -2 0 -4 5 -1 10 7 7 11 10 12 10 2 0 -18 25 -9 25 9 1
42 -149 93 -238 81z m163 -48 c0 -2 -7 -4 -15 -4 -8 0 -15 4 -15 10 0 5 7 7
15 4 8 -4 15 -8 15 -10z m-230 2 c0 -3 -4 -8 -10 -11 -5 -3 -10 -1 -10 4 0 6
5 11 10 11 6 0 10 -2 10 -4z m30 -171 c0 -2 -10 -9 -22 -15 -22 -11 -22 -10
-4 4 21 17 26 19 26 11z m20 -15 c0 -5 -5 -10 -11 -10 -5 0 -7 5 -4 10 3 6 8
10 11 10 2 0 4 -4 4 -10z m-56 -28 c3 -5 -1 -9 -9 -9 -8 0 -12 4 -9 9 3 4 7 8
9 8 2 0 6 -4 9 -8z m189 -59 c-7 -2 -19 -2 -25 0 -7 3 -2 5 12 5 14 0 19 -2
13 -5z m42 -23 c-3 -5 -12 -10 -18 -10 -7 0 -6 4 3 10 19 12 23 12 15 0z m90
-119 c-3 -12 -10 -21 -15 -21 -4 0 -3 11 3 24 14 29 22 27 12 -3z m-70 -30
c-3 -6 -11 -11 -16 -11 -5 0 -4 6 3 14 14 16 24 13 13 -3z m35 -25 c-7 -7 -13
-7 -20 0 -6 6 -3 10 10 10 13 0 16 -4 10 -10z m-223 -2 c-3 -3 -12 -4 -19 -1
-8 3 -5 6 6 6 11 1 17 -2 13 -5z m18 -24 c-3 -5 -12 -10 -18 -10 -7 0 -6 4 3
10 19 12 23 12 15 0z"/>
<path d="M8150 5690 c-13 -8 -12 -10 5 -11 11 0 14 -3 7 -6 -7 -3 -18 0 -26 6
-36 30 -206 -72 -206 -124 0 -7 -7 -16 -16 -19 -9 -4 -14 -9 -11 -13 3 -3 0
-21 -8 -40 -33 -78 -7 -206 56 -277 33 -37 38 -39 55 -26 15 11 17 11 7 0 -18
-20 -16 -25 13 -38 19 -9 24 -9 18 -1 -4 8 -3 9 5 5 6 -4 18 -2 26 4 8 7 20
10 27 7 8 -3 6 -6 -5 -6 -11 -1 -15 -6 -11 -13 4 -6 3 -8 -4 -4 -6 3 -13 2
-17 -4 -8 -12 37 -23 75 -18 16 2 27 1 24 -4 -3 -4 4 -8 16 -8 14 0 19 4 14
13 -6 9 -5 9 7 0 19 -15 80 -1 120 28 14 10 30 15 34 11 5 -4 5 -1 1 6 -6 11
-11 11 -24 0 -15 -12 -16 -11 -3 4 7 10 17 15 22 12 5 -3 22 3 39 13 29 17 30
19 30 95 0 45 -5 80 -11 84 -8 5 -8 9 1 14 7 4 9 13 6 19 -5 7 -52 11 -134 11
l-127 0 -2 -32 c0 -18 4 -36 11 -40 18 -12 101 -9 113 3 19 19 43 -14 43 -59
0 -59 -7 -69 -55 -83 -38 -11 -41 -14 -27 -26 14 -10 10 -10 -21 -2 -22 6 -45
8 -53 5 -8 -3 -14 -1 -14 4 0 6 -7 10 -15 10 -8 0 -15 -4 -15 -10 0 -5 -5 -10
-11 -10 -6 0 -8 7 -5 16 5 12 2 15 -10 10 -8 -3 -18 -6 -20 -6 -3 0 -3 -4 0
-8 2 -4 -4 -8 -15 -8 -19 0 -19 1 0 16 21 15 20 15 -8 35 -17 10 -34 30 -40
42 -7 15 -16 21 -28 17 -14 -5 -15 -4 -4 4 9 6 11 17 6 28 -4 11 -8 57 -10
104 -1 47 0 79 2 72 3 -9 10 -3 19 14 8 15 12 34 9 42 -5 13 -3 13 12 1 11 -9
14 -10 9 -1 -4 6 -2 12 4 12 6 0 24 10 41 22 18 13 52 25 87 29 67 7 131 1
110 -12 -10 -7 -9 -9 4 -9 10 0 26 -10 38 -22 19 -21 21 -21 56 -4 l37 17 -24
26 c-31 33 -97 75 -109 68 -4 -3 -10 -1 -12 4 -5 13 -91 22 -108 11z m-85 -40
c3 -5 -1 -10 -10 -10 -9 0 -13 5 -10 10 3 6 8 10 10 10 2 0 7 -4 10 -10z m42
-6 c-3 -3 -12 -4 -19 -1 -8 3 -5 6 6 6 11 1 17 -2 13 -5z m218 -4 c3 -5 1 -10
-4 -10 -6 0 -11 5 -11 10 0 6 2 10 4 10 3 0 8 -4 11 -10z m-318 -30 c2 -20 -8
-26 -20 -13 -4 3 -2 12 4 20 15 17 14 17 16 -7z m130 14 c-3 -3 -12 -4 -19 -1
-8 3 -5 6 6 6 11 1 17 -2 13 -5z m233 -32 c0 -8 -1 -13 -3 -11 -1 2 -9 12 -16
22 -12 15 -12 17 3 11 9 -3 16 -13 16 -22z m-306 9 c3 -5 -1 -14 -8 -20 -10
-9 -16 -9 -21 -1 -4 6 -1 9 7 8 7 -2 12 3 11 10 -3 14 3 16 11 3z m274 -27
c-3 -14 -5 -12 -10 9 -3 19 -2 25 4 19 6 -6 8 -18 6 -28z m-371 -8 c-7 -14
-16 -21 -21 -16 -5 5 -2 15 5 24 21 23 29 19 16 -8z m-60 -178 c-3 -8 -6 -5
-6 6 -1 11 2 17 5 13 3 -3 4 -12 1 -19z m36 -36 c-3 -7 -9 -10 -12 -5 -3 4
-10 11 -15 15 -4 4 1 6 12 5 12 -1 18 -6 15 -15z m7 -113 c0 -6 -4 -7 -10 -4
-5 3 -10 11 -10 16 0 6 5 7 10 4 6 -3 10 -11 10 -16z m21 -32 c-10 -9 -11 -8
-5 6 3 10 9 15 12 12 3 -3 0 -11 -7 -18z m262 -64 c-7 -2 -21 -2 -30 0 -10 3
-4 5 12 5 17 0 24 -2 18 -5z"/>
<path d="M2767 5683 c-4 -3 -7 -24 -7 -45 0 -56 28 -52 33 5 l4 42 1 -42 2
-43 65 0 65 0 0 -243 0 -243 48 0 47 1 0 242 0 243 88 0 87 0 0 45 0 45 -213
0 c-118 0 -217 -3 -220 -7z m10 -45 c-3 -8 -6 -5 -6 6 -1 11 2 17 5 13 3 -3 4
-12 1 -19z m183 -4 c0 -11 5 -14 18 -9 13 5 14 3 5 -6 -9 -9 -16 -8 -32 3 -12
8 -18 18 -14 21 11 12 23 7 23 -9z m29 -265 c1 -75 -2 -158 -6 -185 -6 -47 -7
-48 -15 -19 -4 18 -4 31 2 33 6 2 10 68 10 163 0 88 -3 158 -7 156 -5 -3 -6
16 -4 41 l5 47 7 -50 c4 -27 8 -111 8 -186z m-30 214 c0 -5 -4 -17 -9 -28 -8
-18 -9 -17 -9 8 -1 15 4 27 9 27 6 0 10 -3 9 -7z m-12 -355 c-1 -57 -3 -11 -3
102 0 113 2 159 3 103 2 -57 2 -149 0 -205z m71 131 l-3 -154 -5 162 c-3 89
-2 159 3 154 4 -4 6 -77 5 -162z m-11 -216 c-3 -10 -5 -4 -5 12 0 17 2 24 5
18 2 -7 2 -21 0 -30z"/>
<path d="M3450 5673 c-42 -18 -100 -60 -100 -73 0 -5 -12 -21 -26 -35 -14 -14
-23 -32 -20 -40 2 -7 0 -15 -7 -18 -8 -2 -12 -36 -14 -103 0 -54 1 -87 4 -71
2 15 11 27 19 27 8 0 14 7 14 16 0 8 -4 12 -10 9 -6 -4 -10 5 -10 19 0 38 17
32 24 -9 4 -19 11 -35 16 -35 6 0 9 -17 9 -37 -2 -34 -2 -35 -6 -8 -8 52 -18
47 -17 -8 1 -31 7 -53 15 -56 8 -2 10 2 6 12 -3 9 1 18 9 21 11 4 13 13 9 27
-4 12 -3 19 1 16 5 -3 9 26 9 63 0 37 -3 63 -7 57 -5 -8 -8 -6 -8 6 0 9 5 17
11 17 7 0 10 12 7 30 -4 28 6 42 14 19 2 -6 12 4 22 23 11 21 33 39 58 50 29
13 39 22 34 33 -4 12 0 14 19 9 15 -4 25 -2 25 5 0 6 -6 11 -14 11 -8 0 -13 8
-12 17 1 23 -29 26 -74 6z m65 -3 c3 -5 -3 -15 -14 -22 -15 -9 -17 -15 -9 -25
7 -9 7 -13 -1 -13 -6 0 -11 5 -11 10 0 6 -5 10 -11 10 -6 0 -9 -7 -6 -15 4 -8
2 -17 -2 -20 -5 -3 -12 2 -15 11 -3 8 -10 12 -16 9 -6 -4 -8 -10 -5 -15 3 -5
-6 -7 -20 -4 -23 4 -24 3 -13 -15 9 -15 14 -17 20 -8 9 14 10 5 2 -17 -3 -9
-17 -16 -30 -16 -18 0 -24 5 -24 22 0 21 0 21 16 2 15 -19 16 -19 9 1 -16 47
-15 56 5 45 13 -7 21 -5 31 7 12 14 11 15 -10 8 -20 -6 -22 -5 -11 7 8 8 23
14 34 15 12 1 15 -1 8 -4 -6 -3 -10 -9 -7 -14 3 -5 14 -3 25 3 14 9 16 16 8
25 -13 17 4 17 21 1 11 -11 13 -10 8 5 -7 18 7 24 18 7z m-165 -175 c-6 -30
-8 -33 -9 -13 0 14 -4 34 -8 44 -4 11 -3 15 4 11 7 -5 10 1 7 15 -4 21 -4 22
5 3 5 -11 5 -38 1 -60z m-22 13 c1 -29 5 -62 8 -73 6 -18 4 -17 -15 4 -12 14
-21 18 -21 11 0 -7 -3 -11 -6 -7 -3 3 -3 15 1 28 6 17 9 19 17 8 7 -10 8 -4 5
21 -4 30 0 60 7 60 1 0 3 -24 4 -52z"/>
<path d="M3635 5680 c3 -5 14 -10 23 -10 15 0 15 2 2 10 -20 13 -33 13 -25 0z"/>
<path d="M3977 5683 c-4 -3 -7 -134 -7 -290 0 -269 1 -283 19 -283 15 0 19 11
25 70 3 39 4 87 2 108 -2 20 -1 27 1 14 2 -12 8 -20 12 -18 4 3 4 -18 0 -47
-14 -96 -11 -126 10 -124 17 1 20 12 25 97 8 133 8 134 -9 120 -11 -9 -16 -7
-24 8 -6 11 -7 23 -3 27 4 5 -1 5 -11 2 -12 -5 -17 -3 -15 5 7 21 26 20 33 -1
3 -12 11 -21 16 -21 6 0 7 6 4 13 -4 6 2 3 12 -9 15 -18 30 -21 103 -23 85 -1
129 9 163 37 9 8 17 11 17 7 0 -21 50 62 56 93 8 40 -2 52 -43 55 -17 1 -30 4
-29 7 1 3 8 17 15 32 8 15 11 34 7 43 -8 21 -27 9 -20 -13 4 -10 3 -13 -3 -6
-4 6 -16 10 -25 8 -10 -1 -18 2 -18 8 0 6 6 8 14 5 8 -3 20 0 26 8 6 8 19 11
28 7 15 -5 15 -4 2 9 -29 29 -67 49 -83 44 -8 -4 -18 -2 -22 4 -7 12 -267 16
-278 4z m13 -204 c0 -106 -2 -195 -5 -197 -3 -3 -5 86 -5 198 0 112 3 201 6
198 3 -3 5 -93 4 -199z m329 172 c17 -11 5 -31 -19 -31 -10 0 -22 -5 -25 -10
-7 -11 19 -43 28 -34 2 3 5 -5 6 -18 1 -13 2 -36 4 -53 1 -16 -4 -38 -12 -48
-22 -27 -4 -33 20 -6 l21 24 -8 -30 -7 -30 22 19 c13 12 21 14 21 7 0 -7 5 -9
11 -5 6 3 3 -5 -6 -20 -20 -30 -27 -34 -18 -8 6 14 4 15 -9 4 -12 -10 -17 -10
-20 -1 -2 7 -16 13 -31 15 -18 2 -25 -1 -21 -8 5 -7 1 -9 -9 -5 -19 7 -67 -11
-67 -25 0 -4 20 -8 45 -8 25 0 45 -4 45 -8 0 -4 -17 -6 -37 -5 -60 6 -84 13
-78 22 7 12 -19 21 -61 21 -21 0 -37 -6 -40 -14 -9 -23 -32 -8 -43 27 -6 18
-12 66 -15 107 l-5 75 13 -93 c13 -88 27 -124 42 -109 4 3 -1 14 -10 23 -10 9
-15 23 -12 31 3 8 7 27 8 41 0 15 4 5 9 -23 6 -39 7 -31 4 38 l-3 87 93 0 c70
0 96 4 105 15 7 8 21 15 31 15 11 0 19 5 19 11 0 14 -52 2 -62 -14 -6 -9 -8
-9 -8 1 0 7 10 17 23 22 29 11 39 12 56 1z m-89 -13 c0 -7 -11 -13 -25 -13
-25 0 -31 6 -18 18 11 12 43 8 43 -5z m-70 -8 c0 -5 -5 -10 -11 -10 -5 0 -7 5
-4 10 3 6 8 10 11 10 2 0 4 -4 4 -10z m-113 -67 c-3 -10 -5 -4 -5 12 0 17 2
24 5 18 2 -7 2 -21 0 -30z m251 -165 c-16 -10 -45 -10 -51 0 -3 4 10 7 29 8
21 0 30 -3 22 -8z m-150 -5 c-10 -2 -26 -2 -35 0 -10 3 -2 5 17 5 19 0 27 -2
18 -5z m182 -13 c0 -5 -7 -7 -15 -4 -8 4 -15 8 -15 10 0 2 7 4 15 4 8 0 15 -4
15 -10z m-165 -6 c13 -6 14 -9 3 -16 -8 -6 6 -8 40 -5 32 2 48 1 40 -4 -17
-11 -77 -10 -103 1 l-20 9 20 2 c11 1 0 5 -25 9 -44 7 -45 7 -8 8 20 1 44 -1
53 -4z m-105 -79 c0 -8 -2 -15 -4 -15 -2 0 -6 7 -10 15 -3 8 -1 15 4 15 6 0
10 -7 10 -15z m-73 -77 c-2 -13 -4 -5 -4 17 -1 22 1 32 4 23 2 -10 2 -28 0
-40z m70 15 c-3 -10 -5 -4 -5 12 0 17 2 24 5 18 2 -7 2 -21 0 -30z m-10 -85
c-2 -13 -4 -5 -4 17 -1 22 1 32 4 23 2 -10 2 -28 0 -40z"/>
<path d="M5217 5683 c-12 -11 -8 -54 6 -66 7 -7 41 -12 84 -12 39 0 74 -3 78
-7 4 -3 6 -81 5 -173 0 -91 2 -199 6 -239 l6 -72 34 0 c33 0 34 1 36 46 0 25
0 134 -2 243 l-2 197 53 2 c30 1 66 1 82 0 20 -2 27 3 27 15 0 15 2 16 10 3 7
-11 10 -4 10 26 0 39 -1 40 -32 37 -47 -4 -322 -3 -347 2 -12 2 -21 -1 -21 -7
0 -7 -4 -7 -13 1 -8 6 -17 8 -20 4z"/>
<path d="M6565 5684 c-5 -1 -32 -5 -58 -9 -43 -6 -47 -9 -41 -27 4 -13 2 -18
-4 -14 -9 5 -22 -31 -24 -61 0 -5 -9 -20 -20 -35 -18 -27 -18 -28 -1 -28 17
-1 17 -1 1 -11 -10 -5 -15 -16 -11 -24 4 -11 1 -13 -11 -9 -11 4 -16 1 -16
-11 0 -10 5 -13 12 -9 7 4 8 3 4 -5 -4 -6 -11 -9 -16 -6 -17 11 -21 -55 -5
-100 6 -16 4 -16 -10 4 l-18 24 -13 -24 c-18 -33 -17 -50 1 -19 l15 25 -6 -30
c-4 -22 -3 -26 5 -15 5 8 14 11 18 6 4 -5 3 -11 -4 -13 -7 -2 -10 -12 -7 -21
5 -15 4 -15 -6 1 -6 9 -18 17 -27 17 -13 0 -13 -3 -3 -16 11 -12 11 -15 -1
-12 -9 2 -13 -5 -12 -20 2 -13 -1 -21 -7 -17 -6 4 -7 -1 -3 -11 4 -12 3 -15
-5 -10 -8 5 -10 2 -6 -8 3 -9 2 -16 -4 -16 -6 0 -15 -14 -21 -30 -6 -18 -6
-28 -1 -25 6 4 10 1 10 -4 0 -12 43 -15 54 -3 4 4 13 7 19 7 7 0 11 8 11 18
-1 9 2 15 6 12 11 -7 21 39 14 62 -4 13 -3 15 4 4 5 -7 11 -9 13 -3 5 12 189
21 189 10 0 -5 9 -8 21 -8 11 0 17 5 14 10 -3 6 1 10 9 10 9 0 16 -5 16 -12 0
-6 6 -4 13 6 8 11 20 16 28 13 11 -4 10 -6 -3 -6 -15 -1 -15 -4 -2 -28 7 -16
14 -34 14 -40 0 -7 4 -13 9 -13 5 0 12 -11 15 -25 6 -23 11 -25 51 -23 25 2
45 5 45 8 -1 16 -35 100 -53 130 -12 19 -20 36 -19 38 2 1 -3 20 -9 43 -8 25
-17 38 -25 35 -18 -7 -29 13 -15 27 9 9 11 7 5 -8 -5 -15 -4 -17 5 -9 14 13 3
47 -12 37 -6 -4 -8 0 -4 10 3 10 4 24 0 33 -5 13 -8 13 -15 2 -7 -9 -8 -4 -4
14 3 15 2 30 -4 33 -5 3 -10 15 -10 26 0 12 -4 17 -11 14 -6 -4 -10 -1 -8 6 3
27 -1 40 -12 33 -8 -4 -9 1 -4 17 7 21 6 22 -9 10 -9 -7 -16 -21 -17 -30 0
-10 -3 -11 -6 -4 -2 7 3 23 11 35 9 12 16 25 16 29 0 12 -35 46 -45 43z m23
-48 c-7 -8 -15 -12 -17 -11 -5 6 10 25 20 25 5 0 4 -6 -3 -14z m-63 -56 c7 12
26 14 24 3 -1 -5 -1 -10 1 -13 1 -3 3 -16 6 -29 2 -13 9 -31 14 -40 8 -12 10
-13 8 -1 -2 8 1 17 6 20 5 3 10 -7 12 -23 1 -15 -2 -25 -7 -22 -12 8 -11 5 2
-35 l12 -33 14 24 14 24 -7 -25 c-4 -14 -9 -31 -12 -39 -4 -10 -1 -12 8 -6 10
6 12 3 8 -13 -4 -12 -2 -22 3 -22 5 0 9 -9 9 -20 0 -11 -7 -20 -15 -20 -9 0
-12 -6 -9 -17 5 -15 4 -16 -5 -3 -12 18 -131 15 -143 -4 -5 -7 -8 -4 -8 7 0
10 -4 16 -9 13 -5 -4 -20 -2 -33 3 -15 7 -18 10 -6 10 11 1 18 14 23 41 4 22
11 40 16 40 4 0 6 7 3 15 -4 8 -1 15 5 15 6 0 10 3 9 8 -1 4 4 18 9 32 31 72
33 81 21 103 -10 19 -9 21 4 9 11 -9 18 -10 23 -2z m-100 -184 c0 -13 -2 -27
-5 -30 -5 -4 -6 43 -1 52 4 8 7 -1 6 -22z m-38 -143 c-3 -10 -5 -2 -5 17 0 19
2 27 5 18 2 -10 2 -26 0 -35z m-66 -46 c-10 -9 -11 -8 -5 6 3 10 9 15 12 12 3
-3 0 -11 -7 -18z m436 -29 c-3 -7 -5 -2 -5 12 0 14 2 19 5 13 2 -7 2 -19 0
-25z m-20 -30 c-3 -7 -5 -2 -5 12 0 14 2 19 5 13 2 -7 2 -19 0 -25z m50 -10
c-3 -8 -6 -5 -6 6 -1 11 2 17 5 13 3 -3 4 -12 1 -19z m-480 -10 c-3 -8 -6 -5
-6 6 -1 11 2 17 5 13 3 -3 4 -12 1 -19z"/>
<path d="M6869 5678 c-3 -31 4 -64 15 -71 6 -4 31 -6 56 -4 25 2 56 1 69 -2
l24 -6 -1 -215 c-1 -118 2 -227 5 -242 6 -30 29 -36 64 -18 18 10 19 24 19
240 0 264 -6 249 97 247 34 -1 64 1 66 3 3 3 8 20 12 37 l7 33 -206 -1 c-113
0 -210 3 -216 6 -5 3 -10 0 -11 -7z"/>
<path d="M7409 5684 c-5 -37 -7 -510 -3 -536 l6 -33 184 -3 c148 -3 184 -1
185 10 1 7 3 23 4 36 1 12 2 23 1 24 0 0 -68 4 -151 7 l-150 6 3 80 c2 43 5
82 8 85 3 3 66 6 140 6 75 1 137 4 140 7 3 3 2 22 -2 42 -4 22 -10 32 -14 25
-4 -7 -10 -8 -13 -3 -4 6 -50 8 -111 5 -153 -7 -151 -8 -151 77 1 39 4 73 7
77 4 3 71 7 150 7 130 2 143 4 146 20 5 27 -7 69 -18 62 -14 -9 -321 -8 -342
0 -10 4 -18 3 -19 -1z m58 -116 c-3 -8 -6 -5 -6 6 -1 11 2 17 5 13 3 -3 4 -12
1 -19z m8 -88 c-3 -5 -12 -10 -18 -10 -7 0 -6 4 3 10 19 12 23 12 15 0z m292
-320 c4 -12 3 -12 -5 -2 -7 10 -39 12 -130 10 -66 -2 -118 1 -115 5 2 4 59 6
125 5 98 -2 122 -6 125 -18z"/>
<path d="M8542 5683 c-14 -3 -20 -9 -15 -16 4 -7 -1 -6 -10 2 -23 18 -33 8
-12 -12 9 -9 15 -20 15 -24 -1 -4 4 -9 11 -12 8 -2 10 2 5 15 -6 15 -5 16 5 7
9 -10 10 -15 0 -27 -9 -11 -9 -16 0 -22 8 -5 9 -3 4 6 -5 8 -4 11 3 6 6 -4 9
-13 6 -20 -3 -7 2 -19 11 -26 8 -7 15 -17 15 -22 0 -5 16 -30 36 -56 24 -32
43 -46 59 -47 13 0 27 -4 32 -9 5 -5 3 -6 -5 -2 -10 6 -11 1 -6 -21 4 -15 6
-85 5 -155 -3 -114 -1 -129 14 -135 12 -4 23 1 33 13 12 16 14 16 9 2 -4 -10
-2 -18 3 -18 6 0 10 5 10 11 0 5 5 7 10 4 6 -4 10 36 10 112 0 86 4 124 14
138 8 11 11 25 9 32 -3 8 0 13 8 11 8 -2 13 5 13 15 -1 10 1 16 4 13 10 -11
32 32 26 51 -4 12 -3 14 3 5 11 -14 23 -3 64 63 14 22 34 53 45 70 10 16 13
26 7 22 -20 -12 -15 4 5 19 15 11 12 12 -17 4 -19 -5 -39 -15 -43 -22 -6 -8
-7 -4 -3 11 10 35 -6 20 -54 -49 -23 -34 -38 -59 -33 -56 5 3 8 -8 8 -23 0
-16 -5 -28 -13 -28 -9 0 -10 4 -1 14 6 7 8 16 4 20 -10 10 -34 -29 -28 -46 4
-10 1 -12 -8 -6 -10 6 -12 4 -7 -9 4 -10 3 -15 -3 -11 -5 3 -15 -3 -22 -15
-22 -34 -28 -30 -84 62 -19 31 -27 34 -20 8 6 -19 5 -21 -3 -10 -6 8 -8 23 -5
33 4 11 0 17 -11 17 -9 0 -14 4 -10 9 6 11 -33 81 -46 81 -5 0 -9 -5 -9 -11 0
-5 5 -7 12 -3 7 4 8 3 4 -4 -4 -6 2 -20 13 -31 19 -19 19 -20 1 -18 -11 1 -17
3 -15 6 3 2 -2 15 -11 28 -11 18 -12 28 -5 37 10 12 5 28 -8 25 -3 -1 -16 -4
-29 -6z m422 -53 c-5 -5 -10 3 -11 18 -1 22 0 24 9 8 6 -10 6 -22 2 -26z m-83
-23 c-10 -9 -11 -8 -5 6 3 10 9 15 12 12 3 -3 0 -11 -7 -18z m55 8 c9 -8 11
-15 6 -15 -5 0 -15 7 -22 15 -7 8 -9 15 -6 15 4 0 14 -7 22 -15z m-46 -36 c0
-5 -5 -7 -11 -3 -8 4 -9 -1 -5 -17 6 -20 5 -21 -4 -6 -11 18 -6 37 11 37 5 0
9 -5 9 -11z m-288 -31 c-8 -8 -9 -4 -5 13 4 13 8 18 11 10 2 -7 -1 -18 -6 -23z
m318 22 c0 -5 -5 -10 -11 -10 -5 0 -7 5 -4 10 3 6 8 10 11 10 2 0 4 -4 4 -10z
m-296 -56 c9 -24 2 -26 -12 -4 -7 11 -8 20 -3 20 5 0 12 -7 15 -16z m133 -296
c-2 -13 -4 -3 -4 22 0 25 2 35 4 23 2 -13 2 -33 0 -45z m20 -5 c-2 -16 -4 -5
-4 22 0 28 2 40 4 28 2 -13 2 -35 0 -50z"/>
<path d="M5756 5672 c-3 -5 -3 -44 -1 -88 5 -87 6 -395 2 -433 -1 -19 5 -26
26 -34 49 -16 61 7 62 115 1 89 2 93 25 99 14 4 35 4 48 2 18 -4 21 -2 16 13
-4 11 4 4 18 -13 14 -18 29 -29 33 -25 5 4 5 -1 2 -10 -4 -11 0 -21 9 -26 9
-5 15 -13 15 -18 0 -5 10 -9 23 -9 13 0 28 -4 33 -9 5 -6 2 -6 -6 -1 -11 6
-13 4 -8 -11 7 -18 7 -18 -7 0 -14 18 -15 18 -13 -3 1 -11 5 -21 9 -21 4 0 7
-3 6 -7 -3 -15 14 -43 23 -37 5 3 6 -2 3 -10 -3 -9 -2 -16 4 -16 6 0 13 6 15
13 3 6 6 2 6 -10 1 -22 21 -34 21 -12 0 5 4 7 10 4 14 -9 50 -15 50 -9 0 9
-71 134 -76 134 -3 0 -2 -5 2 -12 4 -7 3 -8 -4 -4 -7 4 -12 14 -12 22 0 8 -4
14 -10 14 -5 0 -7 6 -5 13 6 17 -26 56 -32 40 -6 -18 -20 -16 -20 2 0 8 8 15
18 15 10 0 20 4 24 10 3 5 12 7 20 3 8 -3 15 -1 15 5 0 5 15 19 34 30 26 15
36 30 45 68 7 28 9 50 3 52 -5 1 -7 13 -5 25 6 29 -14 80 -27 72 -6 -4 -9 -1
-8 7 2 7 -3 12 -11 10 -9 -2 -11 3 -7 13 4 13 2 14 -14 5 -13 -7 -21 -7 -25 0
-4 6 -3 9 2 8 4 -2 8 2 8 7 0 6 -3 9 -7 8 -5 -2 -8 2 -8 7 0 12 -316 14 -324
2z m365 -69 c13 -16 12 -17 -3 -5 -9 8 -23 10 -29 6 -8 -4 -9 -3 -5 4 10 17
21 15 37 -5z m-85 -4 c17 -5 37 -21 45 -35 12 -23 14 -24 20 -7 7 16 8 15 8
-4 1 -13 -4 -23 -9 -23 -7 0 -7 -6 0 -19 5 -11 10 -28 9 -38 0 -16 -1 -16 -9
2 -7 17 -9 17 -9 3 -1 -10 -9 -26 -20 -37 -17 -17 -17 -18 0 -29 11 -7 20 -8
24 -2 3 5 12 7 19 4 8 -3 17 -1 21 5 8 14 28 14 23 0 -2 -6 -6 -9 -10 -7 -3 2
-17 -7 -30 -19 -22 -21 -50 -19 -49 3 0 5 -9 12 -20 16 -10 4 -19 3 -19 -2 0
-5 -7 -6 -17 -3 -10 4 -14 2 -10 -5 5 -7 -3 -8 -27 -1 -42 11 -75 7 -87 -12
-7 -11 -9 -10 -9 5 0 12 -5 16 -15 12 -18 -6 -16 -13 -20 97 -2 82 0 89 19 97
28 12 133 11 172 -1z m-83 -216 c-7 -2 -21 -2 -30 0 -10 3 -4 5 12 5 17 0 24
-2 18 -5z m107 -23 c0 -5 -5 -10 -11 -10 -5 0 -7 5 -4 10 3 6 8 10 11 10 2 0
4 -4 4 -10z m-86 -15 c-4 -10 0 -13 13 -10 12 2 20 -2 20 -11 0 -10 -4 -11
-14 -3 -7 6 -13 8 -13 3 0 -4 -5 -3 -11 3 -6 6 -8 16 -5 22 10 16 16 13 10 -4z
m81 -73 c-18 -16 -18 -16 -6 1 10 12 10 17 2 17 -7 0 -9 5 -5 11 4 8 9 8 17 0
8 -8 6 -16 -8 -29z m58 -69 c-3 -7 -6 -13 -8 -13 -2 0 -5 6 -8 13 -3 8 1 14 8
14 7 0 11 -6 8 -14z"/>
<path d="M6097 5403 c-4 -3 -7 -11 -7 -17 0 -6 5 -5 12 2 6 6 9 14 7 17 -3 3
-9 2 -12 -2z"/>
<path d="M4366 5579 c-7 -37 -3 -45 24 -52 13 -3 20 0 20 9 0 8 -8 14 -17 14
-14 0 -15 2 -4 9 12 7 11 12 -1 30 -15 21 -15 21 -22 -10z"/>
<path d="M8660 5416 c0 -7 6 -19 14 -25 12 -10 14 -9 11 6 -2 10 -4 21 -4 26
-2 13 -21 7 -21 -7z"/>
<path d="M3305 5315 c5 -31 4 -37 -5 -25 -9 12 -11 12 -8 1 3 -8 10 -17 16
-19 15 -5 16 47 1 68 -7 11 -8 4 -4 -25z"/>
<path d="M3370 5283 c-26 -51 -31 -55 -46 -36 -7 10 -13 14 -13 8 0 -16 25
-45 32 -38 4 3 7 1 7 -5 0 -7 8 -20 18 -30 26 -26 87 -68 78 -54 -4 7 -1 12 7
12 8 0 17 -6 20 -14 9 -22 110 -31 161 -15 22 7 46 11 51 10 6 -2 6 1 0 8 -14
14 -87 2 -78 -13 3 -6 2 -7 -3 -3 -5 5 -9 14 -9 20 0 6 -15 15 -32 19 -18 5
-33 13 -33 18 0 14 17 13 22 -1 2 -6 24 -11 48 -12 36 0 40 -1 20 -7 l-25 -8
28 -1 c18 -1 27 4 27 15 0 11 -8 15 -27 13 -16 -1 -39 3 -53 8 -14 6 -42 13
-64 17 -41 8 -94 53 -112 94 l-10 24 -14 -29z m3 -41 c-3 -12 -9 -22 -14 -22
-12 0 -11 7 3 30 15 24 19 21 11 -8z m90 -42 c6 0 2 -6 -8 -14 -11 -8 -26 -12
-35 -9 -11 4 -11 1 3 -10 26 -22 20 -30 -8 -11 -23 15 -24 18 -9 29 13 9 14
16 5 33 -17 32 -13 33 15 7 15 -14 32 -25 37 -25z m-63 3 c0 -7 -7 -13 -16
-13 -11 0 -14 5 -10 16 3 9 6 21 6 27 0 16 20 -14 20 -30z m120 -36 c0 -1 -16
-2 -35 -3 -29 0 -32 1 -17 12 11 8 23 9 34 3 10 -5 18 -11 18 -12z m15 -28
c-5 -6 -55 0 -55 7 0 3 13 3 29 2 16 -1 28 -5 26 -9z m45 -3 c0 -2 -7 -6 -15
-10 -8 -3 -15 -1 -15 4 0 6 7 10 15 10 8 0 15 -2 15 -4z m-73 -12 c-3 -3 -12
-4 -19 -1 -8 3 -5 6 6 6 11 1 17 -2 13 -5z"/>
<path d="M3430 5194 c0 -8 5 -12 10 -9 6 4 8 11 5 16 -9 14 -15 11 -15 -7z"/>
<path d="M1505 5260 c-4 -6 6 -7 27 -3 44 8 48 13 10 13 -17 0 -34 -4 -37 -10z"/>
<path d="M1772 5263 c159 -3 177 -5 171 -20 -5 -12 -3 -14 8 -8 11 6 10 4 -1
-6 -12 -11 -53 -13 -202 -11 -126 2 -188 6 -188 14 0 5 9 8 20 5 11 -3 23 -1
26 4 6 10 -59 12 -93 3 -12 -3 -30 -18 -39 -32 -15 -23 -15 -24 0 -19 23 9 40
-27 26 -54 -11 -20 -12 -20 -29 -2 -10 10 -16 25 -14 33 4 13 3 13 -5 1 -7
-10 -7 -21 0 -35 10 -19 9 -19 -5 -8 -14 12 -18 9 -32 -18 -9 -17 -13 -39 -10
-50 8 -26 -5 -70 -21 -70 -17 0 -18 17 -1 23 6 2 9 8 5 12 -11 12 -38 -14 -31
-31 3 -8 0 -14 -6 -12 -6 2 -20 -11 -31 -28 -15 -24 -17 -31 -6 -31 8 0 18 12
21 26 5 18 9 21 14 12 6 -9 11 -10 15 -2 4 6 14 11 23 11 9 0 25 7 35 17 10 9
18 12 18 7 0 -18 -24 -34 -48 -34 -20 0 -22 -3 -13 -14 9 -11 8 -15 -4 -20 -9
-3 -13 -11 -9 -17 5 -8 3 -9 -6 -4 -10 6 -12 4 -6 -11 6 -16 4 -16 -14 4 -17
18 -25 20 -40 12 -27 -14 -25 -20 5 -14 14 2 25 0 25 -5 0 -6 -9 -8 -20 -6
-21 4 -43 -13 -61 -47 -8 -15 -8 -19 0 -14 7 5 9 1 5 -9 -4 -9 -9 -14 -12 -11
-6 7 -29 -23 -70 -92 -35 -57 -39 -71 -18 -53 10 8 16 9 21 1 5 -9 -15 -15
-38 -11 -4 1 -13 -11 -19 -26 -7 -16 -15 -30 -18 -33 -3 -3 -22 -30 -42 -62
-30 -46 -34 -57 -22 -62 9 -3 104 -5 212 -4 l197 3 -187 2 c-110 2 -188 7
-188 13 0 5 6 7 14 4 10 -4 13 4 10 35 -2 22 0 42 4 45 10 6 62 -5 62 -13 0
-11 -33 -10 -46 1 -8 6 -11 -1 -8 -24 1 -18 3 -37 3 -41 1 -4 78 -7 171 -5 94
2 171 0 172 -4 0 -5 1 -13 2 -19 1 -7 -65 -11 -209 -11 -128 0 -196 -3 -175
-8 l35 -8 -35 1 c-22 1 -34 7 -33 15 4 18 -24 15 -31 -4 -3 -9 -6 -17 -6 -19
0 -2 101 -4 224 -5 l224 -1 20 28 c21 30 22 31 23 66 0 18 2 19 7 5 6 -15 9
-14 19 7 6 14 7 25 2 25 -5 0 -9 -5 -9 -12 0 -6 -3 -8 -6 -5 -9 8 16 38 26 32
8 -5 41 39 44 59 1 7 11 22 22 34 36 38 62 97 52 116 -5 9 -13 14 -19 11 -5
-3 -6 1 -3 9 8 20 31 27 38 11 3 -10 0 -12 -12 -8 -15 6 -15 5 -3 -11 14 -16
15 -16 27 6 7 13 11 37 9 53 -5 37 9 66 19 39 4 -9 2 -22 -4 -28 -13 -13 -13
-26 1 -26 5 0 8 4 5 9 -3 5 1 12 10 15 8 3 12 10 9 16 -3 5 -3 10 2 10 4 0 31
-37 58 -81 28 -45 55 -86 60 -92 6 -7 18 -29 28 -50 10 -24 22 -35 29 -31 6 4
8 3 5 -4 -4 -5 -4 -18 0 -29 6 -15 9 -13 14 12 l6 30 12 -29 c7 -17 8 -33 3
-40 -6 -7 -3 -22 8 -40 18 -27 18 -28 29 -8 14 27 14 35 -1 26 -7 -5 -8 -3 -3
5 14 23 28 -5 15 -30 -11 -19 -10 -25 6 -37 16 -12 16 -14 2 -9 -12 4 -15 2
-11 -8 3 -8 10 -12 16 -8 6 4 8 0 4 -10 -3 -9 1 -18 10 -21 9 -4 122 -6 250
-6 l235 1 -16 22 c-9 12 -21 32 -28 45 -6 12 -15 22 -20 22 -5 0 -7 4 -4 9 3
5 -5 20 -18 34 -13 14 -21 29 -17 33 3 4 0 4 -8 -1 -9 -5 -12 -3 -9 6 3 8 1
22 -4 32 -7 15 -12 15 -31 5 -12 -7 -25 -11 -29 -10 -5 1 -7 -1 -7 -6 4 -26
-24 -65 -51 -70 -13 -2 -13 0 1 10 8 7 21 28 27 47 10 28 10 32 -4 27 -8 -3
-12 -2 -9 4 3 6 15 10 26 10 13 0 18 4 13 12 -4 7 -3 8 5 4 6 -4 9 -12 6 -17
-9 -14 5 -11 21 6 14 14 11 19 -8 16 -4 0 -4 7 -1 16 5 12 3 14 -7 8 -9 -5
-11 -4 -6 4 10 15 -13 43 -27 34 -5 -3 -16 2 -22 11 -11 14 -13 15 -19 1 -3
-8 -1 -15 4 -15 6 0 9 -13 8 -30 -3 -37 -15 -39 -28 -4 -7 18 -7 31 0 39 8 9
8 15 0 20 -5 3 -10 11 -10 17 0 7 6 6 15 -2 12 -10 15 -10 15 1 0 12 2 12 9 0
6 -9 11 -10 15 -2 4 6 -3 22 -16 35 -13 13 -24 30 -26 37 -5 20 -22 36 -22 20
0 -7 -5 -9 -10 -6 -7 4 -7 13 0 24 6 12 5 22 -2 29 -18 18 -30 14 -25 -5 3
-10 8 -35 12 -55 3 -21 11 -38 17 -38 5 0 8 7 4 15 -3 8 -1 15 5 15 6 0 9 -10
7 -22 -4 -27 -64 -44 -84 -24 -14 14 -8 62 12 91 17 24 18 39 2 29 -7 -4 -8
-3 -4 5 4 6 11 9 16 6 5 -3 11 -1 15 5 3 5 2 10 -4 10 -5 0 -13 10 -16 23 -11
35 -66 117 -75 112 -5 -3 -12 0 -16 6 -4 8 -3 9 4 5 17 -10 15 10 -3 28 -8 8
-15 17 -15 21 0 4 -18 37 -40 75 l-41 68 -192 -1 -192 -1 177 -3z m-252 -77
c0 -6 -7 -1 -15 10 -8 10 -15 23 -15 28 0 6 7 1 15 -10 8 -10 15 -23 15 -28z
m38 -26 c1 -46 -2 -52 -25 -61 -19 -7 -29 -6 -37 2 -8 9 -8 10 2 5 12 -7 16 4
13 32 -1 6 4 12 10 12 7 0 10 3 6 6 -3 4 1 13 9 22 13 12 13 16 2 23 -10 7 -9
9 4 9 13 0 16 -10 16 -50z m155 43 c-24 -2 -62 -2 -85 0 -24 2 -5 4 42 4 47 0
66 -2 43 -4z m213 -5 c5 -8 -13 -13 -31 -8 -5 2 -30 7 -55 11 -42 7 -41 7 18
6 35 -1 66 -5 68 -9z m-40 -37 c20 16 18 7 -11 -42 -14 -24 -25 -38 -25 -31 0
7 6 21 13 32 10 17 9 22 -2 29 -9 6 -11 15 -6 27 8 17 9 17 13 -4 3 -19 6 -21
18 -11z m-42 -53 c-4 -13 -7 -27 -6 -31 1 -5 -2 -6 -7 -3 -5 4 -12 2 -16 -3
-3 -6 -13 -7 -23 -4 -11 4 -9 0 6 -13 21 -17 22 -22 11 -47 -7 -15 -16 -27
-21 -27 -5 0 -2 13 7 29 8 17 11 32 6 35 -5 4 -11 1 -13 -6 -6 -17 -28 0 -28
22 0 13 8 20 28 22 19 2 26 8 24 21 -2 10 3 17 13 17 8 0 15 5 15 12 0 6 3 9
6 5 3 -3 2 -16 -2 -29z m-408 -41 c1 -28 -1 -43 -4 -32 -2 11 -9 23 -15 27 -8
5 -7 14 1 32 6 14 13 26 14 26 2 0 3 -24 4 -53z m624 -12 c11 -13 10 -14 -4
-9 -9 3 -16 10 -16 15 0 13 6 11 20 -6z m-460 -4 c0 -5 -7 -11 -15 -15 -9 -3
-15 0 -15 9 0 8 7 15 15 15 8 0 15 -4 15 -9z m515 -32 c-3 -4 2 -9 10 -13 9
-3 12 -12 8 -22 -5 -13 -3 -15 7 -9 9 5 11 4 6 -4 -4 -6 -12 -9 -17 -6 -5 4
-9 -2 -9 -13 0 -10 -3 -22 -7 -26 -5 -4 -9 -12 -9 -17 -1 -5 -2 -13 -3 -19 -3
-24 -19 -7 -23 25 -2 19 0 35 4 35 4 0 7 3 6 8 -1 4 3 17 10 29 8 14 9 24 2
28 -5 3 -10 -2 -10 -11 0 -10 -3 -15 -6 -11 -11 10 3 34 20 34 8 0 13 -4 11
-8z m-335 -60 c0 -5 -4 -7 -10 -4 -5 3 -10 -3 -10 -13 0 -22 -28 -38 -43 -23
-5 5 -7 17 -4 27 3 17 5 16 14 -6 l11 -25 11 28 c10 26 31 38 31 16z m220 -69
c0 -5 -7 -10 -16 -10 -8 0 -12 5 -9 10 3 6 10 10 16 10 5 0 9 -4 9 -10z m-164
-22 c4 -7 3 -8 -4 -4 -16 10 -15 -6 1 -24 6 -8 2 -6 -11 5 -17 14 -19 21 -10
27 16 10 16 10 24 -4z m-37 -34 c7 5 9 1 5 -9 -4 -11 -2 -14 9 -9 8 3 17 1 21
-4 8 -13 -30 -8 -48 7 -9 8 -16 19 -16 25 0 6 4 5 9 -3 5 -7 14 -11 20 -7z
m-538 -69 c-11 -19 -16 -35 -11 -35 6 0 10 -14 10 -31 0 -18 -4 -28 -10 -24
-6 4 -10 16 -8 27 2 12 -3 23 -11 26 -8 3 -11 0 -7 -7 4 -6 5 -11 2 -11 -3 0
-10 9 -16 19 -10 20 -4 29 54 79 20 17 18 -7 -3 -43z m639 35 c-6 -11 -9 -24
-7 -28 3 -4 -2 -13 -11 -21 -13 -13 -14 -11 -8 15 7 27 23 54 33 54 2 0 -1 -9
-7 -20z m-273 -38 c15 12 15 11 5 -9 -20 -36 -27 -33 -28 10 -1 25 0 31 3 14
4 -25 7 -27 20 -15z m637 30 c3 -5 -1 -9 -9 -9 -8 0 -12 4 -9 9 3 4 7 8 9 8 2
0 6 -4 9 -8z m-437 -24 c2 -17 0 -19 -7 -8 -5 8 -6 18 -4 22 8 12 10 10 11
-14z m-547 -30 c0 -16 -3 -19 -11 -11 -6 6 -8 16 -5 22 11 17 16 13 16 -11z
m590 -17 c0 -5 10 -8 23 -7 17 2 22 -3 23 -20 2 -21 0 -22 -13 -8 -9 8 -18 13
-20 10 -3 -3 2 -12 11 -21 9 -9 16 -21 16 -26 0 -11 -31 20 -47 49 -16 26 -16
32 -3 32 6 0 10 -4 10 -9z m-280 -10 c0 -6 -49 -31 -60 -31 -3 0 -6 8 -6 18 0
14 8 18 33 18 18 0 33 -2 33 -5z m24 -16 c-9 -14 -22 -25 -30 -25 -13 0 -36
-32 -33 -47 4 -21 -2 -33 -13 -27 -8 5 -9 2 -4 -11 5 -15 4 -16 -8 -6 -8 7
-13 20 -11 29 2 9 4 25 4 35 1 10 5 16 10 13 5 -3 11 1 15 9 3 8 14 15 24 15
10 0 27 9 37 20 25 27 29 25 9 -5z m-410 -34 c-1 -1 1 -13 6 -25 5 -15 3 -28
-7 -41 -14 -18 -15 -18 -9 -2 9 27 -3 40 -22 25 -14 -11 -14 -8 2 16 13 20 15
31 7 39 -6 6 -11 15 -11 21 0 5 8 1 19 -10 10 -10 17 -21 15 -23z m256 29 c0
-5 -4 -10 -10 -10 -5 0 -10 5 -10 10 0 6 5 10 10 10 6 0 10 -4 10 -10z m540
-65 c0 -8 -2 -15 -4 -15 -2 0 -6 7 -10 15 -3 8 -1 15 4 15 6 0 10 -7 10 -15z
m373 -28 c-2 -4 1 -15 8 -23 13 -15 7 -27 -15 -30 -8 -1 -17 7 -19 18 -3 11
-10 17 -16 13 -14 -8 -14 8 0 22 13 13 50 13 42 0z m-1093 -27 c0 -6 32 -10
77 -10 42 0 73 -3 69 -7 -10 -10 -156 -11 -150 -1 3 4 0 8 -5 8 -6 0 -11 -4
-11 -8 0 -13 -69 -8 -75 5 -3 10 0 11 13 4 13 -7 26 -5 43 4 30 16 39 18 39 5z
m210 -27 c0 -14 -10 -16 -34 -7 -24 9 -19 19 9 19 14 0 25 -6 25 -12z m470 7
c0 -5 -2 -10 -4 -10 -3 0 -8 5 -11 10 -3 6 -1 10 4 10 6 0 11 -4 11 -10z m280
2 c0 -4 -32 -8 -71 -7 -48 1 -76 -3 -85 -13 -17 -16 -35 -7 -27 13 4 12 25 15
94 15 49 0 89 -4 89 -8z m-771 -38 c12 8 15 -6 4 -17 -8 -9 -33 12 -33 27 0 6
4 5 9 -3 5 -7 14 -10 20 -7z m945 -8 c-3 -8 0 -17 7 -22 8 -5 10 -3 5 7 -4 8
2 3 13 -10 12 -13 19 -27 15 -30 -4 -3 -9 0 -11 7 -3 6 -11 12 -19 12 -12 0
-12 -4 -4 -20 11 -20 8 -20 -172 -18 l-183 2 175 6 175 5 -169 5 c-123 4 -170
8 -174 18 -3 9 35 12 166 12 l169 0 -2 25 c-2 14 1 23 5 20 5 -3 7 -12 4 -19z
m-1358 -14 c-18 -16 -18 -16 -6 6 6 13 14 21 18 18 3 -4 -2 -14 -12 -24z m998
-20 c3 7 4 2 3 -12 -1 -16 -9 -26 -22 -27 l-20 -3 20 9 c18 8 19 9 3 16 -10 4
-18 12 -18 17 0 6 6 6 14 -1 11 -9 15 -9 20 1z m-691 -39 c-46 -2 -120 -2
-165 0 -46 1 -9 3 82 3 91 0 128 -2 83 -3z"/>
<path d="M2106 4981 c-10 -10 -13 -22 -8 -25 5 -3 14 6 20 19 14 30 11 31 -12
6z"/>
<path d="M1230 4765 c-13 -14 -19 -25 -13 -25 12 0 48 38 41 45 -2 3 -15 -6
-28 -20z"/>
<path d="M1527 4627 c-3 -8 1 -14 8 -14 7 0 11 6 8 14 -3 7 -6 13 -8 13 -2 0
-5 -6 -8 -13z"/>
<path d="M2340 4592 c0 -4 9 -13 20 -20 19 -12 20 -11 8 8 -13 20 -28 27 -28
12z"/>
<path d="M2158 4463 c45 -2 119 -2 165 0 45 1 8 3 -83 3 -91 0 -128 -2 -82 -3z"/>
<path d="M1476 5181 c-4 -6 -4 -21 0 -33 6 -19 7 -19 16 -5 11 20 -5 57 -16
38z"/>
<path d="M3674 5182 c-17 -13 -12 -27 12 -39 13 -6 24 -8 24 -3 0 4 -7 10 -15
14 -8 3 -15 11 -14 18 0 10 2 10 6 1 5 -15 23 -17 23 -4 0 12 -25 21 -36 13z"/>
<path d="M3715 5161 c-6 -11 9 -23 19 -14 9 9 7 23 -3 23 -6 0 -12 -4 -16 -9z"/>
<path d="M1376 5052 c-3 -5 1 -9 9 -9 8 0 12 4 9 9 -3 4 -7 8 -9 8 -2 0 -6 -4
-9 -8z"/>
<path d="M3010 4979 c-19 -5 -42 -11 -51 -13 -9 -2 -39 -19 -68 -36 -46 -29
-52 -36 -46 -58 5 -22 4 -24 -9 -13 -12 10 -17 7 -31 -18 -8 -17 -12 -31 -8
-31 5 0 3 -4 -4 -8 -9 -5 -10 -17 -4 -37 5 -17 10 -24 10 -17 1 6 5 12 10 12
5 0 7 -9 4 -20 -7 -26 -21 -25 -33 3 -7 15 -8 2 -5 -48 7 -98 11 -124 18 -132
14 -13 20 7 7 22 -11 13 -10 14 4 9 20 -8 21 10 1 30 -8 8 -15 18 -15 22 0 13
32 -20 47 -50 9 -17 18 -26 20 -19 5 15 -24 73 -37 73 -6 0 -10 7 -10 15 0 8
5 15 10 15 6 0 10 7 10 16 0 14 -2 14 -16 -1 -14 -13 -19 -14 -25 -3 -5 7 -9
18 -9 23 0 6 4 4 9 -3 6 -10 10 -10 21 3 20 25 29 17 25 -22 -2 -25 3 -46 16
-64 10 -15 19 -35 19 -44 0 -10 8 -24 18 -31 13 -10 14 -15 5 -24 -14 -15 -36
-3 -29 16 3 8 1 14 -3 14 -14 0 -20 -25 -10 -41 10 -16 29 -19 46 -7 8 6 10 3
9 -9 -3 -19 -31 -20 -53 -1 -20 17 -15 0 9 -27 16 -19 24 -22 35 -14 9 9 17 8
28 -1 8 -6 20 -8 26 -4 9 5 7 9 -6 14 -20 7 -29 36 -14 46 5 3 9 2 8 -3 -3
-20 2 -34 11 -28 6 3 10 2 10 -3 0 -6 10 -12 23 -16 12 -3 32 -14 44 -26 12
-11 32 -20 45 -21 22 0 22 -1 3 -8 -11 -5 -23 -7 -27 -5 -4 3 -9 0 -13 -6 -4
-6 9 -9 36 -7 24 2 45 9 47 15 2 7 8 12 13 12 6 0 7 -5 3 -11 -8 -13 20 -6 85
22 32 14 42 23 37 35 -4 11 -2 15 8 11 28 -11 43 25 43 108 0 44 -1 60 -4 35
-6 -74 -11 -90 -29 -83 -9 3 -20 0 -25 -8 -7 -12 -9 -12 -9 1 1 8 7 24 15 34
13 17 15 18 15 3 0 -9 5 -17 10 -17 6 0 10 25 10 56 0 34 -4 53 -10 49 -5 -3
-33 -8 -61 -10 -28 -1 -53 -6 -57 -10 -4 -4 8 -6 26 -3 19 3 32 0 32 -6 0 -6
4 -4 10 4 5 8 12 11 15 8 10 -10 -4 -28 -21 -28 -17 0 -19 -31 -2 -48 9 -9 9
-12 -2 -12 -11 0 -11 -3 -2 -12 19 -19 14 -38 -10 -37 -17 1 -19 2 -5 6 9 2
17 9 17 14 0 5 -19 -1 -42 -15 -70 -41 -201 -36 -230 8 -4 6 -12 11 -19 11
-18 0 -59 86 -63 132 -2 23 -7 47 -12 54 -4 8 -3 10 4 5 8 -5 12 2 12 21 0 15
11 49 25 74 13 26 21 50 17 54 -4 5 0 6 9 3 8 -3 26 3 40 13 13 10 34 19 47
19 13 0 32 5 42 10 13 7 27 7 44 -1 20 -9 28 -9 40 4 10 9 29 14 51 12 19 -2
35 1 35 6 0 5 -8 9 -17 10 -41 2 -63 6 -70 14 -5 4 2 4 14 1 12 -4 24 -2 28 4
6 9 -13 14 -42 11 -6 -1 -14 3 -18 9 -7 12 -56 12 -105 -1z m105 -20 c5 -6 1
-9 -10 -9 -16 0 -17 -2 -6 -9 8 -5 21 -7 29 -3 10 3 13 1 8 -6 -4 -7 -13 -12
-20 -12 -19 0 -57 36 -48 45 4 4 -3 5 -16 2 -13 -3 -20 -1 -16 5 7 10 64 1 79
-13z m-121 -5 c-18 -15 -18 -15 11 -10 17 2 37 1 45 -5 11 -6 2 -9 -30 -10
l-45 -2 35 -7 c30 -6 31 -8 8 -9 -38 -2 -64 9 -46 20 10 7 10 9 -1 9 -11 0 -9
4 5 15 26 19 43 19 18 -1z m-44 -14 c0 -5 -2 -10 -4 -10 -3 0 -8 5 -11 10 -3
6 -1 10 4 10 6 0 11 -4 11 -10z m-10 -20 c8 -5 11 -13 6 -17 -5 -4 -11 -2 -13
5 -3 6 -9 12 -15 12 -6 0 -7 -7 -4 -16 4 -9 1 -23 -5 -30 -6 -8 -8 -14 -4 -14
4 0 2 -7 -5 -15 -14 -17 -40 -20 -40 -5 0 5 7 7 15 4 9 -4 15 0 15 10 0 9 -5
16 -11 16 -5 0 -7 5 -3 11 5 8 9 8 14 -1 5 -8 10 -9 14 -2 9 15 -11 24 -37 17
-22 -7 -22 -7 -2 8 11 8 23 13 27 11 5 -3 8 0 8 5 0 13 20 14 40 1z m-105
-115 c-6 -5 -14 -17 -18 -25 -3 -8 -4 1 -2 20 1 19 3 42 4 50 1 9 6 6 15 -10
10 -19 10 -27 1 -35z m27 -17 c-7 -7 -12 -8 -12 -2 0 6 3 14 7 17 3 4 9 5 12
2 2 -3 -1 -11 -7 -17z m-11 -28 c5 0 9 -4 9 -8 0 -5 -7 -9 -15 -9 -10 0 -15 9
-14 26 1 17 3 20 6 9 2 -10 9 -18 14 -18z m9 -90 c0 -5 -5 -10 -11 -10 -5 0
-7 5 -4 10 3 6 8 10 11 10 2 0 4 -4 4 -10z m415 -40 c3 -5 1 -10 -4 -10 -6 0
-11 5 -11 10 0 6 2 10 4 10 3 0 8 -4 11 -10z m5 -30 c0 -5 -7 -10 -15 -10 -8
0 -15 -7 -15 -16 0 -14 -2 -14 -15 0 -8 8 -15 17 -15 20 0 3 7 3 15 0 8 -4 15
-1 15 5 0 6 7 11 15 11 8 0 15 -4 15 -10z m10 -80 c13 -9 13 -11 0 -20 -8 -5
-19 -9 -25 -9 -5 0 -4 3 3 6 6 2 12 9 12 14 0 6 -4 7 -10 4 -5 -3 -10 -1 -10
4 0 14 10 14 30 1z m-43 -32 c-3 -8 -6 -5 -6 6 -1 11 2 17 5 13 3 -3 4 -12 1
-19z m-70 -20 c-20 -5 -20 -6 -2 -8 11 -1 28 -3 38 -5 9 -2 17 1 17 6 0 5 5 9
10 9 19 0 10 -17 -15 -28 -32 -15 -48 -15 -40 -2 3 6 -3 10 -14 10 -10 0 -27
3 -37 7 -13 5 -10 9 17 23 23 11 36 12 41 5 4 -5 -2 -13 -15 -17z m53 13 c0
-5 -7 -11 -14 -14 -10 -4 -13 -1 -9 9 6 15 23 19 23 5z m-74 -46 c10 -8 14
-15 7 -15 -19 0 -43 11 -43 21 0 13 14 11 36 -6z"/>
<path d="M4188 4984 c-6 -5 -32 -12 -55 -13 -7 -1 -13 -8 -13 -17 0 -13 7 -15
33 -10 21 4 27 3 18 -3 -12 -8 -9 -11 12 -16 15 -4 36 -5 47 -2 11 3 18 2 15
-3 -7 -11 40 -21 61 -13 16 6 16 7 -2 14 -18 7 -18 8 1 9 14 2 12 5 -10 10
l-30 9 30 -2 c18 -1 29 -7 28 -14 -2 -7 6 -17 17 -23 11 -6 20 -16 20 -22 0
-6 -9 -3 -19 6 -11 10 -21 13 -25 7 -4 -5 2 -12 13 -16 10 -3 29 -14 41 -25
12 -11 27 -17 33 -13 6 4 8 0 4 -10 -4 -12 -2 -14 10 -10 12 5 14 1 8 -17 -5
-16 -4 -20 4 -15 8 5 10 -1 5 -21 -4 -15 -3 -25 2 -21 5 3 9 -26 10 -65 1 -38
-2 -64 -6 -58 -4 7 -10 -2 -14 -23 -3 -19 -15 -42 -26 -52 -11 -10 -20 -24
-20 -30 0 -7 -10 -15 -23 -19 -13 -3 -28 -18 -35 -33 -6 -15 -9 -19 -7 -8 5
19 0 20 -75 18 -44 0 -80 -5 -80 -10 0 -4 5 -8 12 -8 6 0 12 -6 14 -13 1 -7 0
-8 -3 -2 -3 8 -9 7 -19 -1 -8 -6 -11 -15 -8 -20 3 -5 -2 -6 -10 -3 -9 3 -16 2
-16 -4 0 -12 84 -31 120 -27 14 1 38 3 53 4 24 1 27 4 22 21 -5 15 -2 20 12
20 15 0 16 2 3 10 -8 5 -11 13 -6 17 5 4 11 2 13 -4 3 -8 14 -11 29 -7 15 4
24 2 24 -6 0 -6 -4 -9 -9 -5 -13 7 -62 -16 -55 -26 3 -5 10 -9 15 -9 6 0 7 5
3 12 -5 8 -2 9 10 5 11 -5 15 -3 10 5 -5 7 -2 9 7 6 17 -7 29 2 83 59 30 32
39 50 38 75 0 22 2 28 8 18 6 -10 11 -2 17 26 9 47 8 149 -3 166 -5 7 -9 19
-10 25 -6 37 -125 165 -140 150 -3 -2 12 -18 33 -33 21 -16 38 -35 37 -41 -1
-7 -2 -20 -3 -29 -1 -14 -3 -14 -17 -3 -9 7 -23 14 -31 15 -20 3 -28 12 -19
21 4 4 12 1 17 -7 8 -12 10 -10 6 8 -3 12 -1 20 4 16 5 -3 9 -1 9 4 0 5 -11
14 -25 20 -14 6 -25 18 -25 26 0 10 -19 19 -56 27 -48 11 -59 10 -84 -4 -15
-9 -34 -17 -42 -17 -7 1 1 7 17 15 17 7 23 14 14 14 -9 1 -18 -2 -21 -5z m97
-14 c-3 -5 -12 -7 -20 -3 -21 7 -19 13 6 13 11 0 18 -4 14 -10z m65 -26 c0 -8
7 -17 15 -20 8 -4 15 -10 15 -15 0 -16 -35 12 -46 36 -9 19 -9 22 2 18 8 -3
14 -12 14 -19z m-125 -4 c-27 -12 -43 -12 -25 0 8 5 22 9 30 9 10 0 8 -3 -5
-9z m255 -100 c4 0 7 -8 6 -17 0 -10 4 -17 10 -16 8 1 10 -6 6 -19 -4 -15 -2
-19 7 -13 10 5 11 2 7 -13 -4 -12 -2 -31 5 -43 13 -24 -2 -92 -23 -105 -7 -5
-8 -3 -3 7 5 7 8 27 7 44 -2 23 0 26 8 15 8 -12 10 -12 10 5 0 25 -19 59 -20
35 -1 -9 -6 -6 -16 10 -8 14 -13 17 -10 8 3 -11 0 -18 -8 -18 -9 0 -12 8 -8
25 2 14 11 25 18 25 18 0 18 11 -2 46 l-16 29 5 -28 c6 -36 -10 -46 -19 -10
-5 17 -3 28 4 31 7 2 13 11 13 20 1 15 2 15 6 0 2 -10 8 -18 13 -18z m7 -160
c-3 -11 -1 -23 4 -26 5 -3 7 -10 3 -15 -7 -11 -44 23 -44 41 0 14 17 13 23 -2
3 -8 6 -6 6 5 1 9 4 17 7 17 4 0 4 -9 1 -20z m-3 -78 c7 -12 -20 -86 -33 -90
-6 -2 -11 -10 -11 -17 0 -22 -32 -33 -68 -23 -31 8 -36 28 -7 28 8 0 18 7 23
17 9 14 10 14 16 -5 4 -12 4 -27 0 -33 -4 -8 -3 -9 4 -5 7 4 12 13 12 21 0 8
8 20 18 27 19 14 46 68 38 76 -3 2 -10 -7 -15 -21 -12 -30 -31 -44 -31 -23 0
17 29 56 42 56 4 0 9 -4 12 -8z m-67 -64 c-3 -8 -6 -5 -6 6 -1 11 2 17 5 13 3
-3 4 -12 1 -19z"/>
<path d="M4491 4754 c0 -11 3 -14 6 -6 3 7 2 16 -1 19 -3 4 -6 -2 -5 -13z"/>
<path d="M4376 4494 c-11 -8 -16 -14 -10 -14 13 0 39 18 34 24 -3 2 -14 -2
-24 -10z"/>
<path d="M3430 4972 c-6 -3 -10 -99 -10 -288 l0 -284 49 0 50 0 3 118 c2 64
-1 123 -6 130 -17 24 8 31 114 34 78 2 104 6 102 16 -1 6 6 12 15 12 13 0 14
3 5 12 -9 9 -15 9 -24 0 -7 -7 -21 -12 -32 -13 -21 0 -21 0 -1 -9 13 -6 -14
-9 -78 -8 l-98 1 2 113 c1 90 4 114 15 114 8 0 14 -5 14 -11 0 -8 35 -9 114
-6 95 4 114 3 109 -9 -3 -8 0 -14 7 -14 6 0 9 4 6 9 -6 9 22 26 37 23 11 -3 8
5 -9 18 -12 11 -15 11 -12 0 2 -7 -3 -15 -11 -18 -10 -3 -12 0 -8 11 9 24 -27
49 -70 49 -71 -1 -113 -6 -113 -14 0 -4 -6 -8 -13 -8 -8 0 -14 -7 -14 -15 0
-12 13 -15 56 -13 l56 1 -45 6 -45 7 47 4 c25 3 44 2 41 -2 -2 -5 4 -8 14 -9
16 0 16 -1 -2 -9 -28 -12 -123 -12 -130 0 -3 6 -15 10 -27 10 -16 0 -19 5 -14
24 6 23 4 24 -39 23 -24 -1 -49 -3 -55 -5z m277 -8 c-3 -3 -12 -4 -19 -1 -8 3
-5 6 6 6 11 1 17 -2 13 -5z m33 -14 c-8 -5 -19 -10 -25 -10 -5 0 -3 5 5 10 8
5 20 10 25 10 6 0 3 -5 -5 -10z m-252 -49 c-11 -18 -38 -24 -38 -9 0 4 5 8 10
8 6 0 10 10 10 21 0 18 3 19 15 9 11 -9 11 -16 3 -29z m282 29 c0 -5 -10 -10
-22 -10 -19 0 -20 2 -8 10 19 13 30 13 30 0z m-323 -172 c-2 -24 -4 -7 -4 37
0 44 2 63 4 43 2 -21 2 -57 0 -80z m12 -261 c-4 -34 -5 -66 -2 -72 4 -5 2 -6
-3 -2 -13 12 -11 145 2 140 7 -2 8 -25 3 -66z"/>
<path d="M4641 4794 c1 -104 5 -202 10 -219 8 -28 8 -27 4 8 -2 20 0 37 5 37
14 0 21 -49 10 -70 -12 -22 -9 -28 29 -77 23 -30 26 -31 51 -18 17 9 31 10 41
4 11 -7 11 -9 0 -9 -10 0 -11 -3 -2 -13 8 -10 7 -14 -4 -14 -8 0 -12 4 -10 8
3 4 -2 9 -10 13 -8 3 -17 1 -20 -5 -10 -16 66 -41 125 -42 66 -1 110 5 104 14
-2 4 3 10 12 13 24 9 31 7 14 -5 -12 -9 -12 -10 3 -5 10 3 22 6 26 6 14 0 6
40 -9 45 -15 5 -25 35 -11 33 14 -3 42 15 33 21 -7 4 -5 13 4 25 13 19 14 19
14 1 0 -10 7 -26 15 -35 14 -15 14 -18 1 -23 -10 -4 -13 -1 -9 9 3 7 1 14 -5
14 -14 0 -23 -28 -11 -36 6 -4 6 -11 -2 -20 -7 -9 -8 -14 -1 -14 6 0 25 18 42
40 26 33 30 43 20 55 -11 13 -10 14 2 10 23 -9 28 34 28 240 0 202 2 195 -65
195 l-34 0 -3 -221 c-3 -209 -4 -222 -23 -235 -11 -7 -29 -20 -40 -29 l-20
-15 20 7 c11 3 17 3 13 -2 -12 -13 -144 -5 -181 10 -21 9 -40 29 -56 60 -14
27 -27 41 -31 35 -4 -7 -10 2 -13 19 -4 20 -11 29 -20 26 -8 -4 -13 3 -14 17
-2 18 0 20 7 8 5 -8 10 -11 10 -6 0 6 7 1 15 -10 8 -10 15 -14 15 -9 1 6 5 1
10 -10 5 -12 9 51 9 163 l1 182 -27 0 c-16 0 -38 3 -50 6 l-23 6 1 -188z m56
138 c7 -4 9 -13 4 -21 -10 -16 -31 -6 -31 15 0 16 9 18 27 6z m391 -9 c-2 -10
2 -17 9 -16 16 4 5 -24 -12 -31 -17 -6 -30 10 -16 19 5 3 8 14 6 25 -2 11 1
20 6 20 5 0 9 -8 7 -17z m39 -30 c-3 -10 -5 -2 -5 17 0 19 2 27 5 18 2 -10 2
-26 0 -35z m-400 -130 c-2 -21 -4 -4 -4 37 0 41 2 58 4 38 2 -21 2 -55 0 -75z
m366 -80 c-14 -11 -14 -13 -2 -13 27 0 15 -69 -12 -70 -8 0 -3 96 6 110 6 9
10 9 16 -1 6 -9 3 -18 -8 -26z m34 -55 c-3 -8 -6 -5 -6 6 -1 11 2 17 5 13 3
-3 4 -12 1 -19z m-427 -40 c-1 -13 -8 -34 -16 -48 -9 -15 -12 -17 -8 -5 4 11
7 32 7 48 0 15 4 27 8 27 5 0 9 -10 9 -22z m395 -29 c-5 -22 -3 -34 6 -41 12
-8 12 -9 0 -6 -17 5 -35 48 -21 48 6 0 10 7 10 15 0 8 3 15 6 15 3 0 3 -14 -1
-31z m-355 -9 c10 -6 11 -10 3 -10 -7 0 -13 -4 -13 -10 0 -5 6 -7 13 -4 7 2
19 -7 27 -20 7 -14 17 -23 22 -20 4 3 8 0 8 -6 0 -7 -7 -9 -16 -6 -9 4 -27 0
-39 -8 -20 -13 -24 -13 -29 -1 -6 17 29 39 46 29 7 -5 8 -3 4 5 -5 7 -14 10
-22 7 -8 -3 -14 0 -14 7 0 7 -5 4 -11 -6 -11 -18 -29 -14 -29 6 0 9 3 8 8 -1
6 -9 12 -6 20 13 7 15 8 25 2 25 -6 0 -10 -5 -10 -12 0 -6 -3 -9 -6 -5 -7 7 4
27 14 27 4 0 14 -5 22 -10z m245 -90 c-3 -5 2 -10 11 -10 10 0 15 -3 11 -6 -3
-3 -15 -3 -28 1 -17 6 -19 9 -8 16 18 11 22 11 14 -1z m-130 -9 c3 -5 1 -12
-5 -16 -5 -3 -10 1 -10 9 0 18 6 21 15 7z m51 -18 c-10 -11 -36 -12 -36 -2 0
5 10 9 22 9 12 0 18 -3 14 -7z"/>
<path d="M4730 4480 c-9 -6 -10 -10 -3 -10 6 0 15 5 18 10 8 12 4 12 -15 0z"/>
<path d="M5279 4976 c-3 -3 -3 -21 -1 -40 3 -27 8 -33 21 -29 9 3 7 -2 -6 -11
-23 -17 -23 -20 -23 -257 l0 -239 51 0 50 0 -3 110 c-2 81 0 111 10 115 6 2
12 9 12 15 0 5 -6 10 -12 10 -10 0 -13 36 -13 145 0 79 3 137 6 128 4 -13 7
-14 14 -3 5 8 2 17 -7 24 -12 9 -2 11 41 12 42 1 47 0 22 -5 -31 -5 -57 -31
-32 -31 6 0 11 5 11 10 0 6 21 10 47 10 30 0 53 6 66 18 15 12 21 14 24 5 5
-15 43 -17 43 -3 0 6 -1 10 -2 11 -12 4 -315 8 -319 5z m68 -351 c0 -8 -5 -11
-10 -8 -6 4 -8 -1 -4 -11 6 -14 3 -17 -9 -12 -8 3 -20 6 -25 6 -5 0 -9 7 -9
16 0 8 5 12 10 9 6 -3 10 -1 10 4 0 6 8 11 18 11 10 0 19 -7 19 -15z m-37 -87
c0 -7 -5 -20 -10 -28 -8 -12 -10 -9 -10 13 0 15 5 27 10 27 6 0 10 -6 10 -12z"/>
<path d="M3535 4962 c-10 -10 -5 -22 9 -22 8 0 16 6 19 13 5 13 -17 19 -28 9z"/>
<path d="M4085 4948 c-29 -17 -82 -72 -99 -105 -13 -26 -13 -33 0 -58 8 -15
12 -35 9 -44 -2 -9 -1 -22 4 -29 5 -9 8 5 8 37 0 28 -4 48 -8 45 -5 -3 -9 0
-9 5 0 6 5 11 10 11 6 0 10 5 10 11 0 5 -4 7 -10 4 -5 -3 -10 -2 -10 4 0 16
18 22 23 9 2 -7 8 -10 12 -6 4 4 2 14 -5 23 -10 12 -10 15 4 15 17 0 22 -35 6
-45 -5 -3 -8 -28 -7 -55 4 -54 -3 -72 -27 -76 -16 -2 -20 11 -16 53 1 12 -4
30 -10 40 -9 15 -10 11 -5 -17 3 -19 3 -30 -2 -23 -4 6 -9 -19 -9 -58 -1 -59
1 -69 17 -74 11 -4 19 -11 19 -16 0 -6 8 -8 19 -4 24 7 34 -17 16 -42 -13 -17
-14 -16 -9 7 2 14 1 18 -2 10 -4 -8 -12 -21 -18 -29 -8 -11 -8 -13 1 -8 7 4
18 -2 27 -15 20 -28 11 -38 -10 -12 -9 11 -12 13 -7 3 10 -21 67 -69 82 -69 6
0 11 -5 11 -11 0 -5 5 -7 10 -4 6 4 8 11 5 16 -4 5 3 8 14 6 11 -1 20 3 20 8
0 6 -8 9 -18 8 -14 -2 -17 3 -14 20 3 14 -3 30 -16 41 -12 11 -21 16 -21 11 0
-4 -7 -2 -15 5 -8 7 -15 17 -15 22 0 6 8 4 17 -3 15 -12 16 -12 10 4 -4 10 -7
21 -7 23 0 2 -6 4 -14 4 -8 0 -18 9 -21 20 -8 25 -25 26 -25 3 -1 -14 -6 -12
-25 10 -30 34 -32 47 -5 47 11 0 20 -4 20 -10 0 -5 -5 -10 -11 -10 -5 0 -7 -4
-4 -10 7 -12 26 -14 24 -2 -4 23 2 42 11 37 7 -4 7 -12 2 -18 -5 -8 1 -21 16
-36 20 -19 24 -20 17 -5 -21 53 -24 80 -13 110 9 25 9 36 -1 48 -10 12 -9 21
4 46 9 17 13 35 10 40 -3 6 -1 10 4 10 6 0 11 5 11 11 0 5 -4 8 -9 4 -5 -3
-12 -1 -15 4 -4 5 -2 12 3 15 10 7 41 -31 41 -49 0 -5 -5 -3 -11 5 -9 13 -10
13 -6 -2 3 -9 -3 -26 -13 -38 -11 -13 -17 -27 -14 -32 3 -5 18 10 34 34 21 33
25 46 16 57 -9 12 -8 13 8 4 22 -12 70 3 60 18 -3 5 10 6 28 3 32 -5 31 -4 -6
10 -36 13 -43 13 -66 -1 -20 -11 -32 -13 -45 -6 -17 10 -16 12 6 23 22 12 23
12 10 -3 -11 -15 -11 -17 2 -17 17 0 28 22 18 38 -4 7 -12 7 -26 0z m55 -53
c-7 -9 -15 -13 -17 -11 -7 7 7 26 19 26 6 0 6 -6 -2 -15z m-103 -157 c-3 -8
-6 -5 -6 6 -1 11 2 17 5 13 3 -3 4 -12 1 -19z m11 -223 c-3 -3 -9 2 -12 12 -6
14 -5 15 5 6 7 -7 10 -15 7 -18z m59 -25 c2 -13 -3 -20 -15 -21 -14 0 -14 -2
3 -9 13 -6 15 -9 5 -9 -8 0 -25 7 -37 17 -20 15 -20 19 -7 36 7 11 14 14 14 8
0 -7 8 -12 18 -11 10 0 12 3 5 6 -7 2 -13 10 -13 16 0 18 23 -10 27 -33z"/>
<path d="M4057 4493 c-4 -6 0 -13 8 -17 8 -3 17 0 21 6 4 6 3 8 -4 4 -5 -3
-12 -1 -14 6 -3 8 -6 9 -11 1z"/>
<path d="M5610 4949 c0 -8 -12 -10 -39 -5 -23 3 -42 2 -46 -4 -3 -5 -23 -10
-44 -10 -20 0 -41 -4 -46 -9 -6 -5 -19 -12 -30 -14 -11 -3 23 -5 75 -4 59 1
95 -2 94 -8 -1 -13 36 -48 37 -35 1 6 3 15 4 20 1 6 3 15 4 21 0 5 5 8 10 5 5
-4 12 0 14 6 4 10 6 10 6 0 1 -7 6 -10 11 -7 6 4 10 3 9 -2 -4 -21 2 -56 8
-50 3 4 12 -1 20 -11 13 -15 13 -15 8 8 -4 14 -14 31 -23 38 -9 6 -13 12 -9
12 4 0 3 9 -3 20 -6 11 -15 18 -20 15 -4 -3 -16 2 -24 11 -10 10 -16 11 -16 3z
m18 -18 c1 -1 -4 -11 -13 -24 -8 -13 -12 -27 -8 -32 5 -4 2 -5 -5 -1 -7 4 -10
12 -7 17 4 5 1 9 -5 9 -6 0 -8 5 -5 10 6 9 -22 15 -54 11 -7 -2 -11 2 -8 6 4
7 76 9 105 4z"/>
<path d="M1340 4924 c0 -8 5 -12 10 -9 6 3 10 10 10 16 0 5 -4 9 -10 9 -5 0
-10 -7 -10 -16z"/>
<path d="M3221 4913 c-7 -12 -10 -14 -11 -4 0 11 -3 11 -16 0 -12 -10 -17 -10
-23 0 -6 9 -11 8 -21 -4 -11 -13 -10 -14 5 -9 13 5 16 4 11 -4 -5 -8 -1 -10
10 -5 13 5 15 3 9 -7 -5 -9 -4 -11 3 -6 7 4 16 -3 22 -18 9 -24 10 -24 39 -10
43 21 46 32 20 60 -27 29 -35 30 -48 7z m44 -15 c5 4 5 1 1 -6 -4 -7 -12 -10
-17 -7 -5 4 -9 2 -9 -4 0 -5 6 -11 12 -13 7 -3 3 -7 -8 -10 -18 -4 -21 -2 -17
16 3 15 2 17 -5 8 -7 -10 -11 -10 -22 3 -12 14 -10 15 14 11 23 -4 27 -2 22
12 -6 16 -5 16 7 0 8 -10 18 -14 22 -10z"/>
<path d="M3715 4890 c3 -5 13 -6 22 -3 11 4 14 3 9 -5 -4 -7 -2 -12 4 -12 6 0
8 -5 5 -10 -4 -6 -3 -10 2 -9 20 3 27 -2 14 -10 -12 -8 -12 -12 -2 -25 11 -13
11 -19 1 -31 -20 -24 -2 -31 19 -8 13 14 16 24 10 36 -10 16 7 57 23 57 13 0
9 -17 -7 -30 -12 -10 -13 -16 -4 -26 15 -19 -14 -64 -41 -64 -22 0 -27 -15 -9
-25 7 -5 2 -16 -12 -31 -21 -22 -31 -24 -128 -25 -58 -1 -92 -4 -76 -6 17 -3
34 -9 40 -14 6 -6 -4 -7 -25 -3 -31 7 -33 5 -22 -8 8 -10 23 -14 45 -11 17 3
42 6 55 6 33 1 26 15 -10 20 -29 3 -28 4 9 5 42 2 65 -11 38 -22 -8 -3 -15
-10 -15 -16 0 -6 12 -4 28 6 26 15 26 15 5 -1 -13 -10 -23 -22 -23 -27 0 -7 5
-6 13 1 8 6 16 8 19 5 3 -3 15 7 27 22 12 15 24 24 28 21 3 -4 12 -2 20 5 11
9 11 14 -4 31 -18 20 -18 20 8 3 26 -16 26 -16 54 24 24 35 26 44 16 66 -6 15
-7 23 -1 19 5 -3 10 -1 10 4 0 6 -4 11 -10 11 -5 0 -10 7 -10 16 0 8 5 12 10
9 13 -8 12 -5 -1 34 -12 33 -36 41 -45 16 -4 -8 -13 -15 -20 -15 -8 0 -17 7
-20 15 -4 8 -17 15 -31 15 -13 0 -22 -4 -18 -10z m135 -141 c0 -6 -5 -7 -12
-3 -7 5 -9 2 -5 -9 3 -8 0 -20 -6 -26 -16 -13 -18 28 -2 45 11 13 25 9 25 -7z
m-56 -31 c1 -7 5 -19 10 -26 7 -11 4 -11 -12 -1 -11 7 -18 20 -17 28 2 9 4 18
4 20 2 8 13 -7 15 -21z m-31 -55 c3 -5 -11 -9 -31 -10 -32 -1 -34 0 -12 7 34
11 38 11 43 3z"/>
<path d="M4412 4888 c2 -6 10 -14 16 -16 7 -2 10 2 6 12 -7 18 -28 22 -22 4z"/>
<path d="M5629 4874 c-7 -16 -13 -49 -14 -73 l-2 -45 18 23 c11 13 19 20 19
15 0 -4 -7 -15 -15 -24 -9 -10 -13 -25 -9 -34 8 -21 23 -21 19 2 -1 9 0 11 2
5 3 -7 12 -13 21 -14 11 0 8 -4 -8 -10 -20 -8 -22 -12 -10 -19 17 -11 37 -13
27 -3 -4 3 0 11 7 17 8 6 17 22 21 34 7 23 7 23 -19 7 -16 -11 -26 -13 -26 -6
0 6 5 11 11 11 14 0 39 26 39 41 0 7 -10 3 -23 -9 l-23 -22 -2 57 c-2 68 -16
89 -33 47z m18 -31 c-3 -10 -5 -2 -5 17 0 19 2 27 5 18 2 -10 2 -26 0 -35z"/>
<path d="M2167 4873 c-5 -7 -5 -18 -2 -23 4 -6 1 -18 -6 -26 -9 -11 -9 -18 -1
-26 19 -19 28 3 22 47 -3 25 -8 35 -13 28z"/>
<path d="M5674 4816 c0 -13 4 -22 9 -19 10 6 9 43 -2 43 -5 0 -8 -11 -7 -24z"/>
<path d="M2280 4740 c0 -5 5 -10 10 -10 6 0 10 5 10 10 0 6 -4 10 -10 10 -5 0
-10 -4 -10 -10z"/>
<path d="M5595 4740 c-3 -5 -1 -10 5 -10 6 0 8 -5 5 -10 -4 -6 -11 -8 -16 -5
-5 3 -25 -2 -44 -11 -26 -12 -52 -15 -93 -12 -31 3 -63 3 -69 1 -16 -6 -17
-33 -2 -33 5 0 7 5 4 10 -4 6 23 10 74 10 47 0 81 -4 81 -10 0 -15 19 -12 36
5 14 13 13 15 -8 15 -21 1 -21 2 -5 11 13 8 22 7 32 -1 12 -10 10 -17 -16 -42
-16 -17 -33 -28 -36 -24 -4 3 -3 6 2 6 4 0 2 7 -5 15 -9 10 -29 14 -64 13
l-51 -1 45 -4 c65 -6 69 -19 4 -15 -42 3 -53 1 -49 -10 4 -9 24 -13 68 -12 90
1 97 2 97 19 0 8 5 15 11 15 5 0 7 -4 4 -10 -3 -5 -1 -10 4 -10 6 0 11 5 11
12 0 6 3 8 7 5 7 -7 33 11 33 23 0 4 -11 12 -25 18 -15 7 -22 17 -19 26 6 17
-12 31 -21 16z m45 -63 c0 -8 -7 -14 -15 -14 -11 0 -12 4 -4 14 6 7 13 13 15
13 2 0 4 -6 4 -13z"/>
<path d="M3120 4701 l-85 -6 118 -7 c116 -7 147 -4 147 13 0 9 -35 9 -180 0z"/>
<path d="M3120 4670 l85 -6 -80 -6 c-60 -4 -53 -4 30 -2 165 5 177 19 17 20
-116 1 -124 0 -52 -6z"/>
<path d="M5400 4660 c0 -5 5 -10 10 -10 6 0 10 5 10 10 0 6 -4 10 -10 10 -5 0
-10 -4 -10 -10z"/>
<path d="M3063 4633 c15 -2 39 -2 55 0 15 2 2 4 -28 4 -30 0 -43 -2 -27 -4z"/>
<path d="M5400 4630 c0 -5 5 -10 10 -10 6 0 10 5 10 10 0 6 -4 10 -10 10 -5 0
-10 -4 -10 -10z"/>
<path d="M3636 4621 c-4 -6 -2 -11 3 -11 6 0 11 -8 12 -17 0 -10 3 -13 5 -6 8
18 -11 49 -20 34z"/>
<path d="M3702 4580 l-32 -30 22 -31 c12 -16 24 -25 26 -19 2 6 -4 20 -14 31
-15 16 -15 19 -1 19 9 0 18 -13 23 -32 l7 -33 9 30 c9 35 4 55 -14 54 -10 0
-10 -2 0 -6 6 -2 12 -12 12 -21 0 -13 -2 -13 -14 3 -20 28 -10 47 17 34 20 -9
20 -9 5 4 -10 8 -15 17 -11 20 3 4 4 7 2 7 -2 0 -19 -14 -37 -30z"/>
<path d="M3680 4585 c-8 -9 -8 -15 -2 -15 12 0 26 19 19 26 -2 2 -10 -2 -17
-11z"/>
<path d="M3960 4594 c1 -19 28 -45 35 -34 4 6 5 12 4 13 -2 2 -12 9 -21 16
-10 7 -18 10 -18 5z"/>
<path d="M2814 4565 c-9 -19 -9 -28 2 -42 7 -10 14 -16 15 -13 12 53 0 91 -17
55z"/>
<path d="M2875 4540 c3 -5 8 -10 11 -10 2 0 4 5 4 10 0 6 -5 10 -11 10 -5 0
-7 -4 -4 -10z"/>
<path d="M3764 4529 c-20 -25 -24 -48 -8 -42 7 3 14 12 14 20 0 8 5 11 10 8 6
-4 8 -10 5 -15 -3 -5 6 -20 20 -34 14 -14 22 -26 17 -26 -5 0 -15 7 -22 15 -7
9 -15 13 -18 10 -3 -3 5 -16 18 -30 13 -14 20 -25 16 -25 -17 0 -45 46 -39 65
5 18 5 18 -21 2 -14 -10 -25 -14 -24 -10 2 4 0 9 -4 11 -8 2 -8 -5 -1 -25 3
-7 10 -10 16 -6 5 3 7 1 4 -5 -16 -25 4 -39 59 -39 36 0 53 4 51 11 -3 6 -10
10 -17 8 -6 -1 -10 3 -8 10 3 7 -5 27 -16 44 -12 17 -26 39 -31 49 -9 14 -12
15 -21 4z m16 -109 c0 -5 -2 -10 -4 -10 -3 0 -8 5 -11 10 -3 6 -1 10 4 10 6 0
11 -4 11 -10z"/>
<path d="M4135 4490 c-3 -5 -1 -10 4 -10 6 0 11 5 11 10 0 6 -2 10 -4 10 -3 0
-8 -4 -11 -10z"/>
<path d="M5027 4493 c-11 -11 -8 -21 9 -27 13 -5 14 -4 6 7 -7 8 -9 17 -5 20
3 4 4 7 1 7 -2 0 -8 -3 -11 -7z"/>
<path d="M2903 4448 c2 -7 10 -12 16 -10 6 1 11 -3 11 -10 0 -6 9 -3 20 7 22
20 28 8 8 -14 -9 -10 -9 -12 -1 -7 6 3 14 2 18 -4 3 -5 12 -10 18 -10 8 0 8 3
-2 9 -8 5 -9 11 -3 15 6 3 13 2 17 -4 3 -5 13 -10 21 -10 21 0 8 17 -27 36
-24 12 -33 13 -45 3 -11 -9 -18 -9 -26 -1 -16 16 -31 15 -25 0z"/>
</g>
</svg>
